AnekMalayalam-CondensedExtraBold.ufo
<glyph name="equal" format="2">
  <advance width="735"/>
  <unicode hex="003D"/>
  <outline>
    <contour>
      <point x="681" y="328" type="line"/>
      <point x="681" y="575" type="line"/>
      <point x="54" y="575" type="line"/>
      <point x="54" y="328" type="line"/>
    </contour>
    <contour>
      <point x="681" y="698" type="line"/>
      <point x="681" y="945" type="line"/>
      <point x="54" y="945" type="line"/>
      <point x="54" y="698" type="line"/>
    </contour>
  </outline>
</glyph>
<glyph name="Z" format="2">
  <advance width="745"/>
  <unicode hex="005A"/>
  <anchor x="373" y="0" name="bottom"/>
  <anchor x="373" y="639" name="center"/>
  <anchor x="373" y="1278" name="top"/>
  <outline>
    <contour>
      <point x="357" y="287" type="line"/>
      <point x="695" y="1021" type="line"/>
      <point x="695" y="1278" type="line"/>
      <point x="46" y="1278" type="line"/>
      <point x="46" y="993" type="line"/>
      <point x="375" y="993" type="line"/>
      <point x="40" y="259" type="line"/>
      <point x="40" y="0" type="line"/>
      <point x="703" y="0" type="line"/>
      <point x="703" y="287" type="line"/>
    </contour>
  </outline>
</glyph>
<glyph name="n" format="2">
  <advance width="873"/>
  <unicode hex="006E"/>
  <anchor x="437" y="0" name="bottom"/>
  <anchor x="437" y="1006" name="top"/>
  <outline>
    <contour>
      <point x="811" y="0" type="line"/>
      <point x="811" y="723" type="line" smooth="yes"/>
      <point x="811" y="920"/>
      <point x="748" y="1021"/>
      <point x="590" y="1021" type="curve" smooth="yes"/>
      <point x="445" y="1021"/>
      <point x="395" y="929"/>
      <point x="375" y="821" type="curve"/>
      <point x="312" y="821" type="line"/>
      <point x="375" y="701" type="line"/>
      <point x="382" y="736"/>
      <point x="406" y="762"/>
      <point x="441" y="762" type="curve" smooth="yes"/>
      <point x="487" y="762"/>
      <point x="500" y="730"/>
      <point x="500" y="664" type="curve" smooth="yes"/>
      <point x="500" y="0" type="line"/>
    </contour>
    <contour>
      <point x="377" y="0" type="line"/>
      <point x="377" y="782" type="line"/>
      <point x="362" y="782" type="line"/>
      <point x="373" y="1006" type="line"/>
      <point x="66" y="1006" type="line"/>
      <point x="66" y="0" type="line"/>
    </contour>
  </outline>
</glyph>
<glyph name="w" format="2">
  <advance width="1223"/>
  <unicode hex="0077"/>
  <anchor x="612" y="0" name="bottom"/>
  <anchor x="612" y="1006" name="top"/>
  <outline>
    <contour>
      <point x="555" y="0" type="line"/>
      <point x="605" y="662" type="line"/>
      <point x="609" y="749" type="line"/>
      <point x="620" y="749" type="line"/>
      <point x="623" y="662" type="line"/>
      <point x="669" y="0" type="line"/>
      <point x="1094" y="0" type="line"/>
      <point x="1201" y="1006" type="line"/>
      <point x="909" y="1006" type="line"/>
      <point x="853" y="219" type="line"/>
      <point x="839" y="219" type="line"/>
      <point x="780" y="988" type="line"/>
      <point x="447" y="988" type="line"/>
      <point x="386" y="219" type="line"/>
      <point x="371" y="219" type="line"/>
      <point x="322" y="1006" type="line"/>
      <point x="22" y="1006" type="line"/>
      <point x="130" y="0" type="line"/>
    </contour>
  </outline>
</glyph>
<glyph name="oslash" format="2">
  <advance width="839"/>
  <unicode hex="00F8"/>
  <anchor x="420" y="0" name="bottom"/>
  <anchor x="420" y="503" name="center"/>
  <anchor x="755" y="10" name="ogonek"/>
  <anchor x="420" y="1006" name="top"/>
  <anchor x="819" y="1006" name="topright"/>
  <outline>
    <contour>
      <point x="420" y="-15" type="curve" smooth="yes"/>
      <point x="667" y="-15"/>
      <point x="791" y="127"/>
      <point x="791" y="402" type="curve"/>
      <point x="791" y="605" type="line"/>
      <point x="791" y="874"/>
      <point x="653" y="1021"/>
      <point x="420" y="1021" type="curve" smooth="yes"/>
      <point x="172" y="1021"/>
      <point x="48" y="880"/>
      <point x="48" y="605" type="curve"/>
      <point x="48" y="402" type="line"/>
      <point x="48" y="133"/>
      <point x="186" y="-15"/>
    </contour>
    <contour>
      <point x="245" y="-71" type="line"/>
      <point x="298" y="61" type="line"/>
      <point x="335" y="158" type="line"/>
      <point x="569" y="753" type="line"/>
      <point x="629" y="870" type="line"/>
      <point x="713" y="1077" type="line"/>
      <point x="595" y="1077" type="line"/>
      <point x="532" y="922" type="line"/>
      <point x="502" y="838" type="line"/>
      <point x="264" y="227" type="line"/>
      <point x="206" y="127" type="line"/>
      <point x="126" y="-71" type="line"/>
    </contour>
    <contour>
      <point x="420" y="229" type="curve" smooth="yes"/>
      <point x="360" y="229"/>
      <point x="343" y="272"/>
      <point x="343" y="368" type="curve" smooth="yes"/>
      <point x="343" y="635" type="line" smooth="yes"/>
      <point x="343" y="734"/>
      <point x="360" y="777"/>
      <point x="420" y="777" type="curve" smooth="yes"/>
      <point x="479" y="777"/>
      <point x="496" y="736"/>
      <point x="496" y="641" type="curve" smooth="yes"/>
      <point x="496" y="372" type="line" smooth="yes"/>
      <point x="496" y="273"/>
      <point x="479" y="229"/>
    </contour>
  </outline>
</glyph>
<glyph name="idotless" format="2">
  <advance width="443"/>
  <unicode hex="0131"/>
  <anchor x="221" y="0" name="bottom"/>
  <anchor x="396" y="0" name="ogonek"/>
  <anchor x="221" y="1006" name="top"/>
  <outline>
    <contour>
      <point x="377" y="0" type="line"/>
      <point x="377" y="1006" type="line"/>
      <point x="66" y="1006" type="line"/>
      <point x="66" y="0" type="line"/>
    </contour>
  </outline>
</glyph>
<glyph name="vowelU.mlm" format="2">
  <advance width="1171"/>
  <unicode hex="0D09"/>
  <outline>
    <contour>
      <point x="582" y="1224" type="curve" smooth="yes"/>
      <point x="231" y="1224"/>
      <point x="58" y="1043"/>
      <point x="58" y="688" type="curve" smooth="yes"/>
      <point x="58" y="513" type="line" smooth="yes"/>
      <point x="58" y="304"/>
      <point x="167" y="195"/>
      <point x="381" y="195" type="curve" smooth="yes"/>
      <point x="595" y="195"/>
      <point x="700" y="304"/>
      <point x="700" y="513" type="curve" smooth="yes"/>
      <point x="700" y="611" type="line" smooth="yes"/>
      <point x="700" y="800"/>
      <point x="639" y="880"/>
      <point x="516" y="880" type="curve" smooth="yes"/>
      <point x="399" y="880"/>
      <point x="346" y="823"/>
      <point x="327" y="690" type="curve"/>
      <point x="323" y="592" type="line"/>
      <point x="332" y="624"/>
      <point x="354" y="642"/>
      <point x="382" y="642" type="curve" smooth="yes"/>
      <point x="416" y="642"/>
      <point x="431" y="621"/>
      <point x="431" y="572" type="curve" smooth="yes"/>
      <point x="431" y="490" type="line" smooth="yes"/>
      <point x="431" y="436"/>
      <point x="417" y="414"/>
      <point x="379" y="414" type="curve" smooth="yes"/>
      <point x="343" y="414"/>
      <point x="327" y="436"/>
      <point x="327" y="490" type="curve" smooth="yes"/>
      <point x="327" y="644" type="line"/>
      <point x="332" y="710" type="line"/>
      <point x="321" y="710" type="line"/>
      <point x="321" y="712" type="line"/>
      <point x="321" y="887"/>
      <point x="397" y="964"/>
      <point x="566" y="964" type="curve" smooth="yes"/>
      <point x="735" y="964"/>
      <point x="809" y="882"/>
      <point x="809" y="694" type="curve" smooth="yes"/>
      <point x="809" y="456" type="line" smooth="yes"/>
      <point x="809" y="292"/>
      <point x="754" y="224"/>
      <point x="634" y="224" type="curve" smooth="yes"/>
      <point x="365" y="224" type="line" smooth="yes"/>
      <point x="157" y="224"/>
      <point x="52" y="136"/>
      <point x="52" y="-44" type="curve" smooth="yes"/>
      <point x="52" y="-228"/>
      <point x="157" y="-320"/>
      <point x="365" y="-320" type="curve" smooth="yes"/>
      <point x="1065" y="-320" type="line"/>
      <point x="1098" y="-88" type="line"/>
      <point x="406" y="-88" type="line" smooth="yes"/>
      <point x="369" y="-88"/>
      <point x="350" y="-75"/>
      <point x="350" y="-44" type="curve" smooth="yes"/>
      <point x="350" y="-13"/>
      <point x="369" y="0"/>
      <point x="406" y="0" type="curve" smooth="yes"/>
      <point x="718" y="0" type="line" smooth="yes"/>
      <point x="984" y="0"/>
      <point x="1107" y="149"/>
      <point x="1107" y="460" type="curve" smooth="yes"/>
      <point x="1107" y="688" type="line" smooth="yes"/>
      <point x="1107" y="1043"/>
      <point x="936" y="1224"/>
    </contour>
  </outline>
</glyph>
<glyph name="vowelRu.mlm" format="2">
  <advance width="1434"/>
  <unicode hex="0D0B"/>
  <outline>
    <contour>
      <point x="376" y="1224" type="curve" smooth="yes"/>
      <point x="163" y="1224"/>
      <point x="53" y="1107"/>
      <point x="53" y="883" type="curve" smooth="yes"/>
      <point x="53" y="681" type="line" smooth="yes"/>
      <point x="53" y="484"/>
      <point x="140" y="324"/>
      <point x="317" y="278" type="curve" smooth="yes"/>
      <point x="345" y="271"/>
      <point x="368" y="248"/>
      <point x="397" y="236" type="curve"/>
      <point x="663" y="416" type="line"/>
      <point x="420" y="416"/>
      <point x="317" y="499"/>
      <point x="317" y="677" type="curve" smooth="yes"/>
      <point x="317" y="696" type="line"/>
      <point x="334" y="696" type="line"/>
      <point x="323" y="778" type="line"/>
      <point x="323" y="889" type="line" smooth="yes"/>
      <point x="323" y="948"/>
      <point x="340" y="970"/>
      <point x="375" y="970" type="curve" smooth="yes"/>
      <point x="408" y="970"/>
      <point x="422" y="948"/>
      <point x="422" y="889" type="curve" smooth="yes"/>
      <point x="422" y="819" type="line" smooth="yes"/>
      <point x="422" y="773"/>
      <point x="409" y="749"/>
      <point x="376" y="749" type="curve" smooth="yes"/>
      <point x="348" y="749"/>
      <point x="328" y="767"/>
      <point x="319" y="795" type="curve"/>
      <point x="323" y="719" type="line"/>
      <point x="336" y="598"/>
      <point x="393" y="537"/>
      <point x="494" y="537" type="curve" smooth="yes"/>
      <point x="621" y="537"/>
      <point x="689" y="617"/>
      <point x="689" y="786" type="curve" smooth="yes"/>
      <point x="689" y="887" type="line" smooth="yes"/>
      <point x="689" y="1108"/>
      <point x="589" y="1224"/>
    </contour>
    <contour>
      <point x="856" y="-228" type="line" smooth="yes"/>
      <point x="1134" y="-228"/>
      <point x="1278" y="-135"/>
      <point x="1278" y="55" type="curve" smooth="yes"/>
      <point x="1278" y="153"/>
      <point x="1233" y="232"/>
      <point x="1117" y="270" type="curve"/>
      <point x="1117" y="293" type="line"/>
      <point x="828" y="416" type="line"/>
      <point x="606" y="416" type="line"/>
      <point x="317" y="293" type="line"/>
      <point x="317" y="270" type="line"/>
      <point x="201" y="232"/>
      <point x="156" y="153"/>
      <point x="156" y="55" type="curve" smooth="yes"/>
      <point x="156" y="-135"/>
      <point x="300" y="-228"/>
      <point x="578" y="-228" type="curve" smooth="yes"/>
    </contour>
    <contour>
      <point x="856" y="173" type="line" smooth="yes"/>
      <point x="937" y="173"/>
      <point x="980" y="149"/>
      <point x="980" y="94" type="curve" smooth="yes"/>
      <point x="980" y="39"/>
      <point x="937" y="15"/>
      <point x="856" y="15" type="curve" smooth="yes"/>
      <point x="578" y="15" type="line" smooth="yes"/>
      <point x="497" y="15"/>
      <point x="454" y="39"/>
      <point x="454" y="94" type="curve" smooth="yes"/>
      <point x="454" y="149"/>
      <point x="497" y="173"/>
      <point x="578" y="173" type="curve" smooth="yes"/>
    </contour>
    <contour>
      <point x="1117" y="677" type="line" smooth="yes"/>
      <point x="1117" y="499"/>
      <point x="1014" y="416"/>
      <point x="771" y="416" type="curve"/>
      <point x="1037" y="236" type="line"/>
      <point x="1066" y="248"/>
      <point x="1089" y="271"/>
      <point x="1117" y="278" type="curve" smooth="yes"/>
      <point x="1294" y="324"/>
      <point x="1381" y="484"/>
      <point x="1381" y="681" type="curve" smooth="yes"/>
      <point x="1381" y="883" type="line" smooth="yes"/>
      <point x="1381" y="1107"/>
      <point x="1270" y="1224"/>
      <point x="1057" y="1224" type="curve" smooth="yes"/>
      <point x="844" y="1224"/>
      <point x="744" y="1108"/>
      <point x="744" y="887" type="curve" smooth="yes"/>
      <point x="744" y="786" type="line" smooth="yes"/>
      <point x="744" y="617"/>
      <point x="812" y="537"/>
      <point x="939" y="537" type="curve" smooth="yes"/>
      <point x="1040" y="537"/>
      <point x="1098" y="598"/>
      <point x="1111" y="719" type="curve"/>
      <point x="1114" y="795" type="line"/>
      <point x="1105" y="767"/>
      <point x="1085" y="749"/>
      <point x="1057" y="749" type="curve" smooth="yes"/>
      <point x="1024" y="749"/>
      <point x="1011" y="773"/>
      <point x="1011" y="819" type="curve" smooth="yes"/>
      <point x="1011" y="889" type="line" smooth="yes"/>
      <point x="1011" y="948"/>
      <point x="1026" y="970"/>
      <point x="1059" y="970" type="curve" smooth="yes"/>
      <point x="1094" y="970"/>
      <point x="1111" y="948"/>
      <point x="1111" y="889" type="curve" smooth="yes"/>
      <point x="1111" y="778" type="line"/>
      <point x="1099" y="696" type="line"/>
      <point x="1117" y="696" type="line"/>
    </contour>
  </outline>
</glyph>
<glyph name="vowelLru.mlm" format="2">
  <advance width="1964"/>
  <unicode hex="0D0C"/>
  <outline>
    <contour>
      <point x="570" y="1224" type="curve" smooth="yes"/>
      <point x="226" y="1224"/>
      <point x="59" y="1027"/>
      <point x="59" y="648" type="curve" smooth="yes"/>
      <point x="59" y="329" type="line" smooth="yes"/>
      <point x="59" y="95"/>
      <point x="173" y="-26"/>
      <point x="397" y="-26" type="curve" smooth="yes"/>
      <point x="621" y="-26"/>
      <point x="732" y="95"/>
      <point x="732" y="329" type="curve" smooth="yes"/>
      <point x="732" y="524" type="line" smooth="yes"/>
      <point x="732" y="725"/>
      <point x="669" y="819"/>
      <point x="537" y="819" type="curve" smooth="yes"/>
      <point x="417" y="819"/>
      <point x="357" y="742"/>
      <point x="342" y="587" type="curve"/>
      <point x="339" y="506" type="line"/>
      <point x="348" y="537"/>
      <point x="366" y="556"/>
      <point x="397" y="556" type="curve" smooth="yes"/>
      <point x="432" y="556"/>
      <point x="447" y="532"/>
      <point x="447" y="480" type="curve" smooth="yes"/>
      <point x="447" y="318" type="line" smooth="yes"/>
      <point x="447" y="255"/>
      <point x="433" y="230"/>
      <point x="396" y="230" type="curve" smooth="yes"/>
      <point x="359" y="230"/>
      <point x="342" y="255"/>
      <point x="342" y="318" type="curve" smooth="yes"/>
      <point x="342" y="523" type="line"/>
      <point x="353" y="613" type="line"/>
      <point x="337" y="613" type="line"/>
      <point x="337" y="640" type="line" smooth="yes"/>
      <point x="337" y="863"/>
      <point x="416" y="959"/>
      <point x="591" y="959" type="curve" smooth="yes"/>
      <point x="757" y="959"/>
      <point x="832" y="881"/>
      <point x="832" y="712" type="curve" smooth="yes"/>
      <point x="832" y="598" type="line"/>
      <point x="973" y="598" type="line"/>
      <point x="979" y="951" type="line"/>
      <point x="942" y="1133"/>
      <point x="804" y="1224"/>
    </contour>
    <contour>
      <point x="832" y="4" type="line"/>
      <point x="1133" y="4" type="line"/>
      <point x="1133" y="753" type="line"/>
      <point x="832" y="688" type="line"/>
    </contour>
    <contour>
      <point x="1398" y="1224" type="curve" smooth="yes"/>
      <point x="1157" y="1224"/>
      <point x="1021" y="1131"/>
      <point x="986" y="951" type="curve"/>
      <point x="926" y="951" type="line"/>
      <point x="937" y="594" type="line"/>
      <point x="1133" y="594" type="line"/>
      <point x="1133" y="694" type="line" smooth="yes"/>
      <point x="1133" y="876"/>
      <point x="1211" y="959"/>
      <point x="1378" y="959" type="curve" smooth="yes"/>
      <point x="1555" y="959"/>
      <point x="1628" y="865"/>
      <point x="1628" y="650" type="curve" smooth="yes"/>
      <point x="1628" y="638" type="line"/>
      <point x="1610" y="638" type="line"/>
      <point x="1623" y="569" type="line"/>
      <point x="1623" y="318" type="line" smooth="yes"/>
      <point x="1623" y="255"/>
      <point x="1609" y="230"/>
      <point x="1570" y="230" type="curve" smooth="yes"/>
      <point x="1533" y="230"/>
      <point x="1518" y="255"/>
      <point x="1518" y="318" type="curve" smooth="yes"/>
      <point x="1518" y="495" type="line" smooth="yes"/>
      <point x="1518" y="548"/>
      <point x="1535" y="570"/>
      <point x="1575" y="570" type="curve" smooth="yes"/>
      <point x="1603" y="570"/>
      <point x="1618" y="561"/>
      <point x="1627" y="552" type="curve"/>
      <point x="1621" y="631" type="line"/>
      <point x="1606" y="765"/>
      <point x="1548" y="834"/>
      <point x="1432" y="834" type="curve" smooth="yes"/>
      <point x="1296" y="834"/>
      <point x="1233" y="734"/>
      <point x="1233" y="521" type="curve" smooth="yes"/>
      <point x="1233" y="329" type="line" smooth="yes"/>
      <point x="1233" y="95"/>
      <point x="1343" y="-26"/>
      <point x="1566" y="-26" type="curve" smooth="yes"/>
      <point x="1792" y="-26"/>
      <point x="1906" y="95"/>
      <point x="1906" y="329" type="curve" smooth="yes"/>
      <point x="1906" y="642" type="line" smooth="yes"/>
      <point x="1906" y="1027"/>
      <point x="1748" y="1224"/>
    </contour>
  </outline>
</glyph>
<glyph name="Nga.mlm" format="2">
  <advance width="1713"/>
  <unicode hex="0D19"/>
  <outline>
    <contour>
      <point x="832" y="4" type="line"/>
      <point x="1133" y="4" type="line"/>
      <point x="1133" y="782" type="line"/>
      <point x="832" y="677" type="line"/>
    </contour>
    <contour>
      <point x="570" y="1224" type="curve" smooth="yes"/>
      <point x="226" y="1224"/>
      <point x="59" y="1027"/>
      <point x="59" y="648" type="curve" smooth="yes"/>
      <point x="59" y="329" type="line" smooth="yes"/>
      <point x="59" y="95"/>
      <point x="173" y="-26"/>
      <point x="397" y="-26" type="curve" smooth="yes"/>
      <point x="621" y="-26"/>
      <point x="732" y="95"/>
      <point x="732" y="329" type="curve" smooth="yes"/>
      <point x="732" y="524" type="line" smooth="yes"/>
      <point x="732" y="725"/>
      <point x="669" y="819"/>
      <point x="537" y="819" type="curve" smooth="yes"/>
      <point x="417" y="819"/>
      <point x="357" y="742"/>
      <point x="342" y="587" type="curve"/>
      <point x="338" y="506" type="line"/>
      <point x="347" y="537"/>
      <point x="366" y="556"/>
      <point x="397" y="556" type="curve" smooth="yes"/>
      <point x="432" y="556"/>
      <point x="447" y="532"/>
      <point x="447" y="480" type="curve" smooth="yes"/>
      <point x="447" y="318" type="line" smooth="yes"/>
      <point x="447" y="255"/>
      <point x="433" y="230"/>
      <point x="396" y="230" type="curve" smooth="yes"/>
      <point x="359" y="230"/>
      <point x="342" y="255"/>
      <point x="342" y="318" type="curve" smooth="yes"/>
      <point x="342" y="523" type="line"/>
      <point x="353" y="613" type="line"/>
      <point x="337" y="613" type="line"/>
      <point x="337" y="640" type="line" smooth="yes"/>
      <point x="337" y="863"/>
      <point x="416" y="959"/>
      <point x="591" y="959" type="curve" smooth="yes"/>
      <point x="757" y="959"/>
      <point x="832" y="881"/>
      <point x="832" y="712" type="curve" smooth="yes"/>
      <point x="832" y="598" type="line"/>
      <point x="973" y="598" type="line"/>
      <point x="973" y="968" type="line"/>
      <point x="933" y="1139"/>
      <point x="798" y="1224"/>
    </contour>
    <contour>
      <point x="1299" y="1224" type="curve" smooth="yes"/>
      <point x="1121" y="1224"/>
      <point x="995" y="1152"/>
      <point x="981" y="968" type="curve"/>
      <point x="874" y="968" type="line"/>
      <point x="874" y="653" type="line"/>
      <point x="1133" y="648" type="line"/>
      <point x="1133" y="808" type="line" smooth="yes"/>
      <point x="1133" y="907"/>
      <point x="1167" y="953"/>
      <point x="1246" y="953" type="curve" smooth="yes"/>
      <point x="1321" y="953"/>
      <point x="1354" y="913"/>
      <point x="1354" y="832" type="curve" smooth="yes"/>
      <point x="1354" y="816" type="line" smooth="yes"/>
      <point x="1354" y="759"/>
      <point x="1328" y="728"/>
      <point x="1268" y="724" type="curve" smooth="yes"/>
      <point x="1224" y="721" type="line"/>
      <point x="1224" y="475" type="line"/>
      <point x="1275" y="472" type="line" smooth="yes"/>
      <point x="1338" y="468"/>
      <point x="1363" y="433"/>
      <point x="1363" y="369" type="curve" smooth="yes"/>
      <point x="1363" y="342" type="line" smooth="yes"/>
      <point x="1363" y="274"/>
      <point x="1336" y="241"/>
      <point x="1271" y="241" type="curve" smooth="yes"/>
      <point x="1248" y="241"/>
      <point x="1233" y="243"/>
      <point x="1213" y="247" type="curve"/>
      <point x="1240" y="0" type="line"/>
      <point x="1286" y="-7"/>
      <point x="1328" y="-13"/>
      <point x="1376" y="-13" type="curve" smooth="yes"/>
      <point x="1570" y="-13"/>
      <point x="1667" y="86"/>
      <point x="1667" y="280" type="curve" smooth="yes"/>
      <point x="1667" y="329" type="line" smooth="yes"/>
      <point x="1667" y="495"/>
      <point x="1600" y="581"/>
      <point x="1458" y="600" type="curve"/>
      <point x="1458" y="607" type="line"/>
      <point x="1595" y="631"/>
      <point x="1656" y="718"/>
      <point x="1656" y="856" type="curve" smooth="yes"/>
      <point x="1656" y="863" type="line" smooth="yes"/>
      <point x="1656" y="1097"/>
      <point x="1536" y="1224"/>
    </contour>
  </outline>
</glyph>
<glyph name="Ca.mlm" format="2">
  <advance width="1329"/>
  <unicode hex="0D1A"/>
  <outline>
    <contour>
      <point x="17" y="243" type="line"/>
      <point x="44" y="0" type="line"/>
      <point x="1213" y="0" type="line"/>
      <point x="1213" y="243" type="line"/>
    </contour>
    <contour>
      <point x="436" y="234" type="curve"/>
      <point x="725" y="208" type="line"/>
      <point x="810" y="300"/>
      <point x="834" y="418"/>
      <point x="834" y="541" type="curve" smooth="yes"/>
      <point x="834" y="558" type="line" smooth="yes"/>
      <point x="834" y="803"/>
      <point x="714" y="929"/>
      <point x="478" y="929" type="curve" smooth="yes"/>
      <point x="242" y="929"/>
      <point x="131" y="808"/>
      <point x="131" y="578" type="curve" smooth="yes"/>
      <point x="131" y="561" type="line" smooth="yes"/>
      <point x="131" y="482"/>
      <point x="149" y="418"/>
      <point x="166" y="375" type="curve"/>
      <point x="436" y="375" type="line"/>
      <point x="425" y="422"/>
      <point x="416" y="480"/>
      <point x="416" y="548" type="curve" smooth="yes"/>
      <point x="416" y="559" type="line" smooth="yes"/>
      <point x="416" y="631"/>
      <point x="433" y="662"/>
      <point x="477" y="662" type="curve" smooth="yes"/>
      <point x="519" y="662"/>
      <point x="537" y="630"/>
      <point x="537" y="558" type="curve" smooth="yes"/>
      <point x="537" y="539" type="line" smooth="yes"/>
      <point x="537" y="420"/>
      <point x="509" y="310"/>
    </contour>
    <contour>
      <point x="953" y="1189" type="line"/>
      <point x="953" y="0" type="line"/>
      <point x="1255" y="0" type="line"/>
      <point x="1255" y="1189" type="line"/>
    </contour>
  </outline>
</glyph>
<glyph name="Cha.mlm" format="2">
  <advance width="2087"/>
  <unicode hex="0D1B"/>
  <outline>
    <contour>
      <point x="17" y="243" type="line"/>
      <point x="44" y="0" type="line"/>
      <point x="1213" y="0" type="line"/>
      <point x="1213" y="243" type="line"/>
    </contour>
    <contour>
      <point x="436" y="234" type="curve"/>
      <point x="725" y="208" type="line"/>
      <point x="810" y="300"/>
      <point x="834" y="418"/>
      <point x="834" y="541" type="curve" smooth="yes"/>
      <point x="834" y="558" type="line" smooth="yes"/>
      <point x="834" y="803"/>
      <point x="714" y="929"/>
      <point x="478" y="929" type="curve" smooth="yes"/>
      <point x="242" y="929"/>
      <point x="131" y="808"/>
      <point x="131" y="578" type="curve" smooth="yes"/>
      <point x="131" y="561" type="line" smooth="yes"/>
      <point x="131" y="482"/>
      <point x="149" y="418"/>
      <point x="166" y="375" type="curve"/>
      <point x="436" y="375" type="line"/>
      <point x="425" y="422"/>
      <point x="416" y="480"/>
      <point x="416" y="548" type="curve" smooth="yes"/>
      <point x="416" y="559" type="line" smooth="yes"/>
      <point x="416" y="631"/>
      <point x="433" y="662"/>
      <point x="477" y="662" type="curve" smooth="yes"/>
      <point x="519" y="662"/>
      <point x="537" y="630"/>
      <point x="537" y="558" type="curve" smooth="yes"/>
      <point x="537" y="539" type="line" smooth="yes"/>
      <point x="537" y="420"/>
      <point x="509" y="310"/>
    </contour>
    <contour>
      <point x="1054" y="243" type="line"/>
      <point x="876" y="243" type="line"/>
      <point x="876" y="0" type="line"/>
      <point x="1298" y="0" type="line"/>
    </contour>
    <contour>
      <point x="937" y="451" type="line" smooth="yes"/>
      <point x="937" y="273"/>
      <point x="986" y="103"/>
      <point x="1052" y="0" type="curve"/>
      <point x="1298" y="0" type="line"/>
      <point x="1298" y="13" type="line"/>
      <point x="1259" y="118"/>
      <point x="1237" y="265"/>
      <point x="1237" y="421" type="curve" smooth="yes"/>
      <point x="1237" y="640" type="line" smooth="yes"/>
      <point x="1237" y="861"/>
      <point x="1315" y="959"/>
      <point x="1493" y="959" type="curve" smooth="yes"/>
      <point x="1659" y="959"/>
      <point x="1751" y="865"/>
      <point x="1751" y="653" type="curve" smooth="yes"/>
      <point x="1751" y="644" type="line"/>
      <point x="1732" y="644" type="line"/>
      <point x="1745" y="574" type="line"/>
      <point x="1745" y="318" type="line" smooth="yes"/>
      <point x="1745" y="255"/>
      <point x="1731" y="230"/>
      <point x="1692" y="230" type="curve" smooth="yes"/>
      <point x="1655" y="230"/>
      <point x="1640" y="255"/>
      <point x="1640" y="318" type="curve" smooth="yes"/>
      <point x="1640" y="500" type="line" smooth="yes"/>
      <point x="1640" y="553"/>
      <point x="1657" y="576"/>
      <point x="1697" y="576" type="curve" smooth="yes"/>
      <point x="1725" y="576"/>
      <point x="1740" y="567"/>
      <point x="1749" y="558" type="curve"/>
      <point x="1743" y="637" type="line"/>
      <point x="1728" y="771"/>
      <point x="1670" y="839"/>
      <point x="1554" y="839" type="curve" smooth="yes"/>
      <point x="1418" y="839"/>
      <point x="1355" y="739"/>
      <point x="1355" y="526" type="curve" smooth="yes"/>
      <point x="1355" y="329" type="line" smooth="yes"/>
      <point x="1355" y="95"/>
      <point x="1465" y="-26"/>
      <point x="1688" y="-26" type="curve" smooth="yes"/>
      <point x="1914" y="-26"/>
      <point x="2029" y="95"/>
      <point x="2029" y="329" type="curve" smooth="yes"/>
      <point x="2029" y="642" type="line" smooth="yes"/>
      <point x="2029" y="1025"/>
      <point x="1852" y="1224"/>
      <point x="1484" y="1224" type="curve" smooth="yes"/>
      <point x="1114" y="1224"/>
      <point x="937" y="1025"/>
      <point x="937" y="640" type="curve" smooth="yes"/>
    </contour>
  </outline>
</glyph>
<glyph name="Ja.mlm" format="2">
  <advance width="1542"/>
  <unicode hex="0D1C"/>
  <outline>
    <contour>
      <point x="928" y="-2" type="line"/>
      <point x="999" y="-24"/>
      <point x="1081" y="-39"/>
      <point x="1167" y="-39" type="curve" smooth="yes"/>
      <point x="1379" y="-39"/>
      <point x="1482" y="51"/>
      <point x="1482" y="226" type="curve" smooth="yes"/>
      <point x="1482" y="234" type="line" smooth="yes"/>
      <point x="1482" y="345"/>
      <point x="1434" y="424"/>
      <point x="1331" y="454" type="curve"/>
      <point x="1322" y="459"/>
      <point x="1286" y="482"/>
      <point x="1276" y="488" type="curve"/>
      <point x="1239" y="501"/>
      <point x="1199" y="508"/>
      <point x="1153" y="508" type="curve" smooth="yes"/>
      <point x="997" y="508"/>
      <point x="893" y="454"/>
      <point x="788" y="392" type="curve" smooth="yes"/>
      <point x="621" y="293" type="line" smooth="yes"/>
      <point x="559" y="256"/>
      <point x="488" y="224"/>
      <point x="420" y="224" type="curve" smooth="yes"/>
      <point x="374" y="224"/>
      <point x="352" y="241"/>
      <point x="352" y="274" type="curve"/>
      <point x="352" y="276" type="line"/>
      <point x="352" y="310"/>
      <point x="373" y="329"/>
      <point x="415" y="331" type="curve"/>
      <point x="196" y="389" type="line"/>
      <point x="196" y="373" type="line"/>
      <point x="103" y="350"/>
      <point x="60" y="286"/>
      <point x="60" y="183" type="curve" smooth="yes"/>
      <point x="60" y="180" type="line" smooth="yes"/>
      <point x="60" y="40"/>
      <point x="169" y="-39"/>
      <point x="382" y="-39" type="curve" smooth="yes"/>
      <point x="511" y="-39"/>
      <point x="624" y="-2"/>
      <point x="731" y="68" type="curve" smooth="yes"/>
      <point x="926" y="195" type="line" smooth="yes"/>
      <point x="1007" y="248"/>
      <point x="1064" y="282"/>
      <point x="1127" y="282" type="curve" smooth="yes"/>
      <point x="1167" y="282"/>
      <point x="1188" y="270"/>
      <point x="1188" y="241" type="curve"/>
      <point x="1188" y="239" type="line"/>
      <point x="1188" y="211"/>
      <point x="1165" y="201"/>
      <point x="1101" y="201" type="curve" smooth="yes"/>
      <point x="1028" y="201"/>
      <point x="953" y="219"/>
      <point x="890" y="247" type="curve"/>
    </contour>
    <contour>
      <point x="56" y="719" type="curve" smooth="yes"/>
      <point x="56" y="644" type="line" smooth="yes"/>
      <point x="56" y="495"/>
      <point x="106" y="401"/>
      <point x="238" y="368" type="curve"/>
      <point x="245" y="363"/>
      <point x="274" y="338"/>
      <point x="281" y="333" type="curve"/>
      <point x="309" y="327"/>
      <point x="338" y="326"/>
      <point x="371" y="326" type="curve" smooth="yes"/>
      <point x="575" y="326"/>
      <point x="680" y="424"/>
      <point x="680" y="616" type="curve" smooth="yes"/>
      <point x="680" y="640" type="line" smooth="yes"/>
      <point x="680" y="811"/>
      <point x="621" y="891"/>
      <point x="503" y="891" type="curve" smooth="yes"/>
      <point x="394" y="891"/>
      <point x="345" y="831"/>
      <point x="321" y="710" type="curve"/>
      <point x="317" y="631" type="line"/>
      <point x="326" y="655"/>
      <point x="345" y="670"/>
      <point x="371" y="670" type="curve" smooth="yes"/>
      <point x="400" y="670"/>
      <point x="415" y="649"/>
      <point x="415" y="609" type="curve" smooth="yes"/>
      <point x="415" y="594" type="line" smooth="yes"/>
      <point x="415" y="546"/>
      <point x="400" y="526"/>
      <point x="369" y="526" type="curve" smooth="yes"/>
      <point x="335" y="526"/>
      <point x="321" y="546"/>
      <point x="321" y="594" type="curve" smooth="yes"/>
      <point x="321" y="672" type="line"/>
      <point x="325" y="723" type="line"/>
      <point x="315" y="723" type="line"/>
      <point x="315" y="730" type="line" smooth="yes"/>
      <point x="315" y="901"/>
      <point x="384" y="979"/>
      <point x="540" y="979" type="curve" smooth="yes"/>
      <point x="685" y="979"/>
      <point x="751" y="910"/>
      <point x="757" y="765" type="curve" smooth="yes"/>
      <point x="766" y="517" type="line"/>
      <point x="1036" y="554" type="line"/>
      <point x="1046" y="843" type="line" smooth="yes"/>
      <point x="1049" y="918"/>
      <point x="1066" y="951"/>
      <point x="1112" y="951" type="curve" smooth="yes"/>
      <point x="1156" y="951"/>
      <point x="1175" y="918"/>
      <point x="1175" y="843" type="curve" smooth="yes"/>
      <point x="1175" y="686" type="line" smooth="yes"/>
      <point x="1175" y="555"/>
      <point x="1142" y="507"/>
      <point x="1074" y="500" type="curve"/>
      <point x="1343" y="433" type="line"/>
      <point x="1343" y="458" type="line"/>
      <point x="1450" y="483"/>
      <point x="1475" y="581"/>
      <point x="1475" y="707" type="curve" smooth="yes"/>
      <point x="1475" y="856" type="line" smooth="yes"/>
      <point x="1475" y="1103"/>
      <point x="1371" y="1224"/>
      <point x="1167" y="1224" type="curve" smooth="yes"/>
      <point x="1011" y="1224"/>
      <point x="921" y="1148"/>
      <point x="899" y="984" type="curve"/>
      <point x="891" y="984" type="line"/>
      <point x="856" y="1139"/>
      <point x="722" y="1224"/>
      <point x="516" y="1224" type="curve" smooth="yes"/>
      <point x="209" y="1224"/>
      <point x="56" y="1054"/>
    </contour>
  </outline>
</glyph>
<glyph name="Jha.mlm" format="2">
  <advance width="2554"/>
  <unicode hex="0D1D"/>
  <outline>
    <contour>
      <point x="2030" y="443" type="line"/>
      <point x="2030" y="1183" type="line"/>
      <point x="1729" y="1183" type="line"/>
      <point x="1729" y="443" type="line"/>
    </contour>
    <contour>
      <point x="1585" y="368" type="curve" smooth="yes"/>
      <point x="1585" y="502"/>
      <point x="1598" y="626"/>
      <point x="1598" y="760" type="curve" smooth="yes"/>
      <point x="1598" y="1073"/>
      <point x="1453" y="1222"/>
      <point x="1131" y="1222" type="curve" smooth="yes"/>
      <point x="947" y="1222"/>
      <point x="825" y="1154"/>
      <point x="779" y="1093" type="curve"/>
      <point x="672" y="1018" type="line"/>
      <point x="525" y="929"/>
      <point x="479" y="811"/>
      <point x="479" y="626" type="curve" smooth="yes"/>
      <point x="479" y="328" type="line" smooth="yes"/>
      <point x="479" y="96"/>
      <point x="597" y="-26"/>
      <point x="831" y="-26" type="curve" smooth="yes"/>
      <point x="1065" y="-26"/>
      <point x="1183" y="96"/>
      <point x="1183" y="328" type="curve" smooth="yes"/>
      <point x="1183" y="626" type="line" smooth="yes"/>
      <point x="1183" y="811"/>
      <point x="1137" y="929"/>
      <point x="990" y="1018" type="curve"/>
      <point x="883" y="1093" type="line"/>
      <point x="837" y="1154"/>
      <point x="715" y="1222"/>
      <point x="531" y="1222" type="curve" smooth="yes"/>
      <point x="206" y="1222"/>
      <point x="62" y="1045"/>
      <point x="62" y="668" type="curve" smooth="yes"/>
      <point x="62" y="427" type="line" smooth="yes"/>
      <point x="62" y="258"/>
      <point x="81" y="98"/>
      <point x="127" y="0" type="curve"/>
      <point x="427" y="0" type="line"/>
      <point x="388" y="99"/>
      <point x="362" y="250"/>
      <point x="362" y="421" type="curve" smooth="yes"/>
      <point x="362" y="672" type="line" smooth="yes"/>
      <point x="362" y="889"/>
      <point x="428" y="983"/>
      <point x="579" y="983" type="curve" smooth="yes"/>
      <point x="626" y="983"/>
      <point x="663" y="972"/>
      <point x="700" y="951" type="curve"/>
      <point x="705" y="949"/>
      <point x="796" y="913"/>
      <point x="800" y="911" type="curve"/>
      <point x="877" y="857"/>
      <point x="890" y="765"/>
      <point x="890" y="635" type="curve" smooth="yes"/>
      <point x="890" y="324" type="line" smooth="yes"/>
      <point x="890" y="259"/>
      <point x="872" y="232"/>
      <point x="831" y="232" type="curve" smooth="yes"/>
      <point x="790" y="232"/>
      <point x="772" y="259"/>
      <point x="772" y="324" type="curve" smooth="yes"/>
      <point x="772" y="635" type="line" smooth="yes"/>
      <point x="772" y="765"/>
      <point x="785" y="857"/>
      <point x="862" y="911" type="curve"/>
      <point x="866" y="913"/>
      <point x="957" y="949"/>
      <point x="962" y="951" type="curve"/>
      <point x="999" y="972"/>
      <point x="1036" y="983"/>
      <point x="1083" y="983" type="curve" smooth="yes"/>
      <point x="1232" y="983"/>
      <point x="1296" y="911"/>
      <point x="1296" y="745" type="curve" smooth="yes"/>
      <point x="1296" y="615"/>
      <point x="1283" y="491"/>
      <point x="1283" y="361" type="curve" smooth="yes"/>
      <point x="1283" y="103"/>
      <point x="1390" y="-26"/>
      <point x="1603" y="-26" type="curve" smooth="yes"/>
      <point x="1760" y="-26"/>
      <point x="1859" y="55"/>
      <point x="1874" y="217" type="curve"/>
      <point x="1981" y="217" type="line"/>
      <point x="1995" y="521" type="line"/>
      <point x="1729" y="550" type="line"/>
      <point x="1729" y="383" type="line" smooth="yes"/>
      <point x="1729" y="298"/>
      <point x="1707" y="261"/>
      <point x="1657" y="261" type="curve" smooth="yes"/>
      <point x="1609" y="261"/>
      <point x="1585" y="291"/>
    </contour>
    <contour>
      <point x="1883" y="217" type="line"/>
      <point x="1898" y="53"/>
      <point x="1997" y="-26"/>
      <point x="2166" y="-26" type="curve" smooth="yes"/>
      <point x="2389" y="-26"/>
      <point x="2490" y="108"/>
      <point x="2490" y="390" type="curve" smooth="yes"/>
      <point x="2490" y="760" type="line" smooth="yes"/>
      <point x="2490" y="929"/>
      <point x="2467" y="1077"/>
      <point x="2425" y="1187" type="curve"/>
      <point x="2131" y="1187" type="line"/>
      <point x="2166" y="1088"/>
      <point x="2188" y="936"/>
      <point x="2188" y="765" type="curve" smooth="yes"/>
      <point x="2188" y="388" type="line" smooth="yes"/>
      <point x="2188" y="298"/>
      <point x="2166" y="261"/>
      <point x="2109" y="261" type="curve" smooth="yes"/>
      <point x="2052" y="261"/>
      <point x="2030" y="298"/>
      <point x="2030" y="388" type="curve" smooth="yes"/>
      <point x="2030" y="546" type="line"/>
      <point x="1868" y="546" type="line"/>
    </contour>
  </outline>
</glyph>
<glyph name="Tta.mlm" format="2">
  <advance width="793"/>
  <unicode hex="0D1F"/>
  <outline>
    <contour>
      <point x="383" y="-29" type="curve" smooth="yes"/>
      <point x="627" y="-29"/>
      <point x="749" y="88"/>
      <point x="749" y="333" type="curve" smooth="yes"/>
      <point x="749" y="348" type="line" smooth="yes"/>
      <point x="749" y="532"/>
      <point x="674" y="620"/>
      <point x="506" y="694" type="curve" smooth="yes"/>
      <point x="370" y="754"/>
      <point x="344" y="795"/>
      <point x="344" y="854" type="curve"/>
      <point x="344" y="856" type="line"/>
      <point x="344" y="920"/>
      <point x="377" y="955"/>
      <point x="449" y="955" type="curve" smooth="yes"/>
      <point x="535" y="955"/>
      <point x="612" y="929"/>
      <point x="705" y="868" type="curve"/>
      <point x="694" y="1133" type="line"/>
      <point x="635" y="1179"/>
      <point x="531" y="1224"/>
      <point x="394" y="1224" type="curve" smooth="yes"/>
      <point x="164" y="1224"/>
      <point x="44" y="1094"/>
      <point x="44" y="857" type="curve" smooth="yes"/>
      <point x="44" y="850" type="line" smooth="yes"/>
      <point x="44" y="668"/>
      <point x="118" y="574"/>
      <point x="285" y="500" type="curve" smooth="yes"/>
      <point x="423" y="439"/>
      <point x="449" y="399"/>
      <point x="449" y="340" type="curve"/>
      <point x="449" y="339" type="line"/>
      <point x="449" y="271"/>
      <point x="408" y="239"/>
      <point x="329" y="239" type="curve" smooth="yes"/>
      <point x="230" y="239"/>
      <point x="146" y="278"/>
      <point x="50" y="346" type="curve"/>
      <point x="59" y="77" type="line"/>
      <point x="122" y="20"/>
      <point x="238" y="-29"/>
    </contour>
  </outline>
</glyph>
<glyph name="Ddha.mlm" format="2">
  <advance width="2073"/>
  <unicode hex="0D22"/>
  <outline>
    <contour>
      <point x="1246" y="506" type="line"/>
      <point x="1246" y="1183" type="line"/>
      <point x="944" y="1183" type="line"/>
      <point x="944" y="443" type="line"/>
    </contour>
    <contour>
      <point x="819" y="-26" type="curve" smooth="yes"/>
      <point x="981" y="-26"/>
      <point x="1082" y="55"/>
      <point x="1101" y="217" type="curve"/>
      <point x="1200" y="217" type="line"/>
      <point x="1211" y="521" type="line"/>
      <point x="944" y="550" type="line"/>
      <point x="944" y="383" type="line" smooth="yes"/>
      <point x="944" y="298"/>
      <point x="922" y="261"/>
      <point x="872" y="261" type="curve" smooth="yes"/>
      <point x="824" y="261"/>
      <point x="800" y="291"/>
      <point x="800" y="368" type="curve" smooth="yes"/>
      <point x="800" y="530"/>
      <point x="819" y="662"/>
      <point x="819" y="826" type="curve" smooth="yes"/>
      <point x="819" y="1093"/>
      <point x="695" y="1224"/>
      <point x="443" y="1224" type="curve" smooth="yes"/>
      <point x="189" y="1224"/>
      <point x="64" y="1093"/>
      <point x="64" y="826" type="curve" smooth="yes"/>
      <point x="64" y="427" type="line" smooth="yes"/>
      <point x="64" y="258"/>
      <point x="81" y="98"/>
      <point x="125" y="0" type="curve"/>
      <point x="423" y="0" type="line"/>
      <point x="388" y="99"/>
      <point x="366" y="250"/>
      <point x="366" y="421" type="curve" smooth="yes"/>
      <point x="366" y="830" type="line" smooth="yes"/>
      <point x="366" y="915"/>
      <point x="389" y="948"/>
      <point x="442" y="948" type="curve" smooth="yes"/>
      <point x="495" y="948"/>
      <point x="517" y="915"/>
      <point x="517" y="830" type="curve" smooth="yes"/>
      <point x="517" y="664"/>
      <point x="499" y="528"/>
      <point x="499" y="361" type="curve" smooth="yes"/>
      <point x="499" y="103"/>
      <point x="606" y="-26"/>
    </contour>
    <contour>
      <point x="1507" y="-26" type="curve" smooth="yes"/>
      <point x="1855" y="-26"/>
      <point x="2015" y="164"/>
      <point x="2015" y="543" type="curve" smooth="yes"/>
      <point x="2015" y="868" type="line" smooth="yes"/>
      <point x="2015" y="1102"/>
      <point x="1900" y="1224"/>
      <point x="1676" y="1224" type="curve" smooth="yes"/>
      <point x="1452" y="1224"/>
      <point x="1341" y="1102"/>
      <point x="1341" y="868" type="curve" smooth="yes"/>
      <point x="1341" y="673" type="line" smooth="yes"/>
      <point x="1341" y="478"/>
      <point x="1404" y="388"/>
      <point x="1536" y="388" type="curve" smooth="yes"/>
      <point x="1656" y="388"/>
      <point x="1716" y="462"/>
      <point x="1731" y="611" type="curve"/>
      <point x="1735" y="692" type="line"/>
      <point x="1726" y="661"/>
      <point x="1707" y="642"/>
      <point x="1676" y="642" type="curve" smooth="yes"/>
      <point x="1641" y="642"/>
      <point x="1627" y="666"/>
      <point x="1627" y="718" type="curve" smooth="yes"/>
      <point x="1627" y="880" type="line" smooth="yes"/>
      <point x="1627" y="943"/>
      <point x="1641" y="968"/>
      <point x="1678" y="968" type="curve" smooth="yes"/>
      <point x="1715" y="968"/>
      <point x="1731" y="943"/>
      <point x="1731" y="880" type="curve" smooth="yes"/>
      <point x="1731" y="675" type="line"/>
      <point x="1720" y="585" type="line"/>
      <point x="1737" y="585" type="line"/>
      <point x="1737" y="548" type="line" smooth="yes"/>
      <point x="1737" y="336"/>
      <point x="1665" y="247"/>
      <point x="1490" y="247" type="curve" smooth="yes"/>
      <point x="1321" y="247"/>
      <point x="1246" y="322"/>
      <point x="1246" y="486" type="curve" smooth="yes"/>
      <point x="1246" y="600" type="line"/>
      <point x="1100" y="600" type="line"/>
      <point x="1109" y="217" type="line"/>
      <point x="1152" y="55"/>
      <point x="1281" y="-26"/>
    </contour>
  </outline>
</glyph>
<glyph name="Nna.mlm" format="2">
  <advance width="2128"/>
  <unicode hex="0D23"/>
  <outline>
    <contour>
      <point x="832" y="4" type="line"/>
      <point x="1133" y="4" type="line"/>
      <point x="1133" y="782" type="line"/>
      <point x="832" y="677" type="line"/>
    </contour>
    <contour>
      <point x="570" y="1224" type="curve" smooth="yes"/>
      <point x="226" y="1224"/>
      <point x="59" y="1027"/>
      <point x="59" y="648" type="curve" smooth="yes"/>
      <point x="59" y="329" type="line" smooth="yes"/>
      <point x="59" y="95"/>
      <point x="173" y="-26"/>
      <point x="397" y="-26" type="curve" smooth="yes"/>
      <point x="621" y="-26"/>
      <point x="732" y="95"/>
      <point x="732" y="329" type="curve" smooth="yes"/>
      <point x="732" y="524" type="line" smooth="yes"/>
      <point x="732" y="725"/>
      <point x="669" y="819"/>
      <point x="537" y="819" type="curve" smooth="yes"/>
      <point x="417" y="819"/>
      <point x="357" y="742"/>
      <point x="342" y="587" type="curve"/>
      <point x="338" y="506" type="line"/>
      <point x="347" y="537"/>
      <point x="366" y="556"/>
      <point x="397" y="556" type="curve" smooth="yes"/>
      <point x="432" y="556"/>
      <point x="447" y="532"/>
      <point x="447" y="480" type="curve" smooth="yes"/>
      <point x="447" y="318" type="line" smooth="yes"/>
      <point x="447" y="255"/>
      <point x="433" y="230"/>
      <point x="396" y="230" type="curve" smooth="yes"/>
      <point x="359" y="230"/>
      <point x="342" y="255"/>
      <point x="342" y="318" type="curve" smooth="yes"/>
      <point x="342" y="523" type="line"/>
      <point x="353" y="613" type="line"/>
      <point x="337" y="613" type="line"/>
      <point x="337" y="640" type="line" smooth="yes"/>
      <point x="337" y="863"/>
      <point x="416" y="959"/>
      <point x="591" y="959" type="curve" smooth="yes"/>
      <point x="757" y="959"/>
      <point x="832" y="881"/>
      <point x="832" y="712" type="curve" smooth="yes"/>
      <point x="832" y="598" type="line"/>
      <point x="973" y="598" type="line"/>
      <point x="973" y="968" type="line"/>
      <point x="933" y="1139"/>
      <point x="798" y="1224"/>
    </contour>
    <contour>
      <point x="1295" y="754" type="line"/>
      <point x="1295" y="4" type="line"/>
      <point x="1597" y="4" type="line"/>
      <point x="1597" y="754" type="line"/>
    </contour>
    <contour>
      <point x="1446" y="983" type="line"/>
      <point x="1433" y="1143"/>
      <point x="1348" y="1224"/>
      <point x="1216" y="1224" type="curve" smooth="yes"/>
      <point x="1084" y="1224"/>
      <point x="998" y="1150"/>
      <point x="981" y="968" type="curve"/>
      <point x="874" y="968" type="line"/>
      <point x="874" y="653" type="line"/>
      <point x="1133" y="648" type="line"/>
      <point x="1133" y="808" type="line" smooth="yes"/>
      <point x="1133" y="894"/>
      <point x="1157" y="935"/>
      <point x="1214" y="935" type="curve" smooth="yes"/>
      <point x="1271" y="935"/>
      <point x="1295" y="894"/>
      <point x="1295" y="808" type="curve" smooth="yes"/>
      <point x="1295" y="648" type="line"/>
      <point x="1446" y="648" type="line"/>
    </contour>
    <contour>
      <point x="1597" y="640" type="line"/>
      <point x="1597" y="806" type="line" smooth="yes"/>
      <point x="1597" y="896"/>
      <point x="1621" y="937"/>
      <point x="1680" y="937" type="curve" smooth="yes"/>
      <point x="1739" y="937"/>
      <point x="1763" y="896"/>
      <point x="1763" y="806" type="curve" smooth="yes"/>
      <point x="1763" y="421" type="line" smooth="yes"/>
      <point x="1763" y="250"/>
      <point x="1741" y="99"/>
      <point x="1706" y="0" type="curve"/>
      <point x="2004" y="0" type="line"/>
      <point x="2048" y="98"/>
      <point x="2064" y="258"/>
      <point x="2064" y="427" type="curve" smooth="yes"/>
      <point x="2064" y="804" type="line" smooth="yes"/>
      <point x="2064" y="1084"/>
      <point x="1963" y="1224"/>
      <point x="1739" y="1224" type="curve" smooth="yes"/>
      <point x="1566" y="1224"/>
      <point x="1480" y="1143"/>
      <point x="1454" y="983" type="curve"/>
      <point x="1345" y="983" type="line"/>
      <point x="1330" y="670" type="line"/>
    </contour>
  </outline>
</glyph>
<glyph name="Ta.mlm" format="2">
  <advance width="1662"/>
  <unicode hex="0D24"/>
  <outline>
    <contour>
      <point x="831" y="-26" type="curve" smooth="yes"/>
      <point x="1065" y="-26"/>
      <point x="1183" y="96"/>
      <point x="1183" y="328" type="curve" smooth="yes"/>
      <point x="1183" y="626" type="line" smooth="yes"/>
      <point x="1183" y="811"/>
      <point x="1137" y="929"/>
      <point x="990" y="1018" type="curve"/>
      <point x="883" y="1093" type="line"/>
      <point x="837" y="1154"/>
      <point x="715" y="1222"/>
      <point x="531" y="1222" type="curve" smooth="yes"/>
      <point x="206" y="1222"/>
      <point x="62" y="1045"/>
      <point x="62" y="668" type="curve" smooth="yes"/>
      <point x="62" y="427" type="line" smooth="yes"/>
      <point x="62" y="258"/>
      <point x="81" y="98"/>
      <point x="127" y="0" type="curve"/>
      <point x="427" y="0" type="line"/>
      <point x="388" y="99"/>
      <point x="362" y="250"/>
      <point x="362" y="421" type="curve" smooth="yes"/>
      <point x="362" y="672" type="line" smooth="yes"/>
      <point x="362" y="889"/>
      <point x="428" y="983"/>
      <point x="579" y="983" type="curve" smooth="yes"/>
      <point x="626" y="983"/>
      <point x="663" y="972"/>
      <point x="700" y="951" type="curve"/>
      <point x="800" y="911" type="line"/>
      <point x="877" y="857"/>
      <point x="890" y="765"/>
      <point x="890" y="635" type="curve" smooth="yes"/>
      <point x="890" y="324" type="line" smooth="yes"/>
      <point x="890" y="259"/>
      <point x="872" y="232"/>
      <point x="831" y="232" type="curve" smooth="yes"/>
      <point x="790" y="232"/>
      <point x="772" y="259"/>
      <point x="772" y="324" type="curve" smooth="yes"/>
      <point x="772" y="635" type="line" smooth="yes"/>
      <point x="772" y="765"/>
      <point x="785" y="857"/>
      <point x="862" y="911" type="curve"/>
      <point x="962" y="951" type="line"/>
      <point x="999" y="972"/>
      <point x="1036" y="983"/>
      <point x="1083" y="983" type="curve" smooth="yes"/>
      <point x="1234" y="983"/>
      <point x="1300" y="889"/>
      <point x="1300" y="672" type="curve" smooth="yes"/>
      <point x="1300" y="421" type="line" smooth="yes"/>
      <point x="1300" y="250"/>
      <point x="1274" y="99"/>
      <point x="1235" y="0" type="curve"/>
      <point x="1535" y="0" type="line"/>
      <point x="1581" y="98"/>
      <point x="1600" y="258"/>
      <point x="1600" y="427" type="curve" smooth="yes"/>
      <point x="1600" y="668" type="line" smooth="yes"/>
      <point x="1600" y="1045"/>
      <point x="1456" y="1222"/>
      <point x="1131" y="1222" type="curve" smooth="yes"/>
      <point x="947" y="1222"/>
      <point x="825" y="1154"/>
      <point x="779" y="1093" type="curve"/>
      <point x="672" y="1018" type="line"/>
      <point x="525" y="929"/>
      <point x="479" y="811"/>
      <point x="479" y="626" type="curve" smooth="yes"/>
      <point x="479" y="328" type="line" smooth="yes"/>
      <point x="479" y="96"/>
      <point x="597" y="-26"/>
    </contour>
  </outline>
</glyph>
<glyph name="Nnna.mlm" format="2">
  <advance width="1664"/>
  <unicode hex="0D29"/>
  <outline>
    <contour>
      <point x="832" y="4" type="line"/>
      <point x="1133" y="4" type="line"/>
      <point x="1133" y="782" type="line"/>
      <point x="832" y="677" type="line"/>
    </contour>
    <contour>
      <point x="570" y="1224" type="curve" smooth="yes"/>
      <point x="226" y="1224"/>
      <point x="59" y="1027"/>
      <point x="59" y="648" type="curve" smooth="yes"/>
      <point x="59" y="329" type="line" smooth="yes"/>
      <point x="59" y="95"/>
      <point x="173" y="-26"/>
      <point x="397" y="-26" type="curve" smooth="yes"/>
      <point x="621" y="-26"/>
      <point x="732" y="95"/>
      <point x="732" y="329" type="curve" smooth="yes"/>
      <point x="732" y="524" type="line" smooth="yes"/>
      <point x="732" y="725"/>
      <point x="669" y="819"/>
      <point x="537" y="819" type="curve" smooth="yes"/>
      <point x="417" y="819"/>
      <point x="357" y="742"/>
      <point x="342" y="587" type="curve"/>
      <point x="338" y="506" type="line"/>
      <point x="347" y="537"/>
      <point x="366" y="556"/>
      <point x="397" y="556" type="curve" smooth="yes"/>
      <point x="432" y="556"/>
      <point x="447" y="532"/>
      <point x="447" y="480" type="curve" smooth="yes"/>
      <point x="447" y="318" type="line" smooth="yes"/>
      <point x="447" y="255"/>
      <point x="433" y="230"/>
      <point x="396" y="230" type="curve" smooth="yes"/>
      <point x="359" y="230"/>
      <point x="342" y="255"/>
      <point x="342" y="318" type="curve" smooth="yes"/>
      <point x="342" y="523" type="line"/>
      <point x="353" y="613" type="line"/>
      <point x="337" y="613" type="line"/>
      <point x="337" y="640" type="line" smooth="yes"/>
      <point x="337" y="863"/>
      <point x="416" y="959"/>
      <point x="591" y="959" type="curve" smooth="yes"/>
      <point x="757" y="959"/>
      <point x="832" y="881"/>
      <point x="832" y="712" type="curve" smooth="yes"/>
      <point x="832" y="598" type="line"/>
      <point x="973" y="598" type="line"/>
      <point x="973" y="968" type="line"/>
      <point x="933" y="1139"/>
      <point x="798" y="1224"/>
    </contour>
    <contour>
      <point x="1216" y="937" type="curve" smooth="yes"/>
      <point x="1275" y="937"/>
      <point x="1298" y="896"/>
      <point x="1298" y="806" type="curve" smooth="yes"/>
      <point x="1298" y="421" type="line" smooth="yes"/>
      <point x="1298" y="250"/>
      <point x="1276" y="99"/>
      <point x="1241" y="0" type="curve"/>
      <point x="1539" y="0" type="line"/>
      <point x="1583" y="98"/>
      <point x="1600" y="258"/>
      <point x="1600" y="427" type="curve" smooth="yes"/>
      <point x="1600" y="804" type="line" smooth="yes"/>
      <point x="1600" y="1084"/>
      <point x="1498" y="1224"/>
      <point x="1274" y="1224" type="curve" smooth="yes"/>
      <point x="1107" y="1224"/>
      <point x="1000" y="1152"/>
      <point x="980" y="968" type="curve"/>
      <point x="873" y="968" type="line"/>
      <point x="873" y="653" type="line"/>
      <point x="1133" y="648" type="line"/>
      <point x="1133" y="808" type="line" smooth="yes"/>
      <point x="1133" y="896"/>
      <point x="1157" y="937"/>
    </contour>
  </outline>
</glyph>
<glyph name="Bha.mlm" format="2">
  <advance width="1011"/>
  <unicode hex="0D2D"/>
  <outline>
    <contour>
      <point x="959" y="867" type="curve" smooth="yes"/>
      <point x="959" y="1096"/>
      <point x="801" y="1224"/>
      <point x="529" y="1224" type="curve" smooth="yes"/>
      <point x="220" y="1224"/>
      <point x="65" y="1065.08"/>
      <point x="65" y="762" type="curve" smooth="yes"/>
      <point x="65" y="399" type="line" smooth="yes"/>
      <point x="65" y="241"/>
      <point x="74" y="103"/>
      <point x="98" y="0" type="curve"/>
      <point x="395" y="0" type="line"/>
      <point x="378" y="94"/>
      <point x="367" y="234"/>
      <point x="367" y="394" type="curve" smooth="yes"/>
      <point x="367" y="764" type="line" smooth="yes"/>
      <point x="367" y="893.018"/>
      <point x="418.875" y="953"/>
      <point x="533" y="953" type="curve" smooth="yes"/>
      <point x="619.832" y="953"/>
      <point x="658" y="921"/>
      <point x="658" y="880" type="curve" smooth="yes"/>
      <point x="658" y="857"/>
      <point x="649" y="843"/>
      <point x="621" y="839" type="curve" smooth="yes"/>
      <point x="606" y="837" type="line" smooth="yes"/>
      <point x="500" y="824"/>
      <point x="441" y="745"/>
      <point x="441" y="604" type="curve" smooth="yes"/>
      <point x="441" y="600" type="line" smooth="yes"/>
      <point x="441" y="456"/>
      <point x="494" y="380"/>
      <point x="603" y="368" type="curve" smooth="yes"/>
      <point x="619" y="366" type="line" smooth="yes"/>
      <point x="660" y="361"/>
      <point x="672" y="340"/>
      <point x="672" y="305" type="curve"/>
      <point x="672" y="304" type="line"/>
      <point x="672" y="255"/>
      <point x="636" y="237"/>
      <point x="566" y="237" type="curve" smooth="yes"/>
      <point x="532" y="237"/>
      <point x="502" y="241"/>
      <point x="473" y="249" type="curve"/>
      <point x="501" y="-1" type="line"/>
      <point x="554" y="-11"/>
      <point x="607" y="-17"/>
      <point x="661" y="-17" type="curve" smooth="yes"/>
      <point x="867" y="-17"/>
      <point x="974" y="86"/>
      <point x="974" y="285" type="curve" smooth="yes"/>
      <point x="974" y="298" type="line" smooth="yes"/>
      <point x="974" y="450"/>
      <point x="917" y="533"/>
      <point x="809" y="541" type="curve" smooth="yes"/>
      <point x="783" y="543" type="line" smooth="yes"/>
      <point x="743" y="546"/>
      <point x="720" y="565"/>
      <point x="720" y="600" type="curve"/>
      <point x="720" y="602" type="line"/>
      <point x="720" y="637"/>
      <point x="741.017" y="657.771"/>
      <point x="783" y="661" type="curve" smooth="yes"/>
      <point x="809" y="663" type="line" smooth="yes"/>
      <point x="906.96" y="670.535"/>
      <point x="959" y="738"/>
    </contour>
  </outline>
</glyph>
<glyph name="Ma.mlm" format="2">
  <advance width="1183"/>
  <unicode hex="0D2E"/>
  <outline>
    <contour>
      <point x="221" y="232" type="line"/>
      <point x="90" y="0" type="line"/>
      <point x="1073" y="0" type="line"/>
      <point x="1075" y="232" type="line"/>
    </contour>
    <contour>
      <point x="591" y="968" type="curve" smooth="yes"/>
      <point x="758" y="968"/>
      <point x="834" y="874"/>
      <point x="834" y="677" type="curve" smooth="yes"/>
      <point x="834" y="0" type="line"/>
      <point x="1113" y="0" type="line"/>
      <point x="1113" y="666" type="line" smooth="yes"/>
      <point x="1113" y="1034"/>
      <point x="944" y="1224"/>
      <point x="591" y="1224" type="curve" smooth="yes"/>
      <point x="238" y="1224"/>
      <point x="70" y="1034"/>
      <point x="70" y="668" type="curve" smooth="yes"/>
      <point x="70" y="0" type="line"/>
      <point x="346" y="0" type="line"/>
      <point x="346" y="677" type="line" smooth="yes"/>
      <point x="346" y="879"/>
      <point x="416" y="968"/>
    </contour>
    <contour>
      <point x="743" y="632" type="line" smooth="yes"/>
      <point x="743" y="827.897"/>
      <point x="668.485" y="953"/>
      <point x="477" y="953" type="curve" smooth="yes"/>
      <point x="434.903" y="953"/>
      <point x="376.304" y="940.857"/>
      <point x="332" y="919" type="curve"/>
      <point x="332" y="752" type="line"/>
      <point x="353.182" y="764"/>
      <point x="371.348" y="767"/>
      <point x="389" y="767" type="curve" smooth="yes"/>
      <point x="448.615" y="767"/>
      <point x="466" y="713.986"/>
      <point x="466" y="634" type="curve" smooth="yes"/>
      <point x="466" y="620" type="line" smooth="yes"/>
      <point x="466" y="470.985"/>
      <point x="431.502" y="341.483"/>
      <point x="366" y="230" type="curve"/>
      <point x="638" y="204" type="line"/>
      <point x="705.927" y="310.383"/>
      <point x="743" y="448.134"/>
      <point x="743" y="618" type="curve" smooth="yes"/>
    </contour>
  </outline>
</glyph>
<glyph name="Ya.mlm" format="2">
  <advance width="1673"/>
  <unicode hex="0D2F"/>
  <outline>
    <contour>
      <point x="806" y="280" type="curve"/>
      <point x="705" y="239" type="line"/>
      <point x="676" y="219"/>
      <point x="644" y="208"/>
      <point x="605" y="208" type="curve" smooth="yes"/>
      <point x="436" y="208"/>
      <point x="362" y="298"/>
      <point x="362" y="510" type="curve" smooth="yes"/>
      <point x="362" y="857" type="line" smooth="yes"/>
      <point x="362" y="931"/>
      <point x="375" y="966"/>
      <point x="421" y="966" type="curve" smooth="yes"/>
      <point x="467" y="966"/>
      <point x="480" y="925"/>
      <point x="482" y="859" type="curve" smooth="yes"/>
      <point x="495" y="530" type="line" smooth="yes"/>
      <point x="502" y="363"/>
      <point x="535" y="254"/>
      <point x="666" y="173" type="curve"/>
      <point x="767" y="98" type="line"/>
      <point x="813" y="37"/>
      <point x="933" y="-31"/>
      <point x="1119" y="-31" type="curve" smooth="yes"/>
      <point x="1458" y="-31"/>
      <point x="1608" y="143"/>
      <point x="1608" y="513" type="curve" smooth="yes"/>
      <point x="1608" y="760" type="line" smooth="yes"/>
      <point x="1608" y="929"/>
      <point x="1586" y="1077"/>
      <point x="1544" y="1187" type="curve"/>
      <point x="1253" y="1187" type="line"/>
      <point x="1288" y="1088"/>
      <point x="1310" y="936"/>
      <point x="1310" y="765" type="curve" smooth="yes"/>
      <point x="1310" y="510" type="line" smooth="yes"/>
      <point x="1310" y="298"/>
      <point x="1237" y="208"/>
      <point x="1071" y="208" type="curve" smooth="yes"/>
      <point x="1031" y="208"/>
      <point x="997" y="219"/>
      <point x="966" y="239" type="curve"/>
      <point x="868" y="280" type="line"/>
      <point x="796" y="326"/>
      <point x="790" y="409"/>
      <point x="784" y="521" type="curve" smooth="yes"/>
      <point x="769" y="852" type="line" smooth="yes"/>
      <point x="767" y="883"/>
      <point x="768" y="914"/>
      <point x="764" y="942" type="curve"/>
      <point x="718" y="999" type="line"/>
      <point x="702" y="1137"/>
      <point x="597" y="1224"/>
      <point x="416" y="1224" type="curve" smooth="yes"/>
      <point x="188" y="1224"/>
      <point x="64" y="1091"/>
      <point x="64" y="852" type="curve" smooth="yes"/>
      <point x="64" y="513" type="line" smooth="yes"/>
      <point x="64" y="143"/>
      <point x="216" y="-31"/>
      <point x="558" y="-31" type="curve" smooth="yes"/>
      <point x="742" y="-31"/>
      <point x="861" y="37"/>
      <point x="907" y="98" type="curve"/>
      <point x="1005" y="173" type="line"/>
      <point x="1117" y="243"/>
      <point x="1163" y="333"/>
      <point x="1174" y="462" type="curve" smooth="yes"/>
      <point x="1185" y="600"/>
      <point x="1194" y="754"/>
      <point x="1194" y="892" type="curve" smooth="yes"/>
      <point x="1194" y="1118"/>
      <point x="1109" y="1224"/>
      <point x="942" y="1224" type="curve" smooth="yes"/>
      <point x="808" y="1224"/>
      <point x="738" y="1153"/>
      <point x="720" y="1038" type="curve"/>
      <point x="672" y="1038" type="line"/>
      <point x="765" y="911" type="line"/>
      <point x="774" y="942"/>
      <point x="798" y="966"/>
      <point x="837" y="966" type="curve" smooth="yes"/>
      <point x="881" y="966"/>
      <point x="903" y="940"/>
      <point x="903" y="874" type="curve" smooth="yes"/>
      <point x="903" y="745"/>
      <point x="894" y="589"/>
      <point x="885" y="451" type="curve" smooth="yes"/>
      <point x="879" y="374"/>
      <point x="863" y="315"/>
    </contour>
  </outline>
</glyph>
<glyph name="Zha.mlm" format="2">
  <advance width="1144"/>
  <unicode hex="0D34"/>
  <outline>
    <contour>
      <point x="708" y="767" type="curve" smooth="yes"/>
      <point x="708" y="870" type="line" smooth="yes"/>
      <point x="708" y="936"/>
      <point x="726" y="966"/>
      <point x="763" y="966" type="curve" smooth="yes"/>
      <point x="800" y="966"/>
      <point x="818" y="936"/>
      <point x="818" y="870" type="curve" smooth="yes"/>
      <point x="818" y="767" type="line" smooth="yes"/>
      <point x="818" y="609"/>
      <point x="753" y="539"/>
      <point x="584" y="539" type="curve" smooth="yes"/>
      <point x="406" y="539"/>
      <point x="340" y="610"/>
      <point x="340" y="776" type="curve" smooth="yes"/>
      <point x="340" y="848" type="line" smooth="yes"/>
      <point x="340" y="986"/>
      <point x="360" y="1106"/>
      <point x="395" y="1187" type="curve"/>
      <point x="111" y="1187" type="line"/>
      <point x="65" y="1099"/>
      <point x="47" y="979"/>
      <point x="47" y="845" type="curve" smooth="yes"/>
      <point x="47" y="778" type="line" smooth="yes"/>
      <point x="47" y="465"/>
      <point x="231" y="305"/>
      <point x="582" y="305" type="curve" smooth="yes"/>
      <point x="922" y="305"/>
      <point x="1101" y="464"/>
      <point x="1101" y="769" type="curve" smooth="yes"/>
      <point x="1101" y="868" type="line" smooth="yes"/>
      <point x="1101" y="1100"/>
      <point x="987" y="1224"/>
      <point x="766" y="1224" type="curve" smooth="yes"/>
      <point x="543" y="1224"/>
      <point x="432" y="1100"/>
      <point x="432" y="868" type="curve" smooth="yes"/>
      <point x="432" y="754" type="line" smooth="yes"/>
      <point x="432" y="669"/>
      <point x="463" y="568"/>
      <point x="487" y="467" type="curve"/>
      <point x="507" y="392" type="line"/>
      <point x="513" y="357"/>
      <point x="516" y="324"/>
      <point x="516" y="291" type="curve" smooth="yes"/>
      <point x="516" y="225"/>
      <point x="479" y="191"/>
      <point x="391" y="191" type="curve" smooth="yes"/>
      <point x="351" y="191"/>
      <point x="310" y="199"/>
      <point x="268" y="217" type="curve"/>
      <point x="316" y="-22" type="line"/>
      <point x="371" y="-39"/>
      <point x="424" y="-46"/>
      <point x="483" y="-46" type="curve" smooth="yes"/>
      <point x="691" y="-46"/>
      <point x="792" y="46"/>
      <point x="792" y="228" type="curve" smooth="yes"/>
      <point x="792" y="285"/>
      <point x="785" y="342"/>
      <point x="772" y="399" type="curve" smooth="yes"/>
      <point x="746" y="506" type="line" smooth="yes"/>
      <point x="726" y="592"/>
      <point x="708" y="679"/>
    </contour>
  </outline>
</glyph>
<glyph name="Sha.mlm" format="2">
  <advance width="1622"/>
  <unicode hex="0D36"/>
  <outline>
    <contour>
      <point x="1040" y="959" type="curve" smooth="yes"/>
      <point x="1213" y="959"/>
      <point x="1286" y="865"/>
      <point x="1286" y="650" type="curve" smooth="yes"/>
      <point x="1286" y="638" type="line"/>
      <point x="1268" y="638" type="line"/>
      <point x="1281" y="569" type="line"/>
      <point x="1281" y="318" type="line" smooth="yes"/>
      <point x="1281" y="255"/>
      <point x="1266" y="230"/>
      <point x="1227" y="230" type="curve" smooth="yes"/>
      <point x="1190" y="230"/>
      <point x="1176" y="255"/>
      <point x="1176" y="318" type="curve" smooth="yes"/>
      <point x="1176" y="495" type="line" smooth="yes"/>
      <point x="1176" y="548"/>
      <point x="1193" y="570"/>
      <point x="1233" y="570" type="curve" smooth="yes"/>
      <point x="1261" y="570"/>
      <point x="1275" y="561"/>
      <point x="1284" y="552" type="curve"/>
      <point x="1279" y="631" type="line"/>
      <point x="1264" y="765"/>
      <point x="1205" y="834"/>
      <point x="1089" y="834" type="curve" smooth="yes"/>
      <point x="953" y="834"/>
      <point x="891" y="734"/>
      <point x="891" y="521" type="curve" smooth="yes"/>
      <point x="891" y="329" type="line" smooth="yes"/>
      <point x="891" y="95"/>
      <point x="1001" y="-26"/>
      <point x="1224" y="-26" type="curve" smooth="yes"/>
      <point x="1450" y="-26"/>
      <point x="1564" y="95"/>
      <point x="1564" y="329" type="curve" smooth="yes"/>
      <point x="1564" y="661" type="line" smooth="yes"/>
      <point x="1564" y="1033"/>
      <point x="1385" y="1224"/>
      <point x="1021" y="1224" type="curve" smooth="yes"/>
      <point x="660" y="1224"/>
      <point x="491" y="1042"/>
      <point x="491" y="670" type="curve" smooth="yes"/>
      <point x="491" y="576"/>
      <point x="502" y="457"/>
      <point x="502" y="361" type="curve" smooth="yes"/>
      <point x="502" y="280"/>
      <point x="484" y="248"/>
      <point x="434" y="248" type="curve" smooth="yes"/>
      <point x="384" y="248"/>
      <point x="366" y="280"/>
      <point x="366" y="361" type="curve" smooth="yes"/>
      <point x="366" y="765" type="line" smooth="yes"/>
      <point x="366" y="936"/>
      <point x="388" y="1088"/>
      <point x="423" y="1187" type="curve"/>
      <point x="129" y="1187" type="line"/>
      <point x="81" y="1077"/>
      <point x="64" y="929"/>
      <point x="64" y="760" type="curve" smooth="yes"/>
      <point x="64" y="364" type="line" smooth="yes"/>
      <point x="64" y="101"/>
      <point x="186" y="-28"/>
      <point x="434" y="-28" type="curve" smooth="yes"/>
      <point x="682" y="-28"/>
      <point x="804" y="101"/>
      <point x="804" y="364" type="curve" smooth="yes"/>
      <point x="804" y="458"/>
      <point x="793" y="576"/>
      <point x="793" y="664" type="curve" smooth="yes"/>
      <point x="793" y="874"/>
      <point x="867" y="959"/>
    </contour>
  </outline>
</glyph>
<glyph name="Sa.mlm" format="2">
  <advance width="1790"/>
  <unicode hex="0D38"/>
  <outline>
    <contour>
      <point x="64" y="804" type="curve" smooth="yes"/>
      <point x="64" y="427" type="line" smooth="yes"/>
      <point x="64" y="258"/>
      <point x="81" y="98"/>
      <point x="125" y="0" type="curve"/>
      <point x="423" y="0" type="line"/>
      <point x="388" y="99"/>
      <point x="366" y="250"/>
      <point x="366" y="421" type="curve" smooth="yes"/>
      <point x="366" y="806" type="line" smooth="yes"/>
      <point x="366" y="896"/>
      <point x="390" y="937"/>
      <point x="449" y="937" type="curve" smooth="yes"/>
      <point x="508" y="937"/>
      <point x="532" y="896"/>
      <point x="532" y="806" type="curve" smooth="yes"/>
      <point x="532" y="640" type="line"/>
      <point x="677" y="627" type="line"/>
      <point x="679" y="983" type="line"/>
      <point x="653" y="1141"/>
      <point x="569" y="1224"/>
      <point x="392" y="1224" type="curve" smooth="yes"/>
      <point x="168" y="1224"/>
      <point x="64" y="1084"/>
    </contour>
    <contour>
      <point x="532" y="732" type="line"/>
      <point x="532" y="4" type="line"/>
      <point x="834" y="4" type="line"/>
      <point x="834" y="732" type="line"/>
    </contour>
    <contour>
      <point x="914" y="937" type="curve" smooth="yes"/>
      <point x="973" y="937"/>
      <point x="994" y="899"/>
      <point x="994" y="811" type="curve" smooth="yes"/>
      <point x="994" y="656"/>
      <point x="975" y="526"/>
      <point x="975" y="370" type="curve" smooth="yes"/>
      <point x="975" y="103"/>
      <point x="1099" y="-28"/>
      <point x="1351" y="-28" type="curve" smooth="yes"/>
      <point x="1603" y="-28"/>
      <point x="1726" y="103"/>
      <point x="1726" y="370" type="curve" smooth="yes"/>
      <point x="1726" y="760" type="line" smooth="yes"/>
      <point x="1726" y="929"/>
      <point x="1710" y="1077"/>
      <point x="1662" y="1187" type="curve"/>
      <point x="1367" y="1187" type="line"/>
      <point x="1402" y="1088"/>
      <point x="1424" y="936"/>
      <point x="1424" y="765" type="curve" smooth="yes"/>
      <point x="1424" y="366" type="line" smooth="yes"/>
      <point x="1424" y="281"/>
      <point x="1405" y="248"/>
      <point x="1352" y="248" type="curve" smooth="yes"/>
      <point x="1299" y="248"/>
      <point x="1277" y="281"/>
      <point x="1277" y="366" type="curve" smooth="yes"/>
      <point x="1277" y="522"/>
      <point x="1295" y="653"/>
      <point x="1295" y="811" type="curve" smooth="yes"/>
      <point x="1295" y="1089"/>
      <point x="1193" y="1224"/>
      <point x="970" y="1224" type="curve" smooth="yes"/>
      <point x="799" y="1224"/>
      <point x="704" y="1143"/>
      <point x="687" y="983" type="curve"/>
      <point x="581" y="983" type="line"/>
      <point x="567" y="670" type="line"/>
      <point x="834" y="640" type="line"/>
      <point x="834" y="811" type="line" smooth="yes"/>
      <point x="834" y="897"/>
      <point x="855" y="937"/>
    </contour>
  </outline>
</glyph>
<glyph name="Ttta.mlm" format="2">
  <advance width="898"/>
  <unicode hex="0D3A"/>
  <outline>
    <contour>
      <point x="74" y="1189" type="line"/>
      <point x="74" y="0" type="line"/>
      <point x="376" y="0" type="line"/>
      <point x="376" y="1189" type="line"/>
    </contour>
    <contour>
      <point x="861" y="247" type="line"/>
      <point x="210" y="247" type="line"/>
      <point x="210" y="0" type="line"/>
      <point x="834" y="0" type="line"/>
    </contour>
    <contour>
      <point x="592" y="136" type="line"/>
      <point x="328" y="136" type="line"/>
      <point x="328" y="-239" type="line"/>
      <point x="592" y="-239" type="line"/>
    </contour>
  </outline>
</glyph>
<glyph name="Praslesham.mlm" format="2">
  <advance width="541"/>
  <unicode hex="0D3D"/>
  <outline>
    <contour>
      <point x="383" y="15" type="curve" smooth="yes"/>
      <point x="447" y="1082" type="line" smooth="yes"/>
      <point x="456" y="1220"/>
      <point x="493" y="1288"/>
      <point x="583" y="1288" type="curve" smooth="yes"/>
      <point x="605" y="1288"/>
      <point x="629" y="1284"/>
      <point x="651" y="1275" type="curve"/>
      <point x="622" y="1516" type="line"/>
      <point x="583" y="1531"/>
      <point x="541" y="1540"/>
      <point x="486" y="1540" type="curve" smooth="yes"/>
      <point x="263" y="1540"/>
      <point x="173" y="1376"/>
      <point x="156" y="1087" type="curve" smooth="yes"/>
      <point x="92" y="22" type="line" smooth="yes"/>
      <point x="83" y="-116"/>
      <point x="40" y="-184"/>
      <point x="-61" y="-184" type="curve" smooth="yes"/>
      <point x="-85" y="-184"/>
      <point x="-114" y="-180"/>
      <point x="-138" y="-171" type="curve"/>
      <point x="-109" y="-412" type="line"/>
      <point x="-69" y="-427"/>
      <point x="-24" y="-436"/>
      <point x="33" y="-436" type="curve" smooth="yes"/>
      <point x="269" y="-436"/>
      <point x="366" y="-272"/>
    </contour>
  </outline>
</glyph>
<glyph name="matraA.mlm" format="2">
  <advance width="613"/>
  <unicode hex="0D3E"/>
  <outline>
    <contour>
      <point x="110" y="247" type="curve" smooth="yes"/>
      <point x="75" y="247"/>
      <point x="45" y="252"/>
      <point x="17" y="259" type="curve"/>
      <point x="46" y="-4" type="line"/>
      <point x="92" y="-19"/>
      <point x="140" y="-28"/>
      <point x="204" y="-28" type="curve" smooth="yes"/>
      <point x="447" y="-28"/>
      <point x="552" y="116"/>
      <point x="552" y="418" type="curve" smooth="yes"/>
      <point x="552" y="762" type="line" smooth="yes"/>
      <point x="552" y="1073"/>
      <point x="449" y="1220"/>
      <point x="208" y="1220" type="curve" smooth="yes"/>
      <point x="144" y="1220"/>
      <point x="96" y="1211"/>
      <point x="50" y="1196" type="curve"/>
      <point x="20" y="933" type="line"/>
      <point x="49" y="942"/>
      <point x="81" y="946"/>
      <point x="110" y="946" type="curve" smooth="yes"/>
      <point x="206" y="946"/>
      <point x="250" y="879"/>
      <point x="250" y="747" type="curve" smooth="yes"/>
      <point x="250" y="438" type="line" smooth="yes"/>
      <point x="250" y="309"/>
      <point x="204" y="247"/>
    </contour>
  </outline>
</glyph>
<glyph name="matraI.mlm" format="2">
  <advance width="466"/>
  <unicode hex="0D3F"/>
  <outline>
    <contour>
      <point x="392" y="0" type="line"/>
      <point x="392" y="1126" type="line" smooth="yes"/>
      <point x="392" y="1470"/>
      <point x="239" y="1636"/>
      <point x="-68" y="1636" type="curve" smooth="yes"/>
      <point x="-191" y="1636"/>
      <point x="-292" y="1612"/>
      <point x="-386" y="1570" type="curve"/>
      <point x="-418" y="1310" type="line"/>
      <point x="-331" y="1355"/>
      <point x="-226" y="1373"/>
      <point x="-147" y="1373" type="curve" smooth="yes"/>
      <point x="21" y="1373"/>
      <point x="90" y="1303"/>
      <point x="90" y="1137" type="curve" smooth="yes"/>
      <point x="90" y="0" type="line"/>
    </contour>
  </outline>
</glyph>
<glyph name="matraIi.mlm" format="2">
  <advance width="468"/>
  <unicode hex="0D40"/>
  <outline>
    <contour>
      <point x="-313" y="1343" type="line" smooth="yes"/>
      <point x="-313" y="1170"/>
      <point x="-230" y="1080"/>
      <point x="-88" y="1080" type="curve" smooth="yes"/>
      <point x="6" y="1080"/>
      <point x="61" y="1130"/>
      <point x="85" y="1216" type="curve"/>
      <point x="107" y="1216" type="line"/>
      <point x="109" y="1340" type="line"/>
      <point x="94" y="1307"/>
      <point x="72" y="1286"/>
      <point x="33" y="1286" type="curve" smooth="yes"/>
      <point x="-15" y="1286"/>
      <point x="-35" y="1312"/>
      <point x="-35" y="1367" type="curve" smooth="yes"/>
      <point x="-35" y="1386" type="line" smooth="yes"/>
      <point x="-35" y="1441"/>
      <point x="-13" y="1470"/>
      <point x="35" y="1470" type="curve" smooth="yes"/>
      <point x="83" y="1470"/>
      <point x="105" y="1441"/>
      <point x="105" y="1386" type="curve" smooth="yes"/>
      <point x="105" y="1316" type="line"/>
      <point x="92" y="1273" type="line"/>
      <point x="92" y="0" type="line"/>
      <point x="394" y="0" type="line"/>
      <point x="394" y="1367" type="line" smooth="yes"/>
      <point x="394" y="1584"/>
      <point x="261" y="1708"/>
      <point x="31" y="1708" type="curve" smooth="yes"/>
      <point x="-190" y="1708"/>
      <point x="-313" y="1591"/>
      <point x="-313" y="1374" type="curve" smooth="yes"/>
    </contour>
  </outline>
</glyph>
<glyph name="matraRu.mlm" format="2">
  <advance width="493"/>
  <unicode hex="0D43"/>
  <outline>
    <contour>
      <point x="137" y="-515" type="curve" smooth="yes"/>
      <point x="352" y="-515"/>
      <point x="475" y="-411"/>
      <point x="475" y="-177" type="curve" smooth="yes"/>
      <point x="475" y="-151" type="line" smooth="yes"/>
      <point x="475" y="164"/>
      <point x="378" y="393"/>
      <point x="378" y="758" type="curve" smooth="yes"/>
      <point x="378" y="925"/>
      <point x="386" y="1038"/>
      <point x="404" y="1189" type="curve"/>
      <point x="115" y="1189" type="line"/>
      <point x="92" y="1040"/>
      <point x="80" y="925"/>
      <point x="80" y="758" type="curve" smooth="yes"/>
      <point x="80" y="346"/>
      <point x="185" y="143"/>
      <point x="206" y="-129" type="curve"/>
      <point x="199" y="-155" type="line"/>
      <point x="199" y="-172"/>
      <point x="199" y="-182"/>
      <point x="199" y="-195" type="curve" smooth="yes"/>
      <point x="199" y="-221" type="line" smooth="yes"/>
      <point x="199" y="-274"/>
      <point x="180" y="-299"/>
      <point x="141" y="-299" type="curve" smooth="yes"/>
      <point x="100" y="-299"/>
      <point x="81" y="-274"/>
      <point x="81" y="-227" type="curve" smooth="yes"/>
      <point x="81" y="-223" type="line" smooth="yes"/>
      <point x="81" y="-175"/>
      <point x="98" y="-149"/>
      <point x="138" y="-149" type="curve" smooth="yes"/>
      <point x="171" y="-149"/>
      <point x="192" y="-160"/>
      <point x="203" y="-171" type="curve"/>
      <point x="227" y="-75" type="line"/>
      <point x="194" y="-75" type="line"/>
      <point x="172" y="1"/>
      <point x="131" y="48"/>
      <point x="26" y="48" type="curve" smooth="yes"/>
      <point x="-99" y="48"/>
      <point x="-185" y="-39"/>
      <point x="-185" y="-204" type="curve" smooth="yes"/>
      <point x="-185" y="-221" type="line" smooth="yes"/>
      <point x="-185" y="-409"/>
      <point x="-74" y="-515"/>
    </contour>
  </outline>
</glyph>
<glyph name="matraRru.mlm" format="2">
  <advance width="526"/>
  <unicode hex="0D44"/>
  <outline>
    <contour>
      <point x="316" y="-109" type="line"/>
      <point x="316" y="-34"/>
      <point x="301" y="33"/>
      <point x="226" y="33" type="curve" smooth="yes"/>
      <point x="162" y="33"/>
      <point x="128" y="-5"/>
      <point x="115" y="-83" type="curve"/>
      <point x="112" y="-83" type="line"/>
      <point x="95" y="-5"/>
      <point x="36" y="33"/>
      <point x="-67" y="33" type="curve" smooth="yes"/>
      <point x="-225" y="33"/>
      <point x="-310" y="-51"/>
      <point x="-310" y="-199" type="curve" smooth="yes"/>
      <point x="-310" y="-212" type="line" smooth="yes"/>
      <point x="-310" y="-392"/>
      <point x="-170" y="-489"/>
      <point x="93" y="-489" type="curve" smooth="yes"/>
      <point x="391" y="-489"/>
      <point x="561" y="-374"/>
      <point x="561" y="-132" type="curve" smooth="yes"/>
      <point x="561" y="-112" type="line" smooth="yes"/>
      <point x="561" y="207"/>
      <point x="379" y="373"/>
      <point x="379" y="776" type="curve" smooth="yes"/>
      <point x="379" y="936"/>
      <point x="388" y="1044"/>
      <point x="410" y="1189" type="curve"/>
      <point x="121" y="1189" type="line"/>
      <point x="93" y="1047"/>
      <point x="81" y="936"/>
      <point x="81" y="776" type="curve" smooth="yes"/>
      <point x="81" y="367"/>
      <point x="222" y="192"/>
      <point x="290" y="15" type="curve"/>
      <point x="275" y="7" type="line"/>
      <point x="287" y="-127" type="line"/>
      <point x="289" y="-140"/>
      <point x="288" y="-151"/>
      <point x="288" y="-169" type="curve" smooth="yes"/>
      <point x="288" y="-177" type="line" smooth="yes"/>
      <point x="288" y="-259"/>
      <point x="231" y="-302"/>
      <point x="97" y="-302" type="curve" smooth="yes"/>
      <point x="-19" y="-302"/>
      <point x="-72" y="-267"/>
      <point x="-72" y="-202" type="curve" smooth="yes"/>
      <point x="-72" y="-197" type="line" smooth="yes"/>
      <point x="-72" y="-164"/>
      <point x="-57" y="-149"/>
      <point x="-28" y="-149" type="curve" smooth="yes"/>
      <point x="0" y="-149"/>
      <point x="10" y="-164"/>
      <point x="14" y="-193" type="curve" smooth="yes"/>
      <point x="20" y="-234" type="line"/>
      <point x="204" y="-234" type="line"/>
      <point x="209" y="-193" type="line" smooth="yes"/>
      <point x="213" y="-162"/>
      <point x="223" y="-145"/>
      <point x="252" y="-145" type="curve" smooth="yes"/>
      <point x="278" y="-145"/>
      <point x="290" y="-158"/>
      <point x="294" y="-184" type="curve"/>
    </contour>
  </outline>
</glyph>
<glyph name="matraE.mlm" format="2">
  <advance width="782"/>
  <unicode hex="0D47"/>
  <outline>
    <contour>
      <point x="339" y="779" type="line"/>
      <point x="355" y="779" type="line"/>
      <point x="342" y="880" type="line"/>
      <point x="342" y="928" type="line" smooth="yes"/>
      <point x="342" y="981"/>
      <point x="358" y="1003"/>
      <point x="397" y="1003" type="curve" smooth="yes"/>
      <point x="436" y="1003"/>
      <point x="453" y="981"/>
      <point x="453" y="928" type="curve" smooth="yes"/>
      <point x="453" y="922" type="line" smooth="yes"/>
      <point x="453" y="874"/>
      <point x="438" y="850"/>
      <point x="401" y="850" type="curve" smooth="yes"/>
      <point x="368" y="850"/>
      <point x="348" y="867"/>
      <point x="339" y="896" type="curve"/>
      <point x="342" y="804" type="line"/>
      <point x="349" y="701"/>
      <point x="423" y="646"/>
      <point x="524" y="646" type="curve" smooth="yes"/>
      <point x="660" y="646"/>
      <point x="736" y="731"/>
      <point x="736" y="900" type="curve" smooth="yes"/>
      <point x="736" y="917" type="line" smooth="yes"/>
      <point x="736" y="1125"/>
      <point x="625" y="1237"/>
      <point x="401" y="1237" type="curve" smooth="yes"/>
      <point x="171" y="1237"/>
      <point x="61" y="1117"/>
      <point x="61" y="898" type="curve" smooth="yes"/>
      <point x="61" y="306" type="line" smooth="yes"/>
      <point x="61" y="87"/>
      <point x="171" y="-33"/>
      <point x="401" y="-33" type="curve" smooth="yes"/>
      <point x="625" y="-33"/>
      <point x="736" y="79"/>
      <point x="736" y="287" type="curve" smooth="yes"/>
      <point x="736" y="313" type="line" smooth="yes"/>
      <point x="736" y="490"/>
      <point x="660" y="578"/>
      <point x="526" y="578" type="curve" smooth="yes"/>
      <point x="417" y="578"/>
      <point x="353" y="516"/>
      <point x="342" y="398" type="curve"/>
      <point x="339" y="308" type="line"/>
      <point x="348" y="337"/>
      <point x="368" y="354"/>
      <point x="401" y="354" type="curve" smooth="yes"/>
      <point x="438" y="354"/>
      <point x="453" y="330"/>
      <point x="453" y="282" type="curve" smooth="yes"/>
      <point x="453" y="276" type="line" smooth="yes"/>
      <point x="453" y="223"/>
      <point x="436" y="201"/>
      <point x="397" y="201" type="curve" smooth="yes"/>
      <point x="358" y="201"/>
      <point x="342" y="223"/>
      <point x="342" y="276" type="curve" smooth="yes"/>
      <point x="342" y="324" type="line"/>
      <point x="355" y="424" type="line"/>
      <point x="339" y="424" type="line"/>
    </contour>
  </outline>
</glyph>
<glyph name="Virama.mlm" format="2">
  <unicode hex="0D4D"/>
  <outline>
    <contour>
      <point x="-236" y="1496" type="curve" smooth="yes"/>
      <point x="-319" y="1496"/>
      <point x="-337" y="1556"/>
      <point x="-337" y="1608" type="curve" smooth="yes"/>
      <point x="-337" y="1656" type="line"/>
      <point x="-585" y="1656" type="line"/>
      <point x="-585" y="1608" type="line" smooth="yes"/>
      <point x="-585" y="1426"/>
      <point x="-504" y="1273"/>
      <point x="-237" y="1273" type="curve" smooth="yes"/>
      <point x="33" y="1273"/>
      <point x="114" y="1426"/>
      <point x="114" y="1608" type="curve" smooth="yes"/>
      <point x="114" y="1656" type="line"/>
      <point x="-134" y="1656" type="line"/>
      <point x="-134" y="1608" type="line" smooth="yes"/>
      <point x="-134" y="1556"/>
      <point x="-153" y="1496"/>
    </contour>
  </outline>
</glyph>
<glyph name="dotreph.mlm" format="2">
  <unicode hex="0D4E"/>
  <outline>
    <contour>
      <point x="-846" y="1478" type="line" smooth="yes"/>
      <point x="-846" y="1364"/>
      <point x="-788" y="1301"/>
      <point x="-681" y="1301" type="curve" smooth="yes"/>
      <point x="-574" y="1301"/>
      <point x="-515" y="1364"/>
      <point x="-515" y="1478" type="curve" smooth="yes"/>
      <point x="-515" y="1492" type="line" smooth="yes"/>
      <point x="-515" y="1606"/>
      <point x="-574" y="1669"/>
      <point x="-681" y="1669" type="curve" smooth="yes"/>
      <point x="-788" y="1669"/>
      <point x="-846" y="1606"/>
      <point x="-846" y="1492" type="curve" smooth="yes"/>
    </contour>
  </outline>
</glyph>
<glyph name="parasign.mlm" format="2">
  <advance width="2096"/>
  <unicode hex="0D4F"/>
  <outline>
    <contour>
      <point x="364" y="355" type="curve" smooth="yes"/>
      <point x="364" y="517" type="line" smooth="yes"/>
      <point x="364" y="799"/>
      <point x="407" y="1007"/>
      <point x="534" y="1189" type="curve"/>
      <point x="228" y="1189" type="line"/>
      <point x="103" y="1014"/>
      <point x="62" y="798"/>
      <point x="62" y="515" type="curve" smooth="yes"/>
      <point x="62" y="355" type="line" smooth="yes"/>
      <point x="62" y="-208"/>
      <point x="374" y="-482"/>
      <point x="1051" y="-482" type="curve" smooth="yes"/>
      <point x="1723" y="-482"/>
      <point x="2032" y="-213"/>
      <point x="2032" y="337" type="curve" smooth="yes"/>
      <point x="2032" y="804" type="line" smooth="yes"/>
      <point x="2032" y="1082"/>
      <point x="1928" y="1224"/>
      <point x="1704" y="1224" type="curve" smooth="yes"/>
      <point x="1538" y="1224"/>
      <point x="1431" y="1152"/>
      <point x="1411" y="968" type="curve"/>
      <point x="1305" y="968" type="line"/>
      <point x="1305" y="653" type="line"/>
      <point x="1564" y="648" type="line"/>
      <point x="1564" y="808" type="line" smooth="yes"/>
      <point x="1564" y="896"/>
      <point x="1588" y="937"/>
      <point x="1647" y="937" type="curve" smooth="yes"/>
      <point x="1706" y="937"/>
      <point x="1730" y="896"/>
      <point x="1730" y="806" type="curve" smooth="yes"/>
      <point x="1730" y="337" type="line" smooth="yes"/>
      <point x="1730" y="-51"/>
      <point x="1553" y="-226"/>
      <point x="1051" y="-226" type="curve" smooth="yes"/>
      <point x="543" y="-226"/>
      <point x="364" y="-46"/>
    </contour>
    <contour>
      <point x="1263" y="4" type="line"/>
      <point x="1564" y="4" type="line"/>
      <point x="1564" y="782" type="line"/>
      <point x="1263" y="677" type="line"/>
    </contour>
    <contour>
      <point x="1001" y="1224" type="curve" smooth="yes"/>
      <point x="657" y="1224"/>
      <point x="490" y="1027"/>
      <point x="490" y="648" type="curve" smooth="yes"/>
      <point x="490" y="329" type="line" smooth="yes"/>
      <point x="490" y="95"/>
      <point x="604" y="-26"/>
      <point x="828" y="-26" type="curve" smooth="yes"/>
      <point x="1052" y="-26"/>
      <point x="1163" y="95"/>
      <point x="1163" y="329" type="curve" smooth="yes"/>
      <point x="1163" y="524" type="line" smooth="yes"/>
      <point x="1163" y="725"/>
      <point x="1100" y="819"/>
      <point x="968" y="819" type="curve" smooth="yes"/>
      <point x="848" y="819"/>
      <point x="788" y="742"/>
      <point x="773" y="587" type="curve"/>
      <point x="769" y="506" type="line"/>
      <point x="778" y="537"/>
      <point x="797" y="556"/>
      <point x="828" y="556" type="curve" smooth="yes"/>
      <point x="863" y="556"/>
      <point x="878" y="532"/>
      <point x="878" y="480" type="curve" smooth="yes"/>
      <point x="878" y="318" type="line" smooth="yes"/>
      <point x="878" y="255"/>
      <point x="864" y="230"/>
      <point x="827" y="230" type="curve" smooth="yes"/>
      <point x="790" y="230"/>
      <point x="773" y="255"/>
      <point x="773" y="318" type="curve" smooth="yes"/>
      <point x="773" y="523" type="line"/>
      <point x="784" y="613" type="line"/>
      <point x="768" y="613" type="line"/>
      <point x="768" y="640" type="line" smooth="yes"/>
      <point x="768" y="863"/>
      <point x="847" y="959"/>
      <point x="1022" y="959" type="curve" smooth="yes"/>
      <point x="1188" y="959"/>
      <point x="1263" y="881"/>
      <point x="1263" y="712" type="curve" smooth="yes"/>
      <point x="1263" y="598" type="line"/>
      <point x="1404" y="598" type="line"/>
      <point x="1404" y="968" type="line"/>
      <point x="1364" y="1139"/>
      <point x="1229" y="1224"/>
    </contour>
  </outline>
</glyph>
<glyph name="onefortieth.mlm" format="2">
  <advance width="1888"/>
  <unicode hex="0D59"/>
  <outline>
    <contour>
      <point x="616" y="959" type="curve" smooth="yes"/>
      <point x="785" y="959"/>
      <point x="866" y="874"/>
      <point x="866" y="664" type="curve" smooth="yes"/>
      <point x="866" y="318" type="line" smooth="yes"/>
      <point x="866" y="255"/>
      <point x="850" y="230"/>
      <point x="813" y="230" type="curve" smooth="yes"/>
      <point x="776" y="230"/>
      <point x="762" y="255"/>
      <point x="762" y="318" type="curve" smooth="yes"/>
      <point x="762" y="453" type="line" smooth="yes"/>
      <point x="762" y="512"/>
      <point x="782" y="537"/>
      <point x="830" y="537" type="curve" smooth="yes"/>
      <point x="1050" y="537" type="line"/>
      <point x="1078" y="776" type="line"/>
      <point x="782" y="776" type="line" smooth="yes"/>
      <point x="574" y="776"/>
      <point x="476" y="674"/>
      <point x="476" y="451" type="curve" smooth="yes"/>
      <point x="476" y="329" type="line" smooth="yes"/>
      <point x="476" y="95"/>
      <point x="587" y="-26"/>
      <point x="811" y="-26" type="curve" smooth="yes"/>
      <point x="1035" y="-26"/>
      <point x="1150" y="95"/>
      <point x="1150" y="329" type="curve" smooth="yes"/>
      <point x="1150" y="648" type="line" smooth="yes"/>
      <point x="1150" y="1027"/>
      <point x="969" y="1224"/>
      <point x="607" y="1224" type="curve" smooth="yes"/>
      <point x="237" y="1224"/>
      <point x="62" y="1025"/>
      <point x="62" y="640" type="curve" smooth="yes"/>
      <point x="62" y="427" type="line" smooth="yes"/>
      <point x="62" y="258"/>
      <point x="80" y="98"/>
      <point x="126" y="0" type="curve"/>
      <point x="427" y="0" type="line"/>
      <point x="388" y="99"/>
      <point x="362" y="250"/>
      <point x="362" y="421" type="curve" smooth="yes"/>
      <point x="362" y="640" type="line" smooth="yes"/>
      <point x="362" y="861"/>
      <point x="439" y="959"/>
    </contour>
    <contour>
      <point x="1483" y="753" type="line"/>
      <point x="1483" y="900" type="line" smooth="yes"/>
      <point x="1483" y="952"/>
      <point x="1498" y="972"/>
      <point x="1531" y="972" type="curve" smooth="yes"/>
      <point x="1564" y="972"/>
      <point x="1579" y="952"/>
      <point x="1579" y="900" type="curve" smooth="yes"/>
      <point x="1579" y="843" type="line" smooth="yes"/>
      <point x="1579" y="795"/>
      <point x="1558" y="775"/>
      <point x="1514" y="775" type="curve" smooth="yes"/>
      <point x="1074" y="775" type="line"/>
      <point x="1095" y="537" type="line"/>
      <point x="1523" y="537" type="line" smooth="yes"/>
      <point x="1747" y="537"/>
      <point x="1851" y="635"/>
      <point x="1851" y="845" type="curve" smooth="yes"/>
      <point x="1851" y="880" type="line" smooth="yes"/>
      <point x="1851" y="1101"/>
      <point x="1746" y="1216"/>
      <point x="1533" y="1216" type="curve" smooth="yes"/>
      <point x="1327" y="1216"/>
      <point x="1222" y="1107"/>
      <point x="1222" y="903" type="curve" smooth="yes"/>
      <point x="1222" y="756" type="line"/>
    </contour>
  </outline>
</glyph>
<glyph name="threeeightieths.mlm" format="2">
  <advance width="1645"/>
  <unicode hex="0D5A"/>
  <outline>
    <contour>
      <point x="449" y="937" type="curve" smooth="yes"/>
      <point x="508" y="937"/>
      <point x="532" y="896"/>
      <point x="532" y="808" type="curve" smooth="yes"/>
      <point x="532" y="640" type="line"/>
      <point x="675" y="640" type="line"/>
      <point x="680" y="1001" type="line"/>
      <point x="652" y="1161"/>
      <point x="542" y="1224"/>
      <point x="392" y="1224" type="curve" smooth="yes"/>
      <point x="168" y="1224"/>
      <point x="64" y="1084"/>
      <point x="64" y="804" type="curve" smooth="yes"/>
      <point x="64" y="427" type="line" smooth="yes"/>
      <point x="64" y="258"/>
      <point x="81" y="98"/>
      <point x="125" y="0" type="curve"/>
      <point x="423" y="0" type="line"/>
      <point x="388" y="99"/>
      <point x="366" y="250"/>
      <point x="366" y="421" type="curve" smooth="yes"/>
      <point x="366" y="806" type="line" smooth="yes"/>
      <point x="366" y="896"/>
      <point x="390" y="937"/>
    </contour>
    <contour>
      <point x="668" y="1001" type="line"/>
      <point x="532" y="668" type="line"/>
      <point x="532" y="0" type="line"/>
      <point x="808" y="0" type="line"/>
      <point x="808" y="677" type="line" smooth="yes"/>
      <point x="808" y="879"/>
      <point x="877" y="968"/>
      <point x="1052" y="968" type="curve" smooth="yes"/>
      <point x="1219" y="968"/>
      <point x="1295" y="874"/>
      <point x="1295" y="677" type="curve" smooth="yes"/>
      <point x="1295" y="0" type="line"/>
      <point x="1575" y="0" type="line"/>
      <point x="1575" y="666" type="line" smooth="yes"/>
      <point x="1575" y="1034"/>
      <point x="1412" y="1224"/>
      <point x="1071" y="1224" type="curve" smooth="yes"/>
      <point x="854" y="1224"/>
      <point x="735" y="1146"/>
      <point x="688" y="1001" type="curve"/>
    </contour>
    <contour>
      <point x="683" y="232" type="line"/>
      <point x="552" y="0" type="line"/>
      <point x="1535" y="0" type="line"/>
      <point x="1536" y="232" type="line"/>
    </contour>
    <contour>
      <point x="1205.35" y="632" type="line" smooth="yes"/>
      <point x="1205.35" y="827.897"/>
      <point x="1130.84" y="953"/>
      <point x="939.351" y="953" type="curve" smooth="yes"/>
      <point x="897.255" y="953"/>
      <point x="838.655" y="940.857"/>
      <point x="794.351" y="919" type="curve"/>
      <point x="794.351" y="752" type="line"/>
      <point x="815.533" y="764"/>
      <point x="833.7" y="767"/>
      <point x="851.351" y="767" type="curve" smooth="yes"/>
      <point x="910.966" y="767"/>
      <point x="928.351" y="713.986"/>
      <point x="928.351" y="634" type="curve" smooth="yes"/>
      <point x="928.351" y="620" type="line" smooth="yes"/>
      <point x="928.351" y="470.985"/>
      <point x="893.853" y="341.483"/>
      <point x="828.351" y="230" type="curve"/>
      <point x="1100.35" y="204" type="line"/>
      <point x="1168.28" y="310.383"/>
      <point x="1205.35" y="448.134"/>
      <point x="1205.35" y="618" type="curve" smooth="yes"/>
    </contour>
  </outline>
</glyph>
<glyph name="onetwentieth.mlm" format="2">
  <advance width="1354"/>
  <unicode hex="0D5B"/>
  <outline>
    <contour>
      <point x="372" y="0" type="line"/>
      <point x="372" y="1189" type="line"/>
      <point x="70" y="1189" type="line"/>
      <point x="70" y="0" type="line"/>
    </contour>
    <contour>
      <point x="607" y="949" type="line"/>
      <point x="850" y="1189" type="line"/>
      <point x="112" y="1189" type="line"/>
      <point x="112" y="949" type="line"/>
    </contour>
    <contour>
      <point x="898" y="241" type="curve" smooth="yes"/>
      <point x="834" y="241"/>
      <point x="808" y="287"/>
      <point x="808" y="392" type="curve" smooth="yes"/>
      <point x="808" y="773" type="line" smooth="yes"/>
      <point x="808" y="935"/>
      <point x="824" y="1078"/>
      <point x="852" y="1176" type="curve"/>
      <point x="852" y="1189" type="line"/>
      <point x="613" y="1189" type="line"/>
      <point x="538" y="1088"/>
      <point x="506" y="924"/>
      <point x="506" y="749" type="curve" smooth="yes"/>
      <point x="506" y="396" type="line" smooth="yes"/>
      <point x="506" y="111"/>
      <point x="637" y="-35"/>
      <point x="898" y="-35" type="curve" smooth="yes"/>
      <point x="1159" y="-35"/>
      <point x="1290" y="111"/>
      <point x="1290" y="396" type="curve" smooth="yes"/>
      <point x="1290" y="786" type="line" smooth="yes"/>
      <point x="1290" y="946"/>
      <point x="1277" y="1097"/>
      <point x="1246" y="1189" type="curve"/>
      <point x="948" y="1189" type="line"/>
      <point x="972" y="1091"/>
      <point x="988" y="942"/>
      <point x="988" y="773" type="curve" smooth="yes"/>
      <point x="988" y="392" type="line" smooth="yes"/>
      <point x="988" y="287"/>
      <point x="961" y="241"/>
    </contour>
  </outline>
</glyph>
<glyph name="onetenth.mlm" format="2">
  <advance width="2178"/>
  <unicode hex="0D5C"/>
  <outline>
    <contour>
      <point x="1363" y="370" type="curve" smooth="yes"/>
      <point x="1363" y="103"/>
      <point x="1487" y="-28"/>
      <point x="1739" y="-28" type="curve" smooth="yes"/>
      <point x="1991" y="-28"/>
      <point x="2114" y="103"/>
      <point x="2114" y="370" type="curve" smooth="yes"/>
      <point x="2114" y="760" type="line" smooth="yes"/>
      <point x="2114" y="929"/>
      <point x="2098" y="1077"/>
      <point x="2050" y="1187" type="curve"/>
      <point x="1755" y="1187" type="line"/>
      <point x="1790" y="1088"/>
      <point x="1812" y="936"/>
      <point x="1812" y="765" type="curve" smooth="yes"/>
      <point x="1812" y="366" type="line" smooth="yes"/>
      <point x="1812" y="281"/>
      <point x="1794" y="248"/>
      <point x="1741" y="248" type="curve" smooth="yes"/>
      <point x="1688" y="248"/>
      <point x="1665" y="281"/>
      <point x="1665" y="366" type="curve" smooth="yes"/>
      <point x="1665" y="528"/>
      <point x="1684" y="662"/>
      <point x="1684" y="826" type="curve" smooth="yes"/>
      <point x="1684" y="1093"/>
      <point x="1558" y="1224"/>
      <point x="1306" y="1224" type="curve" smooth="yes"/>
      <point x="1054" y="1224"/>
      <point x="929" y="1093"/>
      <point x="929" y="826" type="curve" smooth="yes"/>
      <point x="929" y="662"/>
      <point x="948" y="528"/>
      <point x="948" y="366" type="curve" smooth="yes"/>
      <point x="948" y="281"/>
      <point x="926" y="248"/>
      <point x="874" y="248" type="curve" smooth="yes"/>
      <point x="822" y="248"/>
      <point x="800" y="281"/>
      <point x="800" y="366" type="curve" smooth="yes"/>
      <point x="800" y="528"/>
      <point x="819" y="662"/>
      <point x="819" y="826" type="curve" smooth="yes"/>
      <point x="819" y="1093"/>
      <point x="695" y="1224"/>
      <point x="443" y="1224" type="curve" smooth="yes"/>
      <point x="189" y="1224"/>
      <point x="64" y="1093"/>
      <point x="64" y="826" type="curve" smooth="yes"/>
      <point x="64" y="427" type="line" smooth="yes"/>
      <point x="64" y="258"/>
      <point x="81" y="98"/>
      <point x="125" y="0" type="curve"/>
      <point x="423" y="0" type="line"/>
      <point x="388" y="99"/>
      <point x="366" y="250"/>
      <point x="366" y="421" type="curve" smooth="yes"/>
      <point x="366" y="830" type="line" smooth="yes"/>
      <point x="366" y="915"/>
      <point x="389" y="948"/>
      <point x="442" y="948" type="curve" smooth="yes"/>
      <point x="495" y="948"/>
      <point x="517" y="915"/>
      <point x="517" y="830" type="curve" smooth="yes"/>
      <point x="517" y="668"/>
      <point x="499" y="534"/>
      <point x="499" y="370" type="curve" smooth="yes"/>
      <point x="499" y="103"/>
      <point x="624" y="-28"/>
      <point x="874" y="-28" type="curve" smooth="yes"/>
      <point x="1124" y="-28"/>
      <point x="1249" y="103"/>
      <point x="1249" y="370" type="curve" smooth="yes"/>
      <point x="1249" y="534"/>
      <point x="1231" y="668"/>
      <point x="1231" y="830" type="curve" smooth="yes"/>
      <point x="1231" y="915"/>
      <point x="1253" y="948"/>
      <point x="1306" y="948" type="curve" smooth="yes"/>
      <point x="1359" y="948"/>
      <point x="1382" y="915"/>
      <point x="1382" y="830" type="curve" smooth="yes"/>
      <point x="1382" y="668"/>
      <point x="1363" y="534"/>
    </contour>
  </outline>
</glyph>
<glyph name="onefifth.mlm" format="2">
  <advance width="2305"/>
  <unicode hex="0D5E"/>
  <outline>
    <contour>
      <point x="1658" y="960" type="line"/>
      <point x="1901" y="1187" type="line"/>
      <point x="1188" y="1187" type="line"/>
      <point x="1321" y="960" type="line"/>
    </contour>
    <contour>
      <point x="1941" y="775" type="curve" smooth="yes"/>
      <point x="1893" y="775"/>
      <point x="1873" y="810"/>
      <point x="1873" y="887" type="curve" smooth="yes"/>
      <point x="1873" y="946" type="line" smooth="yes"/>
      <point x="1873" y="1038"/>
      <point x="1883" y="1117"/>
      <point x="1901" y="1174" type="curve"/>
      <point x="1901" y="1187" type="line"/>
      <point x="1717" y="1168" type="line"/>
      <point x="1634" y="1096"/>
      <point x="1593" y="997"/>
      <point x="1593" y="887" type="curve" smooth="yes"/>
      <point x="1593" y="874" type="line" smooth="yes"/>
      <point x="1593" y="629"/>
      <point x="1709" y="521"/>
      <point x="1939" y="521" type="curve" smooth="yes"/>
      <point x="2171" y="521"/>
      <point x="2287" y="629"/>
      <point x="2287" y="874" type="curve" smooth="yes"/>
      <point x="2287" y="931" type="line" smooth="yes"/>
      <point x="2287" y="1029"/>
      <point x="2269" y="1124"/>
      <point x="2243" y="1187" type="curve"/>
      <point x="1983" y="1187" type="line"/>
      <point x="1996" y="1128"/>
      <point x="2007" y="1045"/>
      <point x="2007" y="946" type="curve" smooth="yes"/>
      <point x="2007" y="887" type="line" smooth="yes"/>
      <point x="2007" y="810"/>
      <point x="1987" y="775"/>
    </contour>
    <contour>
      <point x="1220" y="891" type="line" smooth="yes"/>
      <point x="1220" y="812"/>
      <point x="1196" y="776"/>
      <point x="1141" y="776" type="curve" smooth="yes"/>
      <point x="1074" y="776" type="line"/>
      <point x="1095" y="537" type="line"/>
      <point x="1170" y="537" type="line" smooth="yes"/>
      <point x="1396" y="537"/>
      <point x="1499" y="644"/>
      <point x="1499" y="878" type="curve" smooth="yes"/>
      <point x="1499" y="887" type="line" smooth="yes"/>
      <point x="1499" y="997"/>
      <point x="1459" y="1096"/>
      <point x="1376" y="1168" type="curve"/>
      <point x="1188" y="1187" type="line"/>
      <point x="1188" y="1174" type="line"/>
      <point x="1210" y="1117"/>
      <point x="1220" y="1038"/>
      <point x="1220" y="946" type="curve" smooth="yes"/>
    </contour>
    <contour>
      <point x="616" y="959" type="curve" smooth="yes"/>
      <point x="785" y="959"/>
      <point x="866" y="874"/>
      <point x="866" y="664" type="curve" smooth="yes"/>
      <point x="866" y="318" type="line" smooth="yes"/>
      <point x="866" y="255"/>
      <point x="850" y="230"/>
      <point x="813" y="230" type="curve" smooth="yes"/>
      <point x="776" y="230"/>
      <point x="762" y="255"/>
      <point x="762" y="318" type="curve" smooth="yes"/>
      <point x="762" y="453" type="line" smooth="yes"/>
      <point x="762" y="512"/>
      <point x="782" y="537"/>
      <point x="830" y="537" type="curve" smooth="yes"/>
      <point x="1050" y="537" type="line"/>
      <point x="1078" y="776" type="line"/>
      <point x="782" y="776" type="line" smooth="yes"/>
      <point x="574" y="776"/>
      <point x="476" y="674"/>
      <point x="476" y="451" type="curve" smooth="yes"/>
      <point x="476" y="329" type="line" smooth="yes"/>
      <point x="476" y="95"/>
      <point x="587" y="-26"/>
      <point x="811" y="-26" type="curve" smooth="yes"/>
      <point x="1035" y="-26"/>
      <point x="1150" y="95"/>
      <point x="1150" y="329" type="curve" smooth="yes"/>
      <point x="1150" y="648" type="line" smooth="yes"/>
      <point x="1150" y="1027"/>
      <point x="969" y="1224"/>
      <point x="607" y="1224" type="curve" smooth="yes"/>
      <point x="237" y="1224"/>
      <point x="62" y="1025"/>
      <point x="62" y="640" type="curve" smooth="yes"/>
      <point x="62" y="427" type="line" smooth="yes"/>
      <point x="62" y="258"/>
      <point x="80" y="98"/>
      <point x="126" y="0" type="curve"/>
      <point x="427" y="0" type="line"/>
      <point x="388" y="99"/>
      <point x="362" y="250"/>
      <point x="362" y="421" type="curve" smooth="yes"/>
      <point x="362" y="640" type="line" smooth="yes"/>
      <point x="362" y="861"/>
      <point x="439" y="959"/>
    </contour>
  </outline>
</glyph>
<glyph name="archaicIi.mlm" format="2">
  <advance width="2473"/>
  <unicode hex="0D5F"/>
  <outline>
    <component base="Ra.mlm" xOffset="635" yOffset="2"/>
    <contour>
      <point x="370" y="559" type="curve" smooth="yes"/>
      <point x="370" y="486" type="line" smooth="yes"/>
      <point x="370" y="433"/>
      <point x="355" y="410"/>
      <point x="322" y="410" type="curve" smooth="yes"/>
      <point x="291" y="410"/>
      <point x="276" y="433"/>
      <point x="276" y="486" type="curve" smooth="yes"/>
      <point x="276" y="559" type="line" smooth="yes"/>
      <point x="276" y="612"/>
      <point x="291" y="637"/>
      <point x="322" y="637" type="curve" smooth="yes"/>
      <point x="355" y="637"/>
      <point x="370" y="612"/>
    </contour>
    <contour>
      <point x="322" y="852" type="curve" smooth="yes"/>
      <point x="127" y="852"/>
      <point x="28" y="751"/>
      <point x="28" y="565" type="curve" smooth="yes"/>
      <point x="28" y="480" type="line" smooth="yes"/>
      <point x="28" y="292"/>
      <point x="127" y="193"/>
      <point x="322" y="193" type="curve" smooth="yes"/>
      <point x="517" y="193"/>
      <point x="616" y="292"/>
      <point x="616" y="480" type="curve" smooth="yes"/>
      <point x="616" y="565" type="line" smooth="yes"/>
      <point x="616" y="751"/>
      <point x="517" y="852"/>
    </contour>
    <contour>
      <point x="2199" y="559" type="curve" smooth="yes"/>
      <point x="2199" y="486" type="line" smooth="yes"/>
      <point x="2199" y="433"/>
      <point x="2184" y="410"/>
      <point x="2151" y="410" type="curve" smooth="yes"/>
      <point x="2120" y="410"/>
      <point x="2105" y="433"/>
      <point x="2105" y="486" type="curve" smooth="yes"/>
      <point x="2105" y="559" type="line" smooth="yes"/>
      <point x="2105" y="612"/>
      <point x="2120" y="637"/>
      <point x="2151" y="637" type="curve" smooth="yes"/>
      <point x="2184" y="637"/>
      <point x="2199" y="612"/>
    </contour>
    <contour>
      <point x="1857" y="565" type="curve" smooth="yes"/>
      <point x="1857" y="480" type="line" smooth="yes"/>
      <point x="1857" y="292"/>
      <point x="1956" y="193"/>
      <point x="2151" y="193" type="curve" smooth="yes"/>
      <point x="2346" y="193"/>
      <point x="2445" y="292"/>
      <point x="2445" y="480" type="curve" smooth="yes"/>
      <point x="2445" y="565" type="line" smooth="yes"/>
      <point x="2445" y="751"/>
      <point x="2346" y="852"/>
      <point x="2151" y="852" type="curve" smooth="yes"/>
      <point x="1956" y="852"/>
      <point x="1857" y="751"/>
    </contour>
  </outline>
</glyph>
<glyph name="vowelRuu.mlm" format="2">
  <advance width="1434"/>
  <unicode hex="0D60"/>
  <outline>
    <contour>
      <point x="856" y="-228" type="line" smooth="yes"/>
      <point x="1147" y="-228"/>
      <point x="1298" y="-128"/>
      <point x="1298" y="75" type="curve" smooth="yes"/>
      <point x="1298" y="182"/>
      <point x="1250" y="268"/>
      <point x="1127" y="310" type="curve"/>
      <point x="1127" y="333" type="line"/>
      <point x="828" y="436" type="line"/>
      <point x="606" y="436" type="line"/>
      <point x="307" y="333" type="line"/>
      <point x="307" y="310" type="line"/>
      <point x="184" y="268"/>
      <point x="136" y="182"/>
      <point x="136" y="75" type="curve" smooth="yes"/>
      <point x="136" y="-128"/>
      <point x="287" y="-228"/>
      <point x="578" y="-228" type="curve" smooth="yes"/>
    </contour>
    <contour>
      <point x="856" y="233" type="line" smooth="yes"/>
      <point x="984" y="233"/>
      <point x="1052" y="194"/>
      <point x="1052" y="104" type="curve" smooth="yes"/>
      <point x="1052" y="14"/>
      <point x="984" y="-25"/>
      <point x="856" y="-25" type="curve" smooth="yes"/>
      <point x="578" y="-25" type="line" smooth="yes"/>
      <point x="450" y="-25"/>
      <point x="382" y="14"/>
      <point x="382" y="104" type="curve" smooth="yes"/>
      <point x="382" y="194"/>
      <point x="450" y="233"/>
      <point x="578" y="233" type="curve" smooth="yes"/>
    </contour>
    <contour>
      <point x="595" y="201" type="curve" smooth="yes"/>
      <point x="492" y="201"/>
      <point x="437" y="147"/>
      <point x="437" y="54" type="curve" smooth="yes"/>
      <point x="437" y="40" type="line"/>
      <point x="584" y="23" type="line"/>
      <point x="584" y="43" type="line" smooth="yes"/>
      <point x="584" y="67"/>
      <point x="594" y="77"/>
      <point x="616" y="77" type="curve" smooth="yes"/>
      <point x="636" y="77"/>
      <point x="647" y="65"/>
      <point x="647" y="41" type="curve" smooth="yes"/>
      <point x="647" y="27" type="line"/>
      <point x="787" y="27" type="line"/>
      <point x="786" y="42" type="line" smooth="yes"/>
      <point x="784" y="66"/>
      <point x="798" y="78"/>
      <point x="818" y="78" type="curve" smooth="yes"/>
      <point x="840" y="78"/>
      <point x="850" y="67"/>
      <point x="850" y="43" type="curve" smooth="yes"/>
      <point x="850" y="23" type="line"/>
      <point x="997" y="40" type="line"/>
      <point x="997" y="55" type="line" smooth="yes"/>
      <point x="997" y="148"/>
      <point x="942" y="201"/>
      <point x="839" y="201" type="curve" smooth="yes"/>
      <point x="770" y="201"/>
      <point x="730" y="175"/>
      <point x="719" y="121" type="curve"/>
      <point x="716" y="121" type="line"/>
      <point x="705" y="175"/>
      <point x="664" y="201"/>
    </contour>
    <contour>
      <point x="1117" y="697" type="line" smooth="yes"/>
      <point x="1117" y="519"/>
      <point x="1014" y="436"/>
      <point x="771" y="436" type="curve"/>
      <point x="1047" y="276" type="line"/>
      <point x="1076" y="288"/>
      <point x="1099" y="311"/>
      <point x="1127" y="318" type="curve" smooth="yes"/>
      <point x="1297" y="362"/>
      <point x="1381" y="514"/>
      <point x="1381" y="701" type="curve" smooth="yes"/>
      <point x="1381" y="883" type="line" smooth="yes"/>
      <point x="1381" y="1107"/>
      <point x="1270" y="1224"/>
      <point x="1057" y="1224" type="curve" smooth="yes"/>
      <point x="844" y="1224"/>
      <point x="744" y="1108"/>
      <point x="744" y="887" type="curve" smooth="yes"/>
      <point x="744" y="806" type="line" smooth="yes"/>
      <point x="744" y="637"/>
      <point x="812" y="557"/>
      <point x="939" y="557" type="curve" smooth="yes"/>
      <point x="1040" y="557"/>
      <point x="1098" y="618"/>
      <point x="1111" y="739" type="curve"/>
      <point x="1114" y="815" type="line"/>
      <point x="1105" y="787"/>
      <point x="1085" y="769"/>
      <point x="1057" y="769" type="curve" smooth="yes"/>
      <point x="1024" y="769"/>
      <point x="1011" y="793"/>
      <point x="1011" y="839" type="curve" smooth="yes"/>
      <point x="1011" y="889" type="line" smooth="yes"/>
      <point x="1011" y="948"/>
      <point x="1026" y="970"/>
      <point x="1059" y="970" type="curve" smooth="yes"/>
      <point x="1094" y="970"/>
      <point x="1111" y="948"/>
      <point x="1111" y="889" type="curve" smooth="yes"/>
      <point x="1111" y="798" type="line"/>
      <point x="1099" y="716" type="line"/>
      <point x="1117" y="716" type="line"/>
    </contour>
    <contour>
      <point x="663" y="436" type="line"/>
      <point x="420" y="436"/>
      <point x="317" y="519"/>
      <point x="317" y="697" type="curve" smooth="yes"/>
      <point x="317" y="716" type="line"/>
      <point x="334" y="716" type="line"/>
      <point x="323" y="798" type="line"/>
      <point x="323" y="889" type="line" smooth="yes"/>
      <point x="323" y="948"/>
      <point x="340" y="970"/>
      <point x="375" y="970" type="curve" smooth="yes"/>
      <point x="408" y="970"/>
      <point x="422" y="948"/>
      <point x="422" y="889" type="curve" smooth="yes"/>
      <point x="422" y="839" type="line" smooth="yes"/>
      <point x="422" y="793"/>
      <point x="409" y="769"/>
      <point x="376" y="769" type="curve" smooth="yes"/>
      <point x="348" y="769"/>
      <point x="328" y="787"/>
      <point x="319" y="815" type="curve"/>
      <point x="323" y="739" type="line"/>
      <point x="336" y="618"/>
      <point x="393" y="557"/>
      <point x="494" y="557" type="curve" smooth="yes"/>
      <point x="621" y="557"/>
      <point x="689" y="637"/>
      <point x="689" y="806" type="curve" smooth="yes"/>
      <point x="689" y="887" type="line" smooth="yes"/>
      <point x="689" y="1108"/>
      <point x="589" y="1224"/>
      <point x="376" y="1224" type="curve" smooth="yes"/>
      <point x="163" y="1224"/>
      <point x="53" y="1107"/>
      <point x="53" y="883" type="curve" smooth="yes"/>
      <point x="53" y="701" type="line" smooth="yes"/>
      <point x="53" y="514"/>
      <point x="137" y="362"/>
      <point x="307" y="318" type="curve" smooth="yes"/>
      <point x="335" y="311"/>
      <point x="358" y="288"/>
      <point x="387" y="276" type="curve"/>
    </contour>
  </outline>
</glyph>
<glyph name="vowelLruu.mlm" format="2">
  <advance width="2348"/>
  <unicode hex="0D61"/>
  <outline>
    <contour>
      <point x="1814" y="675" type="line"/>
      <point x="1950" y="664"/>
      <point x="2009" y="584"/>
      <point x="2009" y="372" type="curve" smooth="yes"/>
      <point x="2009" y="311" type="line" smooth="yes"/>
      <point x="2009" y="42"/>
      <point x="1921" y="-86"/>
      <point x="1621" y="-86" type="curve" smooth="yes"/>
      <point x="1511" y="-86"/>
      <point x="1413" y="-72"/>
      <point x="1323" y="-46" type="curve"/>
      <point x="1380" y="-285" type="line"/>
      <point x="1468" y="-309"/>
      <point x="1564" y="-322"/>
      <point x="1660" y="-322" type="curve" smooth="yes"/>
      <point x="2111" y="-322"/>
      <point x="2298" y="-123"/>
      <point x="2298" y="304" type="curve" smooth="yes"/>
      <point x="2298" y="372" type="line" smooth="yes"/>
      <point x="2298" y="692"/>
      <point x="2149" y="878"/>
      <point x="1838" y="898" type="curve"/>
    </contour>
    <contour>
      <point x="1376" y="959" type="curve" smooth="yes"/>
      <point x="1488" y="959"/>
      <point x="1564" y="922"/>
      <point x="1601" y="839" type="curve"/>
      <point x="1621" y="754" type="line"/>
      <point x="1621" y="723"/>
      <point x="1621" y="706"/>
      <point x="1621" y="675" type="curve" smooth="yes"/>
      <point x="1621" y="374" type="line" smooth="yes"/>
      <point x="1621" y="311"/>
      <point x="1607" y="285"/>
      <point x="1568" y="285" type="curve" smooth="yes"/>
      <point x="1531" y="285"/>
      <point x="1516" y="311"/>
      <point x="1516" y="374" type="curve" smooth="yes"/>
      <point x="1516" y="456" type="line" smooth="yes"/>
      <point x="1516" y="579"/>
      <point x="1560" y="653"/>
      <point x="1665" y="653" type="curve" smooth="yes"/>
      <point x="1687" y="653"/>
      <point x="1713" y="653"/>
      <point x="1735" y="653" type="curve"/>
      <point x="1731" y="891" type="line"/>
      <point x="1703" y="891"/>
      <point x="1674" y="891"/>
      <point x="1645" y="891" type="curve" smooth="yes"/>
      <point x="1382" y="891"/>
      <point x="1231" y="729"/>
      <point x="1231" y="451" type="curve" smooth="yes"/>
      <point x="1231" y="385" type="line" smooth="yes"/>
      <point x="1231" y="151"/>
      <point x="1341" y="29"/>
      <point x="1564" y="29" type="curve" smooth="yes"/>
      <point x="1790" y="29"/>
      <point x="1904" y="151"/>
      <point x="1904" y="385" type="curve" smooth="yes"/>
      <point x="1904" y="661" type="line" smooth="yes"/>
      <point x="1904" y="690"/>
      <point x="1904" y="719"/>
      <point x="1904" y="745" type="curve"/>
      <point x="1888" y="845" type="line"/>
      <point x="1838" y="1095"/>
      <point x="1676" y="1224"/>
      <point x="1396" y="1224" type="curve" smooth="yes"/>
      <point x="1157" y="1224"/>
      <point x="1021" y="1131"/>
      <point x="986" y="951" type="curve"/>
      <point x="925" y="951" type="line"/>
      <point x="936" y="594" type="line"/>
      <point x="1133" y="594" type="line"/>
      <point x="1133" y="694" type="line" smooth="yes"/>
      <point x="1133" y="876"/>
      <point x="1210" y="959"/>
    </contour>
    <contour>
      <point x="570" y="1224" type="curve" smooth="yes"/>
      <point x="226" y="1224"/>
      <point x="59" y="1027"/>
      <point x="59" y="648" type="curve" smooth="yes"/>
      <point x="59" y="329" type="line" smooth="yes"/>
      <point x="59" y="95"/>
      <point x="173" y="-26"/>
      <point x="397" y="-26" type="curve" smooth="yes"/>
      <point x="621" y="-26"/>
      <point x="732" y="95"/>
      <point x="732" y="329" type="curve" smooth="yes"/>
      <point x="732" y="524" type="line" smooth="yes"/>
      <point x="732" y="725"/>
      <point x="669" y="819"/>
      <point x="537" y="819" type="curve" smooth="yes"/>
      <point x="417" y="819"/>
      <point x="357" y="742"/>
      <point x="342" y="587" type="curve"/>
      <point x="339" y="506" type="line"/>
      <point x="348" y="537"/>
      <point x="366" y="556"/>
      <point x="397" y="556" type="curve" smooth="yes"/>
      <point x="432" y="556"/>
      <point x="447" y="532"/>
      <point x="447" y="480" type="curve" smooth="yes"/>
      <point x="447" y="318" type="line" smooth="yes"/>
      <point x="447" y="255"/>
      <point x="433" y="230"/>
      <point x="396" y="230" type="curve" smooth="yes"/>
      <point x="359" y="230"/>
      <point x="342" y="255"/>
      <point x="342" y="318" type="curve" smooth="yes"/>
      <point x="342" y="523" type="line"/>
      <point x="353" y="613" type="line"/>
      <point x="337" y="613" type="line"/>
      <point x="337" y="640" type="line" smooth="yes"/>
      <point x="337" y="863"/>
      <point x="416" y="959"/>
      <point x="591" y="959" type="curve" smooth="yes"/>
      <point x="757" y="959"/>
      <point x="832" y="881"/>
      <point x="832" y="712" type="curve" smooth="yes"/>
      <point x="832" y="598" type="line"/>
      <point x="973" y="598" type="line"/>
      <point x="979" y="951" type="line"/>
      <point x="942" y="1133"/>
      <point x="804" y="1224"/>
    </contour>
    <contour>
      <point x="832" y="4" type="line"/>
      <point x="1133" y="4" type="line"/>
      <point x="1133" y="753" type="line"/>
      <point x="832" y="688" type="line"/>
    </contour>
  </outline>
</glyph>
<glyph name="uni0D63" format="2">
  <unicode hex="0D63"/>
  <outline>
    <contour>
      <point x="-56" y="-83" type="curve"/>
      <point x="-73" y="-227" type="line"/>
      <point x="1" y="-232"/>
      <point x="35" y="-263"/>
      <point x="35" y="-345" type="curve" smooth="yes"/>
      <point x="35" y="-352" type="line" smooth="yes"/>
      <point x="35" y="-460"/>
      <point x="-25" y="-520"/>
      <point x="-211" y="-520" type="curve" smooth="yes"/>
      <point x="-288" y="-520"/>
      <point x="-352" y="-513"/>
      <point x="-408" y="-501" type="curve"/>
      <point x="-369" y="-645" type="line"/>
      <point x="-311" y="-657"/>
      <point x="-248" y="-666"/>
      <point x="-184" y="-666" type="curve" smooth="yes"/>
      <point x="99" y="-666"/>
      <point x="225" y="-565"/>
      <point x="225" y="-370" type="curve" smooth="yes"/>
      <point x="225" y="-355" type="line" smooth="yes"/>
      <point x="225" y="-199"/>
      <point x="127" y="-94"/>
    </contour>
    <contour>
      <point x="-376" y="-51" type="curve" smooth="yes"/>
      <point x="-288" y="-51"/>
      <point x="-234" y="-74"/>
      <point x="-209" y="-123" type="curve"/>
      <point x="-205" y="-144" type="line"/>
      <point x="-205" y="-169"/>
      <point x="-205" y="-182"/>
      <point x="-205" y="-207" type="curve" smooth="yes"/>
      <point x="-205" y="-260" type="line" smooth="yes"/>
      <point x="-205" y="-289"/>
      <point x="-218" y="-309"/>
      <point x="-247" y="-309" type="curve" smooth="yes"/>
      <point x="-278" y="-309"/>
      <point x="-292" y="-294"/>
      <point x="-292" y="-268" type="curve" smooth="yes"/>
      <point x="-292" y="-265" type="line" smooth="yes"/>
      <point x="-292" y="-231"/>
      <point x="-272" y="-211"/>
      <point x="-223" y="-211" type="curve" smooth="yes"/>
      <point x="-192" y="-211"/>
      <point x="-157" y="-213"/>
      <point x="-141" y="-215" type="curve"/>
      <point x="-143" y="-82" type="line"/>
      <point x="-164" y="-80"/>
      <point x="-205" y="-78"/>
      <point x="-243" y="-78" type="curve" smooth="yes"/>
      <point x="-407" y="-78"/>
      <point x="-479" y="-148"/>
      <point x="-479" y="-267" type="curve" smooth="yes"/>
      <point x="-479" y="-271" type="line" smooth="yes"/>
      <point x="-479" y="-391"/>
      <point x="-401" y="-455"/>
      <point x="-245" y="-455" type="curve" smooth="yes"/>
      <point x="-95" y="-455"/>
      <point x="-20" y="-388"/>
      <point x="-20" y="-260" type="curve" smooth="yes"/>
      <point x="-20" y="-201" type="line" smooth="yes"/>
      <point x="-20" y="-188"/>
      <point x="-20" y="-167"/>
      <point x="-22" y="-151" type="curve"/>
      <point x="-22" y="-138" type="line"/>
      <point x="-44" y="22"/>
      <point x="-177" y="105"/>
      <point x="-371" y="105" type="curve" smooth="yes"/>
      <point x="-505" y="105"/>
      <point x="-610" y="68"/>
      <point x="-648" y="-38" type="curve"/>
      <point x="-671" y="-38" type="line"/>
      <point x="-657" y="-219" type="line"/>
      <point x="-551" y="-228" type="line"/>
      <point x="-551" y="-220" type="line" smooth="yes"/>
      <point x="-551" y="-105"/>
      <point x="-492" y="-51"/>
    </contour>
    <contour>
      <point x="-748" y="-498" type="line"/>
      <point x="-551" y="-498" type="line"/>
      <point x="-551" y="-167" type="line"/>
      <point x="-748" y="-212" type="line"/>
    </contour>
    <contour>
      <point x="-935" y="105" type="curve" smooth="yes"/>
      <point x="-1173" y="105"/>
      <point x="-1300" y="-10"/>
      <point x="-1300" y="-231" type="curve" smooth="yes"/>
      <point x="-1300" y="-302" type="line" smooth="yes"/>
      <point x="-1300" y="-444"/>
      <point x="-1218" y="-515"/>
      <point x="-1063" y="-515" type="curve" smooth="yes"/>
      <point x="-907" y="-515"/>
      <point x="-826" y="-447"/>
      <point x="-826" y="-318" type="curve" smooth="yes"/>
      <point x="-826" y="-283" type="line" smooth="yes"/>
      <point x="-826" y="-168"/>
      <point x="-878" y="-109"/>
      <point x="-974" y="-109" type="curve" smooth="yes"/>
      <point x="-1052" y="-109"/>
      <point x="-1099" y="-149"/>
      <point x="-1112" y="-228" type="curve"/>
      <point x="-1112" y="-287" type="line"/>
      <point x="-1106" y="-269"/>
      <point x="-1088" y="-254"/>
      <point x="-1061" y="-254" type="curve" smooth="yes"/>
      <point x="-1030" y="-254"/>
      <point x="-1015" y="-271"/>
      <point x="-1015" y="-307" type="curve" smooth="yes"/>
      <point x="-1015" y="-317" type="line" smooth="yes"/>
      <point x="-1015" y="-350"/>
      <point x="-1031" y="-368"/>
      <point x="-1062" y="-368" type="curve" smooth="yes"/>
      <point x="-1095" y="-368"/>
      <point x="-1110" y="-349"/>
      <point x="-1110" y="-315" type="curve" smooth="yes"/>
      <point x="-1110" y="-243" type="line"/>
      <point x="-1101" y="-215" type="line"/>
      <point x="-1116" y="-215" type="line"/>
      <point x="-1116" y="-110"/>
      <point x="-1051" y="-52"/>
      <point x="-932" y="-52" type="curve" smooth="yes"/>
      <point x="-808" y="-52"/>
      <point x="-748" y="-102"/>
      <point x="-748" y="-206" type="curve" smooth="yes"/>
      <point x="-748" y="-226" type="line"/>
      <point x="-612" y="-254" type="line"/>
      <point x="-653" y="-38" type="line"/>
      <point x="-684" y="59"/>
      <point x="-785" y="105"/>
    </contour>
  </outline>
</glyph>
<glyph name="zero.mlm" format="2">
  <advance width="865"/>
  <unicode hex="0D66"/>
  <outline>
    <contour>
      <point x="432" y="293" type="curve" smooth="yes"/>
      <point x="379" y="293"/>
      <point x="357" y="335"/>
      <point x="357" y="427" type="curve" smooth="yes"/>
      <point x="357" y="767" type="line" smooth="yes"/>
      <point x="357" y="859"/>
      <point x="379" y="902"/>
      <point x="432" y="902" type="curve" smooth="yes"/>
      <point x="485" y="902"/>
      <point x="508" y="859"/>
      <point x="508" y="767" type="curve" smooth="yes"/>
      <point x="508" y="427" type="line" smooth="yes"/>
      <point x="508" y="335"/>
      <point x="485" y="293"/>
    </contour>
    <contour>
      <point x="432" y="17" type="curve" smooth="yes"/>
      <point x="682" y="17"/>
      <point x="810" y="159"/>
      <point x="810" y="431" type="curve" smooth="yes"/>
      <point x="810" y="764" type="line" smooth="yes"/>
      <point x="810" y="1036"/>
      <point x="682" y="1178"/>
      <point x="432" y="1178" type="curve" smooth="yes"/>
      <point x="182" y="1178"/>
      <point x="55" y="1036"/>
      <point x="55" y="764" type="curve" smooth="yes"/>
      <point x="55" y="431" type="line" smooth="yes"/>
      <point x="55" y="159"/>
      <point x="182" y="17"/>
    </contour>
  </outline>
</glyph>
<glyph name="one.mlm" format="2">
  <advance width="1189"/>
  <unicode hex="0D67"/>
  <outline>
    <contour>
      <point x="543" y="241" type="line"/>
      <point x="433" y="0" type="line"/>
      <point x="1119" y="0" type="line"/>
      <point x="1119" y="826" type="line" smooth="yes"/>
      <point x="1119" y="1092"/>
      <point x="999" y="1224"/>
      <point x="749" y="1224" type="curve" smooth="yes"/>
      <point x="499" y="1224"/>
      <point x="372" y="1090"/>
      <point x="372" y="826" type="curve" smooth="yes"/>
      <point x="372" y="0" type="line"/>
      <point x="674" y="0" type="line"/>
      <point x="674" y="830" type="line" smooth="yes"/>
      <point x="674" y="910"/>
      <point x="695" y="948"/>
      <point x="746" y="948" type="curve" smooth="yes"/>
      <point x="797" y="948"/>
      <point x="817" y="910"/>
      <point x="817" y="830" type="curve" smooth="yes"/>
      <point x="817" y="241" type="line"/>
    </contour>
    <contour>
      <point x="496" y="241" type="line"/>
      <point x="288" y="241" type="line" smooth="yes"/>
      <point x="80" y="241"/>
      <point x="-25" y="150"/>
      <point x="-25" y="-40" type="curve" smooth="yes"/>
      <point x="-25" y="-228"/>
      <point x="80" y="-324"/>
      <point x="288" y="-324" type="curve" smooth="yes"/>
      <point x="544" y="-324" type="line"/>
      <point x="575" y="-92" type="line"/>
      <point x="328" y="-92" type="line" smooth="yes"/>
      <point x="289" y="-92"/>
      <point x="269" y="-77"/>
      <point x="269" y="-46" type="curve" smooth="yes"/>
      <point x="269" y="-13"/>
      <point x="289" y="0"/>
      <point x="328" y="0" type="curve" smooth="yes"/>
      <point x="527" y="0" type="line"/>
    </contour>
  </outline>
</glyph>
<glyph name="two.mlm" format="2">
  <advance width="1106"/>
  <unicode hex="0D68"/>
  <outline>
    <contour>
      <point x="760" y="241" type="line"/>
      <point x="534" y="0" type="line"/>
      <point x="1069" y="0" type="line"/>
      <point x="1097" y="241" type="line"/>
    </contour>
    <contour>
      <point x="463" y="948" type="curve" smooth="yes"/>
      <point x="532" y="948"/>
      <point x="560" y="900"/>
      <point x="560" y="792" type="curve" smooth="yes"/>
      <point x="560" y="416" type="line" smooth="yes"/>
      <point x="560" y="254"/>
      <point x="543" y="111"/>
      <point x="515" y="13" type="curve"/>
      <point x="515" y="0" type="line"/>
      <point x="755" y="0" type="line"/>
      <point x="830" y="101"/>
      <point x="862" y="265"/>
      <point x="862" y="440" type="curve" smooth="yes"/>
      <point x="862" y="788" type="line" smooth="yes"/>
      <point x="862" y="1076"/>
      <point x="729" y="1224"/>
      <point x="463" y="1224" type="curve" smooth="yes"/>
      <point x="197" y="1224"/>
      <point x="64" y="1076"/>
      <point x="64" y="788" type="curve" smooth="yes"/>
      <point x="64" y="403" type="line" smooth="yes"/>
      <point x="64" y="243"/>
      <point x="78" y="92"/>
      <point x="109" y="0" type="curve"/>
      <point x="407" y="0" type="line"/>
      <point x="383" y="98"/>
      <point x="366" y="247"/>
      <point x="366" y="416" type="curve" smooth="yes"/>
      <point x="366" y="792" type="line" smooth="yes"/>
      <point x="366" y="900"/>
      <point x="394" y="948"/>
    </contour>
  </outline>
</glyph>
<glyph name="three.mlm" format="2">
  <advance width="1544"/>
  <unicode hex="0D69"/>
  <outline>
    <contour>
      <point x="532" y="754" type="line"/>
      <point x="532" y="4" type="line"/>
      <point x="834" y="4" type="line"/>
      <point x="834" y="754" type="line"/>
    </contour>
    <contour>
      <point x="64" y="804" type="curve" smooth="yes"/>
      <point x="64" y="427" type="line" smooth="yes"/>
      <point x="64" y="258"/>
      <point x="81" y="98"/>
      <point x="125" y="0" type="curve"/>
      <point x="423" y="0" type="line"/>
      <point x="388" y="99"/>
      <point x="366" y="250"/>
      <point x="366" y="421" type="curve" smooth="yes"/>
      <point x="366" y="806" type="line" smooth="yes"/>
      <point x="366" y="896"/>
      <point x="390" y="937"/>
      <point x="449" y="937" type="curve" smooth="yes"/>
      <point x="508" y="937"/>
      <point x="532" y="896"/>
      <point x="532" y="806" type="curve" smooth="yes"/>
      <point x="532" y="640" type="line"/>
      <point x="694" y="640" type="line"/>
      <point x="679" y="970" type="line"/>
      <point x="657" y="1139"/>
      <point x="569" y="1224"/>
      <point x="392" y="1224" type="curve" smooth="yes"/>
      <point x="168" y="1224"/>
      <point x="64" y="1084"/>
    </contour>
    <contour>
      <point x="1301" y="804" type="line" smooth="yes"/>
      <point x="1301" y="1084"/>
      <point x="1199" y="1224"/>
      <point x="975" y="1224" type="curve" smooth="yes"/>
      <point x="800" y="1224"/>
      <point x="710" y="1139"/>
      <point x="688" y="970" type="curve"/>
      <point x="581" y="970" type="line"/>
      <point x="567" y="670" type="line"/>
      <point x="834" y="640" type="line"/>
      <point x="834" y="806" type="line" smooth="yes"/>
      <point x="834" y="896"/>
      <point x="857" y="937"/>
      <point x="916" y="937" type="curve" smooth="yes"/>
      <point x="975" y="937"/>
      <point x="999" y="896"/>
      <point x="999" y="806" type="curve" smooth="yes"/>
      <point x="999" y="421" type="line" smooth="yes"/>
      <point x="999" y="257"/>
      <point x="979" y="112"/>
      <point x="946" y="13" type="curve"/>
      <point x="946" y="0" type="line"/>
      <point x="1190" y="0" type="line"/>
      <point x="1254" y="105"/>
      <point x="1301" y="273"/>
      <point x="1301" y="451" type="curve" smooth="yes"/>
    </contour>
    <contour>
      <point x="1203" y="241" type="line"/>
      <point x="959" y="0" type="line"/>
      <point x="1507" y="0" type="line"/>
      <point x="1535" y="241" type="line"/>
    </contour>
  </outline>
</glyph>
<glyph name="five.mlm" format="2">
  <advance width="1784"/>
  <unicode hex="0D6B"/>
  <outline>
    <contour>
      <point x="1426" y="646" type="curve" smooth="yes"/>
      <point x="1426" y="432" type="line" smooth="yes"/>
      <point x="1426" y="255"/>
      <point x="1410" y="105"/>
      <point x="1386" y="0" type="curve"/>
      <point x="1675" y="0" type="line"/>
      <point x="1708" y="103"/>
      <point x="1721" y="263"/>
      <point x="1721" y="438" type="curve" smooth="yes"/>
      <point x="1721" y="642" type="line" smooth="yes"/>
      <point x="1721" y="1172"/>
      <point x="1457" y="1466"/>
      <point x="892" y="1466" type="curve" smooth="yes"/>
      <point x="327" y="1466"/>
      <point x="64" y="1172"/>
      <point x="64" y="642" type="curve" smooth="yes"/>
      <point x="64" y="237" type="line" smooth="yes"/>
      <point x="64" y="-166"/>
      <point x="263" y="-370"/>
      <point x="686" y="-370" type="curve" smooth="yes"/>
      <point x="1094" y="-370"/>
      <point x="1299" y="-199"/>
      <point x="1299" y="125" type="curve" smooth="yes"/>
      <point x="1299" y="136" type="line" smooth="yes"/>
      <point x="1299" y="311"/>
      <point x="1234" y="405"/>
      <point x="1094" y="425" type="curve"/>
      <point x="1094" y="431" type="line"/>
      <point x="1229" y="455"/>
      <point x="1288" y="541"/>
      <point x="1288" y="681" type="curve" smooth="yes"/>
      <point x="1288" y="686" type="line" smooth="yes"/>
      <point x="1288" y="958"/>
      <point x="1158" y="1100"/>
      <point x="889" y="1100" type="curve" smooth="yes"/>
      <point x="622" y="1100"/>
      <point x="488" y="955"/>
      <point x="488" y="677" type="curve" smooth="yes"/>
      <point x="488" y="442" type="line" smooth="yes"/>
      <point x="488" y="278"/>
      <point x="497" y="135"/>
      <point x="521" y="28" type="curve"/>
      <point x="810" y="28" type="line"/>
      <point x="795" y="126"/>
      <point x="784" y="273"/>
      <point x="784" y="440" type="curve" smooth="yes"/>
      <point x="784" y="684" type="line" smooth="yes"/>
      <point x="784" y="785"/>
      <point x="814" y="830"/>
      <point x="889" y="830" type="curve" smooth="yes"/>
      <point x="966" y="830"/>
      <point x="994" y="785"/>
      <point x="994" y="684" type="curve" smooth="yes"/>
      <point x="994" y="660" type="line" smooth="yes"/>
      <point x="994" y="592"/>
      <point x="966" y="554"/>
      <point x="903" y="549" type="curve" smooth="yes"/>
      <point x="862" y="546" type="line"/>
      <point x="862" y="301" type="line"/>
      <point x="911" y="297" type="line" smooth="yes"/>
      <point x="975" y="292"/>
      <point x="1003" y="246"/>
      <point x="1003" y="160" type="curve" smooth="yes"/>
      <point x="1003" y="151" type="line" smooth="yes"/>
      <point x="1003" y="-26"/>
      <point x="907" y="-116"/>
      <point x="686" y="-116" type="curve" smooth="yes"/>
      <point x="456" y="-116"/>
      <point x="359" y="2"/>
      <point x="359" y="243" type="curve" smooth="yes"/>
      <point x="359" y="646" type="line" smooth="yes"/>
      <point x="359" y="1012"/>
      <point x="518" y="1213"/>
      <point x="892" y="1213" type="curve" smooth="yes"/>
      <point x="1266" y="1213"/>
      <point x="1426" y="1012"/>
    </contour>
  </outline>
</glyph>
<glyph name="six.mlm" format="2">
  <advance width="1829"/>
  <unicode hex="0D6C"/>
  <outline>
    <contour>
      <point x="1380" y="937" type="curve" smooth="yes"/>
      <point x="1439" y="937"/>
      <point x="1463" y="896"/>
      <point x="1463" y="806" type="curve" smooth="yes"/>
      <point x="1463" y="232" type="line" smooth="yes"/>
      <point x="1463" y="-4"/>
      <point x="1392" y="-116"/>
      <point x="1156" y="-116" type="curve" smooth="yes"/>
      <point x="1079" y="-116"/>
      <point x="1012" y="-105"/>
      <point x="949" y="-88" type="curve"/>
      <point x="997" y="-329" type="line"/>
      <point x="1071" y="-351"/>
      <point x="1146" y="-361"/>
      <point x="1225" y="-361" type="curve" smooth="yes"/>
      <point x="1604" y="-361"/>
      <point x="1765" y="-164"/>
      <point x="1765" y="237" type="curve" smooth="yes"/>
      <point x="1765" y="804" type="line" smooth="yes"/>
      <point x="1765" y="1084"/>
      <point x="1663" y="1224"/>
      <point x="1439" y="1224" type="curve" smooth="yes"/>
      <point x="1265.21" y="1224"/>
      <point x="1177.82" y="1141"/>
      <point x="1152" y="983" type="curve"/>
      <point x="1126" y="983" type="line"/>
      <point x="1144" y="627" type="line"/>
      <point x="1297" y="640" type="line"/>
      <point x="1297" y="806" type="line" smooth="yes"/>
      <point x="1297" y="896"/>
      <point x="1321" y="937"/>
    </contour>
    <contour>
      <point x="64" y="804" type="curve" smooth="yes"/>
      <point x="64" y="427" type="line" smooth="yes"/>
      <point x="64" y="258"/>
      <point x="81" y="98"/>
      <point x="125" y="0" type="curve"/>
      <point x="423" y="0" type="line"/>
      <point x="388" y="99"/>
      <point x="366" y="250"/>
      <point x="366" y="421" type="curve" smooth="yes"/>
      <point x="366" y="806" type="line" smooth="yes"/>
      <point x="366" y="896"/>
      <point x="390" y="937"/>
      <point x="449" y="937" type="curve" smooth="yes"/>
      <point x="508" y="937"/>
      <point x="532" y="896"/>
      <point x="532" y="806" type="curve" smooth="yes"/>
      <point x="532" y="640" type="line"/>
      <point x="677" y="627" type="line"/>
      <point x="679" y="983" type="line"/>
      <point x="653" y="1141"/>
      <point x="569" y="1224"/>
      <point x="392" y="1224" type="curve" smooth="yes"/>
      <point x="168" y="1224"/>
      <point x="64" y="1084"/>
    </contour>
    <contour>
      <point x="532" y="732" type="line"/>
      <point x="532" y="4" type="line"/>
      <point x="834" y="4" type="line"/>
      <point x="834" y="732" type="line"/>
    </contour>
    <contour>
      <point x="914" y="937" type="curve" smooth="yes"/>
      <point x="971" y="937"/>
      <point x="995" y="896"/>
      <point x="995" y="808" type="curve" smooth="yes"/>
      <point x="995" y="648" type="line"/>
      <point x="1165" y="648" type="line"/>
      <point x="1144" y="983" type="line" smooth="yes"/>
      <point x="1133.96" y="1143.22"/>
      <point x="1046.58" y="1224"/>
      <point x="914" y="1224" type="curve" smooth="yes"/>
      <point x="782.579" y="1224"/>
      <point x="699.943" y="1143"/>
      <point x="687" y="983" type="curve"/>
      <point x="646" y="983" type="line"/>
      <point x="664" y="648" type="line"/>
      <point x="834" y="648" type="line"/>
      <point x="834" y="808" type="line" smooth="yes"/>
      <point x="834" y="896"/>
      <point x="857" y="937"/>
    </contour>
    <contour>
      <point x="995" y="754" type="line"/>
      <point x="995" y="4" type="line"/>
      <point x="1297" y="4" type="line"/>
      <point x="1297" y="754" type="line"/>
    </contour>
  </outline>
</glyph>
<glyph name="seven.mlm" format="2">
  <advance width="1207"/>
  <unicode hex="0D6D"/>
  <outline>
    <contour>
      <point x="342" y="587" type="curve"/>
      <point x="339" y="506" type="line"/>
      <point x="348" y="537"/>
      <point x="366" y="556"/>
      <point x="397" y="556" type="curve" smooth="yes"/>
      <point x="432" y="556"/>
      <point x="447" y="532"/>
      <point x="447" y="480" type="curve" smooth="yes"/>
      <point x="447" y="318" type="line" smooth="yes"/>
      <point x="447" y="256"/>
      <point x="432" y="230"/>
      <point x="396" y="230" type="curve" smooth="yes"/>
      <point x="359" y="230"/>
      <point x="342" y="256"/>
      <point x="342" y="318" type="curve" smooth="yes"/>
      <point x="342" y="523" type="line"/>
      <point x="353" y="613" type="line"/>
      <point x="337" y="613" type="line"/>
      <point x="337" y="633" type="line" smooth="yes"/>
      <point x="337" y="859"/>
      <point x="414" y="959"/>
      <point x="591" y="959" type="curve" smooth="yes"/>
      <point x="767" y="959"/>
      <point x="845" y="861"/>
      <point x="845" y="640" type="curve" smooth="yes"/>
      <point x="845" y="232" type="line" smooth="yes"/>
      <point x="845" y="-4"/>
      <point x="773" y="-116"/>
      <point x="537" y="-116" type="curve" smooth="yes"/>
      <point x="460" y="-116"/>
      <point x="394" y="-105"/>
      <point x="331" y="-88" type="curve"/>
      <point x="379" y="-329" type="line"/>
      <point x="453" y="-351"/>
      <point x="528" y="-361"/>
      <point x="607" y="-361" type="curve" smooth="yes"/>
      <point x="994" y="-361"/>
      <point x="1145" y="-160"/>
      <point x="1145" y="250" type="curve" smooth="yes"/>
      <point x="1145" y="640" type="line" smooth="yes"/>
      <point x="1145" y="1025"/>
      <point x="966" y="1224"/>
      <point x="602" y="1224" type="curve" smooth="yes"/>
      <point x="236" y="1224"/>
      <point x="59" y="1025"/>
      <point x="59" y="640" type="curve" smooth="yes"/>
      <point x="59" y="329" type="line" smooth="yes"/>
      <point x="59" y="96"/>
      <point x="173" y="-26"/>
      <point x="397" y="-26" type="curve" smooth="yes"/>
      <point x="622" y="-26"/>
      <point x="732" y="96"/>
      <point x="732" y="329" type="curve" smooth="yes"/>
      <point x="732" y="524" type="line" smooth="yes"/>
      <point x="732" y="725"/>
      <point x="670" y="819"/>
      <point x="537" y="819" type="curve" smooth="yes"/>
      <point x="418" y="819"/>
      <point x="357" y="742"/>
    </contour>
  </outline>
</glyph>
<glyph name="ten.mlm" format="2">
  <advance width="1384"/>
  <unicode hex="0D70"/>
  <outline>
    <contour>
      <point x="519" y="-26" type="curve" smooth="yes"/>
      <point x="624" y="-26"/>
      <point x="696" y="55"/>
      <point x="705" y="217" type="curve"/>
      <point x="810" y="217" type="line"/>
      <point x="824" y="521" type="line"/>
      <point x="558" y="550" type="line"/>
      <point x="558" y="383" type="line" smooth="yes"/>
      <point x="558" y="298"/>
      <point x="534" y="261"/>
      <point x="482" y="261" type="curve" smooth="yes"/>
      <point x="430" y="261"/>
      <point x="407" y="298"/>
      <point x="407" y="383" type="curve" smooth="yes"/>
      <point x="407" y="550" type="line"/>
      <point x="140" y="521" type="line"/>
      <point x="155" y="125" type="line"/>
      <point x="359" y="125" type="line"/>
      <point x="377" y="24"/>
      <point x="436" y="-26"/>
    </contour>
    <contour>
      <point x="860" y="443" type="line"/>
      <point x="860" y="1183" type="line"/>
      <point x="558" y="1183" type="line"/>
      <point x="558" y="443" type="line"/>
    </contour>
    <contour>
      <point x="105" y="79" type="line" smooth="yes"/>
      <point x="105" y="-22"/>
      <point x="57" y="-66"/>
      <point x="-50" y="-66" type="curve" smooth="yes"/>
      <point x="-89" y="-66"/>
      <point x="-129" y="-60"/>
      <point x="-166" y="-53" type="curve"/>
      <point x="-118" y="-294" type="line"/>
      <point x="-74" y="-305"/>
      <point x="-26" y="-311"/>
      <point x="18" y="-311" type="curve" smooth="yes"/>
      <point x="239" y="-311"/>
      <point x="351" y="-184"/>
      <point x="351" y="52" type="curve" smooth="yes"/>
      <point x="351" y="140" type="line"/>
      <point x="407" y="193" type="line"/>
      <point x="407" y="1189" type="line"/>
      <point x="105" y="1189" type="line"/>
    </contour>
    <contour>
      <point x="713" y="217" type="line"/>
      <point x="728" y="53"/>
      <point x="827" y="-26"/>
      <point x="996" y="-26" type="curve" smooth="yes"/>
      <point x="1219" y="-26"/>
      <point x="1320" y="108"/>
      <point x="1320" y="390" type="curve" smooth="yes"/>
      <point x="1320" y="760" type="line" smooth="yes"/>
      <point x="1320" y="929"/>
      <point x="1297" y="1077"/>
      <point x="1255" y="1187" type="curve"/>
      <point x="961" y="1187" type="line"/>
      <point x="996" y="1088"/>
      <point x="1018" y="936"/>
      <point x="1018" y="765" type="curve" smooth="yes"/>
      <point x="1018" y="388" type="line" smooth="yes"/>
      <point x="1018" y="298"/>
      <point x="996" y="261"/>
      <point x="939" y="261" type="curve" smooth="yes"/>
      <point x="882" y="261"/>
      <point x="860" y="298"/>
      <point x="860" y="388" type="curve" smooth="yes"/>
      <point x="860" y="546" type="line"/>
      <point x="698" y="546" type="line"/>
    </contour>
  </outline>
</glyph>
<glyph name="onehundred.mlm" format="2">
  <advance width="1365"/>
  <unicode hex="0D71"/>
  <outline>
    <contour>
      <point x="916" y="937" type="curve" smooth="yes"/>
      <point x="975" y="937"/>
      <point x="999" y="896"/>
      <point x="999" y="806" type="curve" smooth="yes"/>
      <point x="999" y="232" type="line" smooth="yes"/>
      <point x="999" y="-4"/>
      <point x="928" y="-116"/>
      <point x="692" y="-116" type="curve" smooth="yes"/>
      <point x="615" y="-116"/>
      <point x="548" y="-105"/>
      <point x="485" y="-88" type="curve"/>
      <point x="533" y="-329" type="line"/>
      <point x="607" y="-351"/>
      <point x="682" y="-361"/>
      <point x="761" y="-361" type="curve" smooth="yes"/>
      <point x="1140" y="-361"/>
      <point x="1301" y="-164"/>
      <point x="1301" y="237" type="curve" smooth="yes"/>
      <point x="1301" y="804" type="line" smooth="yes"/>
      <point x="1301" y="1084"/>
      <point x="1199" y="1224"/>
      <point x="975" y="1224" type="curve" smooth="yes"/>
      <point x="801.211" y="1224"/>
      <point x="713.82" y="1141"/>
      <point x="688" y="983" type="curve"/>
      <point x="662" y="983" type="line"/>
      <point x="680" y="627" type="line"/>
      <point x="833" y="640" type="line"/>
      <point x="833" y="806" type="line" smooth="yes"/>
      <point x="833" y="896"/>
      <point x="857" y="937"/>
    </contour>
    <contour>
      <point x="532" y="754" type="line"/>
      <point x="532" y="4" type="line"/>
      <point x="834" y="4" type="line"/>
      <point x="834" y="754" type="line"/>
    </contour>
    <contour>
      <point x="64" y="804" type="curve" smooth="yes"/>
      <point x="64" y="427" type="line" smooth="yes"/>
      <point x="64" y="258"/>
      <point x="81" y="98"/>
      <point x="125" y="0" type="curve"/>
      <point x="423" y="0" type="line"/>
      <point x="388" y="99"/>
      <point x="366" y="250"/>
      <point x="366" y="421" type="curve" smooth="yes"/>
      <point x="366" y="806" type="line" smooth="yes"/>
      <point x="366" y="896"/>
      <point x="390" y="937"/>
      <point x="449" y="937" type="curve" smooth="yes"/>
      <point x="508" y="937"/>
      <point x="532" y="896"/>
      <point x="532" y="806" type="curve" smooth="yes"/>
      <point x="532" y="640" type="line"/>
      <point x="694" y="640" type="line"/>
      <point x="679" y="970" type="line"/>
      <point x="657" y="1139"/>
      <point x="569" y="1224"/>
      <point x="392" y="1224" type="curve" smooth="yes"/>
      <point x="168" y="1224"/>
      <point x="64" y="1084"/>
    </contour>
  </outline>
</glyph>
<glyph name="onesixteenth.mlm" format="2">
  <advance width="2009"/>
  <unicode hex="0D76"/>
  <outline>
    <contour>
      <point x="532" y="243" type="line"/>
      <point x="532" y="0" type="line"/>
      <point x="1032" y="0" type="line"/>
      <point x="1032" y="243" type="line"/>
    </contour>
    <contour>
      <point x="414" y="826" type="curve" smooth="yes"/>
      <point x="169" y="826"/>
      <point x="52" y="694"/>
      <point x="52" y="442" type="curve" smooth="yes"/>
      <point x="52" y="307" type="line" smooth="yes"/>
      <point x="52" y="186"/>
      <point x="63" y="79"/>
      <point x="85" y="0" type="curve"/>
      <point x="366" y="0" type="line"/>
      <point x="351" y="74"/>
      <point x="339" y="179"/>
      <point x="339" y="302" type="curve" smooth="yes"/>
      <point x="339" y="445" type="line" smooth="yes"/>
      <point x="339" y="528"/>
      <point x="360" y="567"/>
      <point x="412" y="567" type="curve" smooth="yes"/>
      <point x="464" y="567"/>
      <point x="486" y="528"/>
      <point x="486" y="445" type="curve" smooth="yes"/>
      <point x="486" y="302" type="line" smooth="yes"/>
      <point x="486" y="186"/>
      <point x="471" y="85"/>
      <point x="449" y="13" type="curve"/>
      <point x="449" y="0" type="line"/>
      <point x="629" y="0" type="line"/>
      <point x="728" y="98"/>
      <point x="776" y="230"/>
      <point x="776" y="381" type="curve" smooth="yes"/>
      <point x="776" y="442" type="line" smooth="yes"/>
      <point x="776" y="694"/>
      <point x="659" y="826"/>
    </contour>
    <contour>
      <point x="1047" y="232" type="line"/>
      <point x="916" y="0" type="line"/>
      <point x="1899" y="0" type="line"/>
      <point x="1901" y="232" type="line"/>
    </contour>
    <contour>
      <point x="1417" y="968" type="curve" smooth="yes"/>
      <point x="1584" y="968"/>
      <point x="1660" y="874"/>
      <point x="1660" y="677" type="curve" smooth="yes"/>
      <point x="1660" y="0" type="line"/>
      <point x="1939" y="0" type="line"/>
      <point x="1939" y="666" type="line" smooth="yes"/>
      <point x="1939" y="1034"/>
      <point x="1770" y="1224"/>
      <point x="1417" y="1224" type="curve" smooth="yes"/>
      <point x="1064" y="1224"/>
      <point x="896" y="1034"/>
      <point x="896" y="668" type="curve" smooth="yes"/>
      <point x="896" y="0" type="line"/>
      <point x="1172" y="0" type="line"/>
      <point x="1172" y="677" type="line" smooth="yes"/>
      <point x="1172" y="879"/>
      <point x="1242" y="968"/>
    </contour>
    <contour>
      <point x="1569.02" y="632" type="line" smooth="yes"/>
      <point x="1569.02" y="827.897"/>
      <point x="1494.51" y="953"/>
      <point x="1303.02" y="953" type="curve" smooth="yes"/>
      <point x="1260.93" y="953"/>
      <point x="1202.33" y="940.857"/>
      <point x="1158.02" y="919" type="curve"/>
      <point x="1158.02" y="752" type="line"/>
      <point x="1179.21" y="764"/>
      <point x="1197.37" y="767"/>
      <point x="1215.02" y="767" type="curve" smooth="yes"/>
      <point x="1274.64" y="767"/>
      <point x="1292.02" y="713.986"/>
      <point x="1292.02" y="634" type="curve" smooth="yes"/>
      <point x="1292.02" y="620" type="line" smooth="yes"/>
      <point x="1292.02" y="470.985"/>
      <point x="1257.53" y="341.483"/>
      <point x="1192.02" y="230" type="curve"/>
      <point x="1464.02" y="204" type="line"/>
      <point x="1531.95" y="310.383"/>
      <point x="1569.02" y="448.134"/>
      <point x="1569.02" y="618" type="curve" smooth="yes"/>
    </contour>
  </outline>
</glyph>
<glyph name="date.mlm" format="2">
  <advance width="1914"/>
  <unicode hex="0D79"/>
  <outline>
    <contour>
      <point x="532" y="677" type="line"/>
      <point x="532" y="4" type="line"/>
      <point x="834" y="4" type="line"/>
      <point x="834" y="782" type="line"/>
    </contour>
    <contour>
      <point x="449" y="937" type="curve" smooth="yes"/>
      <point x="508" y="937"/>
      <point x="532" y="896"/>
      <point x="532" y="808" type="curve" smooth="yes"/>
      <point x="532" y="640" type="line"/>
      <point x="694" y="640" type="line"/>
      <point x="684" y="968" type="line"/>
      <point x="664" y="1152"/>
      <point x="556" y="1224"/>
      <point x="392" y="1224" type="curve" smooth="yes"/>
      <point x="168" y="1224"/>
      <point x="64" y="1084"/>
      <point x="64" y="804" type="curve" smooth="yes"/>
      <point x="64" y="427" type="line" smooth="yes"/>
      <point x="64" y="258"/>
      <point x="81" y="98"/>
      <point x="125" y="0" type="curve"/>
      <point x="423" y="0" type="line"/>
      <point x="388" y="99"/>
      <point x="366" y="250"/>
      <point x="366" y="421" type="curve" smooth="yes"/>
      <point x="366" y="806" type="line" smooth="yes"/>
      <point x="366" y="896"/>
      <point x="390" y="937"/>
    </contour>
    <contour>
      <point x="1087" y="1224" type="curve" smooth="yes"/>
      <point x="864" y="1224"/>
      <point x="732" y="1139"/>
      <point x="692" y="968" type="curve"/>
      <point x="624" y="968" type="line"/>
      <point x="655" y="598" type="line"/>
      <point x="834" y="598" type="line"/>
      <point x="834" y="712" type="line" smooth="yes"/>
      <point x="834" y="881"/>
      <point x="909" y="959"/>
      <point x="1071" y="959" type="curve" smooth="yes"/>
      <point x="1238" y="959"/>
      <point x="1317" y="874"/>
      <point x="1317" y="664" type="curve" smooth="yes"/>
      <point x="1317" y="318" type="line" smooth="yes"/>
      <point x="1317" y="255"/>
      <point x="1301" y="230"/>
      <point x="1264" y="230" type="curve" smooth="yes"/>
      <point x="1227" y="230"/>
      <point x="1213" y="255"/>
      <point x="1213" y="318" type="curve" smooth="yes"/>
      <point x="1213" y="453" type="line" smooth="yes"/>
      <point x="1213" y="512"/>
      <point x="1233" y="537"/>
      <point x="1281" y="537" type="curve" smooth="yes"/>
      <point x="1857" y="537" type="line"/>
      <point x="1884" y="776" type="line"/>
      <point x="1233" y="776" type="line" smooth="yes"/>
      <point x="1025" y="776"/>
      <point x="927" y="674"/>
      <point x="927" y="451" type="curve" smooth="yes"/>
      <point x="927" y="329" type="line" smooth="yes"/>
      <point x="927" y="95"/>
      <point x="1038" y="-26"/>
      <point x="1262" y="-26" type="curve" smooth="yes"/>
      <point x="1486" y="-26"/>
      <point x="1601" y="95"/>
      <point x="1601" y="329" type="curve" smooth="yes"/>
      <point x="1601" y="648" type="line" smooth="yes"/>
      <point x="1601" y="1027"/>
      <point x="1431" y="1224"/>
    </contour>
  </outline>
</glyph>
<glyph name="chilluNn.mlm" format="2">
  <advance width="2454"/>
  <unicode hex="0D7A"/>
  <outline>
    <contour>
      <point x="832" y="4" type="line"/>
      <point x="1133" y="4" type="line"/>
      <point x="1133" y="782" type="line"/>
      <point x="832" y="677" type="line"/>
    </contour>
    <contour>
      <point x="570" y="1224" type="curve" smooth="yes"/>
      <point x="226" y="1224"/>
      <point x="59" y="1027"/>
      <point x="59" y="648" type="curve" smooth="yes"/>
      <point x="59" y="329" type="line" smooth="yes"/>
      <point x="59" y="95"/>
      <point x="173" y="-26"/>
      <point x="397" y="-26" type="curve" smooth="yes"/>
      <point x="621" y="-26"/>
      <point x="732" y="95"/>
      <point x="732" y="329" type="curve" smooth="yes"/>
      <point x="732" y="524" type="line" smooth="yes"/>
      <point x="732" y="725"/>
      <point x="669" y="819"/>
      <point x="537" y="819" type="curve" smooth="yes"/>
      <point x="417" y="819"/>
      <point x="357" y="742"/>
      <point x="342" y="587" type="curve"/>
      <point x="338" y="506" type="line"/>
      <point x="347" y="537"/>
      <point x="366" y="556"/>
      <point x="397" y="556" type="curve" smooth="yes"/>
      <point x="432" y="556"/>
      <point x="447" y="532"/>
      <point x="447" y="480" type="curve" smooth="yes"/>
      <point x="447" y="318" type="line" smooth="yes"/>
      <point x="447" y="255"/>
      <point x="433" y="230"/>
      <point x="396" y="230" type="curve" smooth="yes"/>
      <point x="359" y="230"/>
      <point x="342" y="255"/>
      <point x="342" y="318" type="curve" smooth="yes"/>
      <point x="342" y="523" type="line"/>
      <point x="353" y="613" type="line"/>
      <point x="337" y="613" type="line"/>
      <point x="337" y="640" type="line" smooth="yes"/>
      <point x="337" y="863"/>
      <point x="416" y="959"/>
      <point x="591" y="959" type="curve" smooth="yes"/>
      <point x="757" y="959"/>
      <point x="832" y="881"/>
      <point x="832" y="712" type="curve" smooth="yes"/>
      <point x="832" y="598" type="line"/>
      <point x="973" y="598" type="line"/>
      <point x="973" y="968" type="line"/>
      <point x="933" y="1139"/>
      <point x="798" y="1224"/>
    </contour>
    <contour>
      <point x="1295" y="754" type="line"/>
      <point x="1295" y="4" type="line"/>
      <point x="1596" y="4" type="line"/>
      <point x="1596" y="754" type="line"/>
    </contour>
    <contour>
      <point x="1446" y="968" type="line"/>
      <point x="1430" y="1150"/>
      <point x="1345" y="1224"/>
      <point x="1214" y="1224" type="curve" smooth="yes"/>
      <point x="1084" y="1224"/>
      <point x="997" y="1150"/>
      <point x="981" y="968" type="curve"/>
      <point x="874" y="968" type="line"/>
      <point x="874" y="653" type="line"/>
      <point x="1133" y="648" type="line"/>
      <point x="1133" y="808" type="line" smooth="yes"/>
      <point x="1133" y="896"/>
      <point x="1157" y="937"/>
      <point x="1214" y="937" type="curve" smooth="yes"/>
      <point x="1271" y="937"/>
      <point x="1295" y="896"/>
      <point x="1295" y="808" type="curve" smooth="yes"/>
      <point x="1295" y="648" type="line"/>
      <point x="1446" y="648" type="line"/>
    </contour>
    <contour>
      <point x="2024" y="1198" type="line"/>
      <point x="1967" y="1215"/>
      <point x="1921" y="1224"/>
      <point x="1851" y="1224" type="curve" smooth="yes"/>
      <point x="1627" y="1224"/>
      <point x="1494" y="1139"/>
      <point x="1454" y="968" type="curve"/>
      <point x="1386" y="968" type="line"/>
      <point x="1417" y="598" type="line"/>
      <point x="1596" y="598" type="line"/>
      <point x="1596" y="712" type="line" smooth="yes"/>
      <point x="1596" y="887"/>
      <point x="1671" y="968"/>
      <point x="1835" y="968" type="curve" smooth="yes"/>
      <point x="1887" y="968"/>
      <point x="1941" y="958"/>
      <point x="1976" y="940" type="curve"/>
      <point x="2019" y="922" type="line"/>
      <point x="2091" y="867"/>
      <point x="2107" y="769"/>
      <point x="2107" y="638" type="curve" smooth="yes"/>
      <point x="2107" y="315" type="line" smooth="yes"/>
      <point x="2107" y="254"/>
      <point x="2091" y="228"/>
      <point x="2052" y="228" type="curve" smooth="yes"/>
      <point x="2013" y="228"/>
      <point x="1997" y="254"/>
      <point x="1997" y="315" type="curve" smooth="yes"/>
      <point x="1997" y="578" type="line" smooth="yes"/>
      <point x="1997" y="723"/>
      <point x="2013" y="836"/>
      <point x="2054" y="937" type="curve"/>
      <point x="2060" y="963"/>
      <point x="2087" y="1076"/>
      <point x="2093" y="1102" type="curve"/>
      <point x="2110" y="1161"/>
      <point x="2118" y="1218"/>
      <point x="2118" y="1282" type="curve" smooth="yes"/>
      <point x="2118" y="1389"/>
      <point x="2096" y="1457"/>
      <point x="2067" y="1529" type="curve"/>
      <point x="1802" y="1529" type="line"/>
      <point x="1838" y="1450"/>
      <point x="1856" y="1365"/>
      <point x="1856" y="1273" type="curve" smooth="yes"/>
      <point x="1856" y="1223"/>
      <point x="1851" y="1185"/>
      <point x="1841" y="1143" type="curve"/>
      <point x="1839" y="1123"/>
      <point x="1828" y="1043"/>
      <point x="1824" y="1019" type="curve"/>
      <point x="1748" y="899"/>
      <point x="1708" y="791"/>
      <point x="1708" y="574" type="curve" smooth="yes"/>
      <point x="1708" y="326" type="line" smooth="yes"/>
      <point x="1708" y="94"/>
      <point x="1820" y="-28"/>
      <point x="2048" y="-28" type="curve" smooth="yes"/>
      <point x="2278" y="-28"/>
      <point x="2396" y="94"/>
      <point x="2396" y="326" type="curve" smooth="yes"/>
      <point x="2396" y="638" type="line" smooth="yes"/>
      <point x="2396" y="885"/>
      <point x="2335" y="1085"/>
      <point x="2092" y="1181" type="curve"/>
    </contour>
  </outline>
</glyph>
<glyph name="chilluRr.mlm" format="2">
  <advance width="1227"/>
  <unicode hex="0D7C"/>
  <outline>
    <contour>
      <point x="480" y="574" type="curve" smooth="yes"/>
      <point x="480" y="326" type="line" smooth="yes"/>
      <point x="480" y="94"/>
      <point x="592" y="-28"/>
      <point x="821" y="-28" type="curve" smooth="yes"/>
      <point x="1052" y="-28"/>
      <point x="1169" y="94"/>
      <point x="1169" y="326" type="curve" smooth="yes"/>
      <point x="1169" y="638" type="line" smooth="yes"/>
      <point x="1169" y="887"/>
      <point x="1105" y="1086"/>
      <point x="861" y="1181" type="curve"/>
      <point x="797" y="1198" type="line" smooth="yes"/>
      <point x="740" y="1214"/>
      <point x="681" y="1224"/>
      <point x="611" y="1224" type="curve" smooth="yes"/>
      <point x="245" y="1224"/>
      <point x="62" y="1025"/>
      <point x="62" y="638" type="curve" smooth="yes"/>
      <point x="62" y="427" type="line" smooth="yes"/>
      <point x="62" y="258"/>
      <point x="81" y="98"/>
      <point x="127" y="0" type="curve"/>
      <point x="427" y="0" type="line"/>
      <point x="388" y="99"/>
      <point x="362" y="250"/>
      <point x="362" y="421" type="curve" smooth="yes"/>
      <point x="362" y="638" type="line" smooth="yes"/>
      <point x="362" y="868"/>
      <point x="442" y="968"/>
      <point x="620" y="968" type="curve" smooth="yes"/>
      <point x="672" y="968"/>
      <point x="714" y="959"/>
      <point x="749" y="940" type="curve"/>
      <point x="791" y="922" type="line"/>
      <point x="863" y="867"/>
      <point x="880" y="769"/>
      <point x="880" y="638" type="curve" smooth="yes"/>
      <point x="880" y="315" type="line" smooth="yes"/>
      <point x="880" y="254"/>
      <point x="863" y="228"/>
      <point x="824" y="228" type="curve" smooth="yes"/>
      <point x="786" y="228"/>
      <point x="769" y="254"/>
      <point x="769" y="315" type="curve" smooth="yes"/>
      <point x="769" y="578" type="line" smooth="yes"/>
      <point x="769" y="723"/>
      <point x="788" y="835"/>
      <point x="827" y="937" type="curve"/>
      <point x="832" y="962"/>
      <point x="860" y="1076"/>
      <point x="866" y="1102" type="curve"/>
      <point x="883" y="1161"/>
      <point x="890" y="1218"/>
      <point x="890" y="1282" type="curve" smooth="yes"/>
      <point x="890" y="1389"/>
      <point x="868" y="1457"/>
      <point x="839" y="1529" type="curve"/>
      <point x="574" y="1529" type="line"/>
      <point x="610" y="1450"/>
      <point x="629" y="1365"/>
      <point x="629" y="1273" type="curve" smooth="yes"/>
      <point x="629" y="1224"/>
      <point x="623" y="1185"/>
      <point x="614" y="1143" type="curve"/>
      <point x="612" y="1122"/>
      <point x="601" y="1043"/>
      <point x="597" y="1019" type="curve"/>
      <point x="521" y="900"/>
      <point x="480" y="791"/>
    </contour>
  </outline>
</glyph>
<glyph name="chilluL.mlm" format="2">
  <advance width="2004"/>
  <unicode hex="0D7D"/>
  <outline>
    <contour>
      <point x="1657" y="616" type="curve" smooth="yes"/>
      <point x="1657" y="315" type="line" smooth="yes"/>
      <point x="1657" y="254"/>
      <point x="1640" y="228"/>
      <point x="1602" y="228" type="curve" smooth="yes"/>
      <point x="1563" y="228"/>
      <point x="1547" y="254"/>
      <point x="1547" y="315" type="curve" smooth="yes"/>
      <point x="1547" y="578" type="line" smooth="yes"/>
      <point x="1547" y="723"/>
      <point x="1569" y="833"/>
      <point x="1604" y="937" type="curve" smooth="yes"/>
      <point x="1608" y="949"/>
      <point x="1656" y="1090"/>
      <point x="1660" y="1102" type="curve" smooth="yes"/>
      <point x="1680" y="1160"/>
      <point x="1684" y="1218"/>
      <point x="1684" y="1282" type="curve" smooth="yes"/>
      <point x="1684" y="1389"/>
      <point x="1662" y="1457"/>
      <point x="1633" y="1529" type="curve"/>
      <point x="1368" y="1529" type="line"/>
      <point x="1404" y="1450"/>
      <point x="1423" y="1365"/>
      <point x="1423" y="1273" type="curve" smooth="yes"/>
      <point x="1423" y="1224"/>
      <point x="1417" y="1185"/>
      <point x="1408" y="1143" type="curve"/>
      <point x="1405" y="1133"/>
      <point x="1377" y="1030"/>
      <point x="1374" y="1019" type="curve"/>
      <point x="1299" y="900"/>
      <point x="1258" y="791"/>
      <point x="1258" y="574" type="curve" smooth="yes"/>
      <point x="1258" y="326" type="line" smooth="yes"/>
      <point x="1258" y="94"/>
      <point x="1370" y="-28"/>
      <point x="1598" y="-28" type="curve" smooth="yes"/>
      <point x="1828" y="-28"/>
      <point x="1946" y="94"/>
      <point x="1946" y="326" type="curve" smooth="yes"/>
      <point x="1946" y="607" type="line" smooth="yes"/>
      <point x="1946" y="880"/>
      <point x="1847" y="1052"/>
      <point x="1631" y="1144" type="curve"/>
      <point x="1523" y="1178" type="line" smooth="yes"/>
      <point x="1436" y="1207"/>
      <point x="1333" y="1222"/>
      <point x="1212" y="1222" type="curve" smooth="yes"/>
      <point x="998" y="1222"/>
      <point x="883" y="1174"/>
      <point x="780" y="1102" type="curve"/>
      <point x="692" y="1030" type="line"/>
      <point x="530" y="937"/>
      <point x="480" y="808"/>
      <point x="480" y="607" type="curve" smooth="yes"/>
      <point x="480" y="328" type="line" smooth="yes"/>
      <point x="480" y="96"/>
      <point x="598" y="-26"/>
      <point x="832" y="-26" type="curve" smooth="yes"/>
      <point x="1065" y="-26"/>
      <point x="1184" y="96"/>
      <point x="1184" y="328" type="curve" smooth="yes"/>
      <point x="1184" y="626" type="line" smooth="yes"/>
      <point x="1184" y="811"/>
      <point x="1137" y="929"/>
      <point x="990" y="1018" type="curve"/>
      <point x="883" y="1093" type="line"/>
      <point x="837" y="1154"/>
      <point x="716" y="1222"/>
      <point x="532" y="1222" type="curve" smooth="yes"/>
      <point x="206" y="1222"/>
      <point x="62" y="1043"/>
      <point x="62" y="668" type="curve" smooth="yes"/>
      <point x="62" y="427" type="line" smooth="yes"/>
      <point x="62" y="258"/>
      <point x="81" y="98"/>
      <point x="127" y="0" type="curve"/>
      <point x="427" y="0" type="line"/>
      <point x="388" y="99"/>
      <point x="362" y="250"/>
      <point x="362" y="421" type="curve" smooth="yes"/>
      <point x="362" y="672" type="line" smooth="yes"/>
      <point x="362" y="889"/>
      <point x="429" y="983"/>
      <point x="580" y="983" type="curve" smooth="yes"/>
      <point x="627" y="983"/>
      <point x="664" y="972"/>
      <point x="701" y="951" type="curve"/>
      <point x="800" y="911" type="line"/>
      <point x="878" y="857"/>
      <point x="891" y="765"/>
      <point x="891" y="635" type="curve" smooth="yes"/>
      <point x="891" y="324" type="line" smooth="yes"/>
      <point x="891" y="259"/>
      <point x="872" y="232"/>
      <point x="832" y="232" type="curve" smooth="yes"/>
      <point x="791" y="232"/>
      <point x="773" y="259"/>
      <point x="773" y="324" type="curve" smooth="yes"/>
      <point x="773" y="616" type="line" smooth="yes"/>
      <point x="773" y="754"/>
      <point x="788" y="850"/>
      <point x="881" y="907" type="curve"/>
      <point x="994" y="948" type="line" smooth="yes"/>
      <point x="1060" y="972"/>
      <point x="1127" y="983"/>
      <point x="1208" y="983" type="curve" smooth="yes"/>
      <point x="1307" y="983"/>
      <point x="1394" y="970"/>
      <point x="1449" y="944" type="curve"/>
      <point x="1554" y="916" type="line"/>
      <point x="1640" y="854"/>
      <point x="1657" y="758"/>
    </contour>
  </outline>
</glyph>
<glyph name="chilluLl.mlm" format="2">
  <advance width="1644"/>
  <unicode hex="0D7E"/>
  <outline>
    <contour>
      <point x="1214" y="1200" type="line"/>
      <point x="1157" y="1217"/>
      <point x="1097" y="1224"/>
      <point x="1027" y="1224" type="curve" smooth="yes"/>
      <point x="663" y="1224"/>
      <point x="491" y="1042"/>
      <point x="491" y="670" type="curve" smooth="yes"/>
      <point x="491" y="576"/>
      <point x="502" y="457"/>
      <point x="502" y="361" type="curve" smooth="yes"/>
      <point x="502" y="280"/>
      <point x="484" y="248"/>
      <point x="434" y="248" type="curve" smooth="yes"/>
      <point x="384" y="248"/>
      <point x="366" y="280"/>
      <point x="366" y="361" type="curve" smooth="yes"/>
      <point x="366" y="765" type="line" smooth="yes"/>
      <point x="366" y="936"/>
      <point x="388" y="1088"/>
      <point x="423" y="1187" type="curve"/>
      <point x="129" y="1187" type="line"/>
      <point x="81" y="1077"/>
      <point x="64" y="929"/>
      <point x="64" y="760" type="curve" smooth="yes"/>
      <point x="64" y="364" type="line" smooth="yes"/>
      <point x="64" y="101"/>
      <point x="186" y="-28"/>
      <point x="434" y="-28" type="curve" smooth="yes"/>
      <point x="682" y="-28"/>
      <point x="804" y="101"/>
      <point x="804" y="364" type="curve" smooth="yes"/>
      <point x="804" y="458"/>
      <point x="793" y="576"/>
      <point x="793" y="664" type="curve" smooth="yes"/>
      <point x="793" y="879"/>
      <point x="865" y="968"/>
      <point x="1038" y="968" type="curve" smooth="yes"/>
      <point x="1090" y="968"/>
      <point x="1132" y="958"/>
      <point x="1167" y="940" type="curve"/>
      <point x="1209" y="922" type="line"/>
      <point x="1281" y="867"/>
      <point x="1297" y="769"/>
      <point x="1297" y="638" type="curve" smooth="yes"/>
      <point x="1297" y="315" type="line" smooth="yes"/>
      <point x="1297" y="254"/>
      <point x="1281" y="228"/>
      <point x="1242" y="228" type="curve" smooth="yes"/>
      <point x="1203" y="228"/>
      <point x="1187" y="254"/>
      <point x="1187" y="315" type="curve" smooth="yes"/>
      <point x="1187" y="578" type="line" smooth="yes"/>
      <point x="1187" y="723"/>
      <point x="1205" y="836"/>
      <point x="1245" y="937" type="curve"/>
      <point x="1254" y="963"/>
      <point x="1291" y="1075"/>
      <point x="1300" y="1102" type="curve" smooth="yes"/>
      <point x="1319" y="1160"/>
      <point x="1324" y="1218"/>
      <point x="1324" y="1282" type="curve" smooth="yes"/>
      <point x="1324" y="1389"/>
      <point x="1302" y="1457"/>
      <point x="1273" y="1529" type="curve"/>
      <point x="1008" y="1529" type="line"/>
      <point x="1044" y="1450"/>
      <point x="1063" y="1365"/>
      <point x="1063" y="1273" type="curve" smooth="yes"/>
      <point x="1063" y="1223"/>
      <point x="1059" y="1185"/>
      <point x="1048" y="1143" type="curve"/>
      <point x="1042" y="1123"/>
      <point x="1021" y="1043"/>
      <point x="1015" y="1019" type="curve"/>
      <point x="938" y="899"/>
      <point x="898" y="791"/>
      <point x="898" y="574" type="curve" smooth="yes"/>
      <point x="898" y="326" type="line" smooth="yes"/>
      <point x="898" y="94"/>
      <point x="1010" y="-28"/>
      <point x="1238" y="-28" type="curve" smooth="yes"/>
      <point x="1468" y="-28"/>
      <point x="1586" y="94"/>
      <point x="1586" y="326" type="curve" smooth="yes"/>
      <point x="1586" y="638" type="line" smooth="yes"/>
      <point x="1586" y="879"/>
      <point x="1522" y="1089"/>
      <point x="1281" y="1183" type="curve"/>
    </contour>
  </outline>
</glyph>
<glyph name="quoteright" format="2">
  <advance width="420"/>
  <unicode hex="2019"/>
  <outline>
    <contour>
      <point x="81" y="1324" type="line"/>
      <point x="85" y="1271"/>
      <point x="87" y="1239"/>
      <point x="87" y="1193" type="curve" smooth="yes"/>
      <point x="87" y="1063"/>
      <point x="61" y="952"/>
      <point x="22" y="857" type="curve"/>
      <point x="227" y="807" type="line"/>
      <point x="326" y="925"/>
      <point x="372" y="1061"/>
      <point x="372" y="1217" type="curve" smooth="yes"/>
      <point x="372" y="1263"/>
      <point x="368" y="1296"/>
      <point x="363" y="1324" type="curve"/>
    </contour>
  </outline>
</glyph>
<glyph name="BaBa.mlm" format="2">
  <advance width="2116"/>
  <outline>
    <component base="Ba.mlm"/>
    <contour>
      <point x="1777" y="221" type="line"/>
      <point x="1777" y="-453" type="line"/>
      <point x="2042" y="-453" type="line"/>
      <point x="2042" y="221" type="line"/>
    </contour>
    <contour>
      <point x="1497" y="-248" type="line"/>
      <point x="1588" y="-169"/>
      <point x="1641" y="-94"/>
      <point x="1664" y="13" type="curve"/>
      <point x="1399" y="55" type="line"/>
      <point x="1388" y="-76"/>
      <point x="1280" y="-168"/>
      <point x="1129" y="-254" type="curve"/>
      <point x="1153" y="-453" type="line"/>
      <point x="1986" y="-453" type="line"/>
      <point x="1986" y="-248" type="line"/>
    </contour>
  </outline>
</glyph>
<glyph name="BaDha.mlm" format="2">
  <advance width="2116"/>
  <outline>
    <contour>
      <point x="1428" y="-514" type="curve" smooth="yes"/>
      <point x="1528" y="-514"/>
      <point x="1602" y="-475"/>
      <point x="1621" y="-386" type="curve"/>
      <point x="1701" y="-239" type="line"/>
      <point x="1526" y="-227" type="line"/>
      <point x="1526" y="-253" type="line" smooth="yes"/>
      <point x="1526" y="-323"/>
      <point x="1507" y="-348"/>
      <point x="1459" y="-348" type="curve" smooth="yes"/>
      <point x="1409" y="-348"/>
      <point x="1390" y="-323"/>
      <point x="1390" y="-253" type="curve" smooth="yes"/>
      <point x="1390" y="-179" type="line" smooth="yes"/>
      <point x="1390" y="-106"/>
      <point x="1400" y="-45"/>
      <point x="1442" y="4" type="curve" smooth="yes"/>
      <point x="1557" y="138" type="line"/>
      <point x="1586" y="230"/>
      <point x="1605" y="339"/>
      <point x="1605" y="451" type="curve" smooth="yes"/>
      <point x="1605" y="804" type="line" smooth="yes"/>
      <point x="1605" y="1087"/>
      <point x="1501" y="1224"/>
      <point x="1271" y="1224" type="curve" smooth="yes"/>
      <point x="1106" y="1224"/>
      <point x="1001" y="1152"/>
      <point x="981" y="968" type="curve"/>
      <point x="874" y="968" type="line"/>
      <point x="874" y="651" type="line"/>
      <point x="1133" y="651" type="line"/>
      <point x="1133" y="808" type="line" smooth="yes"/>
      <point x="1133" y="896"/>
      <point x="1157" y="937"/>
      <point x="1218" y="937" type="curve" smooth="yes"/>
      <point x="1279" y="937"/>
      <point x="1303" y="896"/>
      <point x="1303" y="806" type="curve" smooth="yes"/>
      <point x="1303" y="421" type="line" smooth="yes"/>
      <point x="1303" y="273"/>
      <point x="1289" y="138"/>
      <point x="1257" y="37" type="curve"/>
      <point x="1210" y="-21"/>
      <point x="1193" y="-74"/>
      <point x="1193" y="-181" type="curve" smooth="yes"/>
      <point x="1193" y="-265" type="line" smooth="yes"/>
      <point x="1193" y="-432"/>
      <point x="1271" y="-514"/>
    </contour>
    <contour>
      <point x="1821" y="-514" type="curve" smooth="yes"/>
      <point x="1978" y="-514"/>
      <point x="2056" y="-432"/>
      <point x="2056" y="-265" type="curve" smooth="yes"/>
      <point x="2056" y="-181" type="line" smooth="yes"/>
      <point x="2056" y="-84"/>
      <point x="2041" y="-31"/>
      <point x="2003" y="22" type="curve"/>
      <point x="1815" y="4" type="line"/>
      <point x="1850" y="-45"/>
      <point x="1859" y="-106"/>
      <point x="1859" y="-179" type="curve" smooth="yes"/>
      <point x="1859" y="-253" type="line" smooth="yes"/>
      <point x="1859" y="-323"/>
      <point x="1839" y="-348"/>
      <point x="1790" y="-348" type="curve" smooth="yes"/>
      <point x="1742" y="-348"/>
      <point x="1723" y="-323"/>
      <point x="1723" y="-253" type="curve" smooth="yes"/>
      <point x="1723" y="-227" type="line"/>
      <point x="1549" y="-239" type="line"/>
      <point x="1601" y="-386" type="line"/>
      <point x="1627" y="-386" type="line"/>
      <point x="1646" y="-475"/>
      <point x="1720" y="-514"/>
    </contour>
    <contour>
      <point x="1485" y="239" type="line"/>
      <point x="1249" y="0" type="line"/>
      <point x="1999" y="0" type="line"/>
      <point x="1998" y="239" type="line"/>
    </contour>
    <contour>
      <point x="1740" y="1189" type="line"/>
      <point x="1740" y="0" type="line"/>
      <point x="2042" y="0" type="line"/>
      <point x="2042" y="1189" type="line"/>
    </contour>
    <contour>
      <point x="1723" y="-306" type="line"/>
      <point x="1723" y="55" type="line"/>
      <point x="1526" y="55" type="line"/>
      <point x="1526" y="-306" type="line"/>
    </contour>
    <contour>
      <point x="832" y="4" type="line"/>
      <point x="1133" y="4" type="line"/>
      <point x="1133" y="782" type="line"/>
      <point x="832" y="677" type="line"/>
    </contour>
    <contour>
      <point x="570" y="1224" type="curve" smooth="yes"/>
      <point x="226" y="1224"/>
      <point x="59" y="1027"/>
      <point x="59" y="648" type="curve" smooth="yes"/>
      <point x="59" y="329" type="line" smooth="yes"/>
      <point x="59" y="95"/>
      <point x="173" y="-26"/>
      <point x="397" y="-26" type="curve" smooth="yes"/>
      <point x="621" y="-26"/>
      <point x="732" y="95"/>
      <point x="732" y="329" type="curve" smooth="yes"/>
      <point x="732" y="524" type="line" smooth="yes"/>
      <point x="732" y="725"/>
      <point x="669" y="819"/>
      <point x="537" y="819" type="curve" smooth="yes"/>
      <point x="417" y="819"/>
      <point x="357" y="742"/>
      <point x="342" y="587" type="curve"/>
      <point x="338" y="506" type="line"/>
      <point x="347" y="537"/>
      <point x="366" y="556"/>
      <point x="397" y="556" type="curve" smooth="yes"/>
      <point x="432" y="556"/>
      <point x="447" y="532"/>
      <point x="447" y="480" type="curve" smooth="yes"/>
      <point x="447" y="318" type="line" smooth="yes"/>
      <point x="447" y="255"/>
      <point x="433" y="230"/>
      <point x="396" y="230" type="curve" smooth="yes"/>
      <point x="359" y="230"/>
      <point x="342" y="255"/>
      <point x="342" y="318" type="curve" smooth="yes"/>
      <point x="342" y="523" type="line"/>
      <point x="353" y="613" type="line"/>
      <point x="337" y="613" type="line"/>
      <point x="337" y="640" type="line" smooth="yes"/>
      <point x="337" y="863"/>
      <point x="416" y="959"/>
      <point x="591" y="959" type="curve" smooth="yes"/>
      <point x="757" y="959"/>
      <point x="832" y="881"/>
      <point x="832" y="712" type="curve" smooth="yes"/>
      <point x="832" y="598" type="line"/>
      <point x="973" y="598" type="line"/>
      <point x="973" y="968" type="line"/>
      <point x="933" y="1139"/>
      <point x="798" y="1224"/>
    </contour>
  </outline>
</glyph>
<glyph name="CaCa.mlm" format="2">
  <advance width="1329"/>
  <outline>
    <component base="Ca.mlm"/>
    <contour>
      <point x="990" y="221" type="line"/>
      <point x="990" y="-453" type="line"/>
      <point x="1255" y="-453" type="line"/>
      <point x="1255" y="221" type="line"/>
    </contour>
    <contour>
      <point x="710" y="-248" type="line"/>
      <point x="801" y="-169"/>
      <point x="854" y="-94"/>
      <point x="877" y="13" type="curve"/>
      <point x="612" y="55" type="line"/>
      <point x="601" y="-76"/>
      <point x="493" y="-168"/>
      <point x="342" y="-254" type="curve"/>
      <point x="366" y="-453" type="line"/>
      <point x="1199" y="-453" type="line"/>
      <point x="1199" y="-248" type="line"/>
    </contour>
  </outline>
</glyph>
<glyph name="CaCha.mlm" format="2">
  <advance width="1329"/>
  <outline>
    <component base="Ca.mlm"/>
    <contour>
      <point x="22" y="-370" type="line"/>
      <point x="47" y="-503" type="line"/>
      <point x="732" y="-503" type="line"/>
      <point x="730" y="-370" type="line"/>
    </contour>
    <contour>
      <point x="293" y="-388" type="curve"/>
      <point x="455" y="-399" type="line"/>
      <point x="492" y="-356"/>
      <point x="510" y="-306"/>
      <point x="510" y="-251" type="curve" smooth="yes"/>
      <point x="510" y="-238" type="line" smooth="yes"/>
      <point x="510" y="-121"/>
      <point x="434" y="-60"/>
      <point x="293" y="-60" type="curve" smooth="yes"/>
      <point x="152" y="-60"/>
      <point x="83" y="-117"/>
      <point x="83" y="-223" type="curve" smooth="yes"/>
      <point x="83" y="-233" type="line" smooth="yes"/>
      <point x="83" y="-263"/>
      <point x="89" y="-292"/>
      <point x="98" y="-310" type="curve"/>
      <point x="257" y="-310" type="line"/>
      <point x="252" y="-294"/>
      <point x="250" y="-280"/>
      <point x="250" y="-263" type="curve" smooth="yes"/>
      <point x="250" y="-255" type="line" smooth="yes"/>
      <point x="250" y="-220"/>
      <point x="262" y="-201"/>
      <point x="292" y="-201" type="curve" smooth="yes"/>
      <point x="322" y="-201"/>
      <point x="335" y="-220"/>
      <point x="335" y="-255" type="curve" smooth="yes"/>
      <point x="335" y="-264" type="line" smooth="yes"/>
      <point x="335" y="-308"/>
      <point x="322" y="-349"/>
    </contour>
    <contour>
      <point x="916" y="77" type="curve" smooth="yes"/>
      <point x="688" y="77"/>
      <point x="582" y="-28"/>
      <point x="582" y="-224" type="curve" smooth="yes"/>
      <point x="582" y="-291" type="line" smooth="yes"/>
      <point x="582" y="-373"/>
      <point x="613" y="-454"/>
      <point x="659" y="-503" type="curve"/>
      <point x="796" y="-503" type="line"/>
      <point x="796" y="-486" type="line"/>
      <point x="773" y="-444"/>
      <point x="760" y="-382"/>
      <point x="760" y="-321" type="curve" smooth="yes"/>
      <point x="760" y="-234" type="line" smooth="yes"/>
      <point x="760" y="-110"/>
      <point x="814" y="-51"/>
      <point x="923" y="-51" type="curve" smooth="yes"/>
      <point x="1029.59" y="-51"/>
      <point x="1085" y="-107.38"/>
      <point x="1085" y="-216" type="curve"/>
      <point x="1071" y="-216" type="line"/>
      <point x="1079" y="-250" type="line"/>
      <point x="1079" y="-322" type="line" smooth="yes"/>
      <point x="1079" y="-356"/>
      <point x="1067" y="-376"/>
      <point x="1040" y="-376" type="curve" smooth="yes"/>
      <point x="1013" y="-376"/>
      <point x="1000" y="-356"/>
      <point x="1000" y="-324" type="curve" smooth="yes"/>
      <point x="1000" y="-304" type="line" smooth="yes"/>
      <point x="1000" y="-270"/>
      <point x="1012" y="-253"/>
      <point x="1038" y="-253" type="curve" smooth="yes"/>
      <point x="1060" y="-253"/>
      <point x="1076" y="-267"/>
      <point x="1081" y="-285" type="curve"/>
      <point x="1081" y="-228" type="line"/>
      <point x="1069" y="-152"/>
      <point x="1027" y="-113"/>
      <point x="957" y="-113" type="curve" smooth="yes"/>
      <point x="872" y="-113"/>
      <point x="827" y="-171"/>
      <point x="827" y="-281" type="curve" smooth="yes"/>
      <point x="827" y="-326" type="line" smooth="yes"/>
      <point x="827" y="-450"/>
      <point x="899" y="-515"/>
      <point x="1040" y="-515" type="curve" smooth="yes"/>
      <point x="1180" y="-515"/>
      <point x="1253" y="-446"/>
      <point x="1253" y="-310" type="curve" smooth="yes"/>
      <point x="1253" y="-219" type="line" smooth="yes"/>
      <point x="1253" y="-35"/>
      <point x="1145" y="77"/>
    </contour>
  </outline>
</glyph>
<glyph name="GaDa.mlm" format="2">
  <advance width="1380"/>
  <outline>
    <contour>
      <point x="918" y="1224" type="curve" smooth="yes"/>
      <point x="635" y="1224"/>
      <point x="495" y="1080"/>
      <point x="495" y="811" type="curve" smooth="yes"/>
      <point x="495" y="653"/>
      <point x="513" y="522"/>
      <point x="513" y="366" type="curve" smooth="yes"/>
      <point x="513" y="281"/>
      <point x="493" y="248"/>
      <point x="440" y="248" type="curve" smooth="yes"/>
      <point x="387" y="248"/>
      <point x="366" y="281"/>
      <point x="366" y="366" type="curve" smooth="yes"/>
      <point x="366" y="765" type="line" smooth="yes"/>
      <point x="366" y="936"/>
      <point x="388" y="1088"/>
      <point x="423" y="1187" type="curve"/>
      <point x="129" y="1187" type="line"/>
      <point x="81" y="1077"/>
      <point x="64" y="929"/>
      <point x="64" y="760" type="curve" smooth="yes"/>
      <point x="64" y="370" type="line" smooth="yes"/>
      <point x="64" y="103"/>
      <point x="188" y="-28"/>
      <point x="440" y="-28" type="curve" smooth="yes"/>
      <point x="692" y="-28"/>
      <point x="815" y="103"/>
      <point x="815" y="370" type="curve" smooth="yes"/>
      <point x="815" y="528"/>
      <point x="797" y="659"/>
      <point x="797" y="815" type="curve" smooth="yes"/>
      <point x="797" y="909"/>
      <point x="830" y="953"/>
      <point x="911" y="953" type="curve" smooth="yes"/>
      <point x="988" y="953"/>
      <point x="1021" y="913"/>
      <point x="1021" y="832" type="curve" smooth="yes"/>
      <point x="1021" y="816" type="line" smooth="yes"/>
      <point x="1021" y="759"/>
      <point x="996" y="728"/>
      <point x="935" y="724" type="curve" smooth="yes"/>
      <point x="891" y="721" type="line"/>
      <point x="891" y="475" type="line"/>
      <point x="942" y="472" type="line" smooth="yes"/>
      <point x="1005" y="468"/>
      <point x="1030" y="433"/>
      <point x="1030" y="369" type="curve" smooth="yes"/>
      <point x="1030" y="351" type="line" smooth="yes"/>
      <point x="1030" y="277"/>
      <point x="1000" y="241"/>
      <point x="926" y="241" type="curve" smooth="yes"/>
      <point x="898" y="241"/>
      <point x="880" y="242"/>
      <point x="856" y="248" type="curve"/>
      <point x="883" y="2" type="line"/>
      <point x="929" y="-7"/>
      <point x="975" y="-13"/>
      <point x="1027" y="-13" type="curve" smooth="yes"/>
      <point x="1233" y="-13"/>
      <point x="1334" y="92"/>
      <point x="1334" y="293" type="curve" smooth="yes"/>
      <point x="1334" y="329" type="line" smooth="yes"/>
      <point x="1334" y="494"/>
      <point x="1267" y="582"/>
      <point x="1125" y="600" type="curve"/>
      <point x="1125" y="607" type="line"/>
      <point x="1262" y="631"/>
      <point x="1323" y="717"/>
      <point x="1323" y="856" type="curve" smooth="yes"/>
      <point x="1323" y="863" type="line" smooth="yes"/>
      <point x="1323" y="1097"/>
      <point x="1181" y="1224"/>
    </contour>
  </outline>
</glyph>
<glyph name="GaDaDha.mlm" format="2">
  <advance width="2246"/>
  <outline>
    <contour>
      <point x="1722" y="440" type="line"/>
      <point x="1722" y="1183" type="line"/>
      <point x="1420" y="1183" type="line"/>
      <point x="1420" y="440" type="line"/>
    </contour>
    <contour>
      <point x="1420" y="546" type="line"/>
      <point x="1420" y="388" type="line" smooth="yes"/>
      <point x="1420" y="285"/>
      <point x="1398" y="243"/>
      <point x="1341" y="243" type="curve" smooth="yes"/>
      <point x="1056" y="243" type="line"/>
      <point x="966" y="0" type="line"/>
      <point x="1284" y="0" type="line" smooth="yes"/>
      <point x="1453" y="0"/>
      <point x="1551" y="72"/>
      <point x="1566" y="217" type="curve"/>
      <point x="1673" y="217" type="line"/>
      <point x="1687" y="517" type="line"/>
    </contour>
    <contour>
      <point x="1328" y="375" type="line" smooth="yes"/>
      <point x="1328" y="512"/>
      <point x="1263" y="585"/>
      <point x="1125" y="600" type="curve"/>
      <point x="1125" y="607" type="line"/>
      <point x="1262" y="631"/>
      <point x="1323" y="717"/>
      <point x="1323" y="856" type="curve" smooth="yes"/>
      <point x="1323" y="863" type="line" smooth="yes"/>
      <point x="1323" y="1097"/>
      <point x="1181" y="1224"/>
      <point x="918" y="1224" type="curve" smooth="yes"/>
      <point x="635" y="1224"/>
      <point x="495" y="1080"/>
      <point x="495" y="811" type="curve" smooth="yes"/>
      <point x="495" y="653"/>
      <point x="513" y="522"/>
      <point x="513" y="366" type="curve" smooth="yes"/>
      <point x="513" y="281"/>
      <point x="493" y="248"/>
      <point x="440" y="248" type="curve" smooth="yes"/>
      <point x="387" y="248"/>
      <point x="366" y="281"/>
      <point x="366" y="366" type="curve" smooth="yes"/>
      <point x="366" y="765" type="line" smooth="yes"/>
      <point x="366" y="936"/>
      <point x="388" y="1088"/>
      <point x="423" y="1187" type="curve"/>
      <point x="129" y="1187" type="line"/>
      <point x="81" y="1077"/>
      <point x="64" y="929"/>
      <point x="64" y="760" type="curve" smooth="yes"/>
      <point x="64" y="370" type="line" smooth="yes"/>
      <point x="64" y="103"/>
      <point x="188" y="-28"/>
      <point x="440" y="-28" type="curve" smooth="yes"/>
      <point x="692" y="-28"/>
      <point x="815" y="103"/>
      <point x="815" y="370" type="curve" smooth="yes"/>
      <point x="815" y="528"/>
      <point x="797" y="659"/>
      <point x="797" y="815" type="curve" smooth="yes"/>
      <point x="797" y="909"/>
      <point x="830" y="953"/>
      <point x="911" y="953" type="curve" smooth="yes"/>
      <point x="988" y="953"/>
      <point x="1021" y="913"/>
      <point x="1021" y="832" type="curve" smooth="yes"/>
      <point x="1021" y="816" type="line" smooth="yes"/>
      <point x="1021" y="759"/>
      <point x="996" y="728"/>
      <point x="935" y="724" type="curve" smooth="yes"/>
      <point x="891" y="721" type="line"/>
      <point x="891" y="475" type="line"/>
      <point x="942" y="472" type="line" smooth="yes"/>
      <point x="1005" y="468"/>
      <point x="1030" y="433"/>
      <point x="1030" y="369" type="curve" smooth="yes"/>
      <point x="1030" y="342" type="line" smooth="yes"/>
      <point x="1030" y="274"/>
      <point x="1005" y="245"/>
      <point x="942" y="241" type="curve" smooth="yes"/>
      <point x="861" y="237" type="line"/>
      <point x="889" y="0" type="line"/>
      <point x="1003" y="0" type="line"/>
      <point x="1065" y="166" type="line"/>
      <point x="1240" y="166"/>
      <point x="1328" y="234"/>
      <point x="1328" y="366" type="curve" smooth="yes"/>
    </contour>
    <contour>
      <point x="1576" y="217" type="line"/>
      <point x="1591" y="53"/>
      <point x="1689" y="-26"/>
      <point x="1858" y="-26" type="curve" smooth="yes"/>
      <point x="2081" y="-26"/>
      <point x="2182" y="108"/>
      <point x="2182" y="390" type="curve" smooth="yes"/>
      <point x="2182" y="760" type="line" smooth="yes"/>
      <point x="2182" y="929"/>
      <point x="2160" y="1077"/>
      <point x="2118" y="1187" type="curve"/>
      <point x="1823" y="1187" type="line"/>
      <point x="1858" y="1088"/>
      <point x="1880" y="936"/>
      <point x="1880" y="765" type="curve" smooth="yes"/>
      <point x="1880" y="388" type="line" smooth="yes"/>
      <point x="1880" y="298"/>
      <point x="1858" y="261"/>
      <point x="1801" y="261" type="curve" smooth="yes"/>
      <point x="1744" y="261"/>
      <point x="1722" y="298"/>
      <point x="1722" y="388" type="curve" smooth="yes"/>
      <point x="1722" y="546" type="line"/>
      <point x="1560" y="546" type="line"/>
    </contour>
  </outline>
</glyph>
<glyph name="GaGa.mlm" format="2">
  <advance width="1314"/>
  <outline>
    <component base="Ga.mlm"/>
    <contour>
      <point x="842" y="-200" type="line" smooth="yes"/>
      <point x="842" y="-130"/>
      <point x="865" y="-98"/>
      <point x="920" y="-98" type="curve" smooth="yes"/>
      <point x="975" y="-98"/>
      <point x="998" y="-130"/>
      <point x="998" y="-200" type="curve" smooth="yes"/>
      <point x="998" y="-273" type="line" smooth="yes"/>
      <point x="998" y="-356"/>
      <point x="980" y="-430"/>
      <point x="944" y="-497" type="curve"/>
      <point x="1150" y="-497" type="line"/>
      <point x="1186" y="-432"/>
      <point x="1197" y="-361"/>
      <point x="1197" y="-272" type="curve" smooth="yes"/>
      <point x="1197" y="-188" type="line" smooth="yes"/>
      <point x="1197" y="-13"/>
      <point x="1106" y="68"/>
      <point x="920" y="68" type="curve" smooth="yes"/>
      <point x="732" y="68"/>
      <point x="643" y="-13"/>
      <point x="643" y="-188" type="curve" smooth="yes"/>
      <point x="643" y="-249" type="line" smooth="yes"/>
      <point x="643" y="-317"/>
      <point x="621" y="-349"/>
      <point x="567" y="-349" type="curve" smooth="yes"/>
      <point x="513" y="-349"/>
      <point x="491" y="-317"/>
      <point x="491" y="-249" type="curve" smooth="yes"/>
      <point x="491" y="-187" type="line" smooth="yes"/>
      <point x="491" y="-106"/>
      <point x="502" y="-48"/>
      <point x="535" y="10" type="curve"/>
      <point x="338" y="10" type="line"/>
      <point x="303" y="-47"/>
      <point x="292" y="-108"/>
      <point x="292" y="-189" type="curve" smooth="yes"/>
      <point x="292" y="-260" type="line" smooth="yes"/>
      <point x="292" y="-433"/>
      <point x="382" y="-515"/>
      <point x="567" y="-515" type="curve" smooth="yes"/>
      <point x="754" y="-515"/>
      <point x="842" y="-433"/>
      <point x="842" y="-260" type="curve" smooth="yes"/>
    </contour>
  </outline>
</glyph>
